<?xml version="1.0" encoding="UTF-8" standalone="no"?>
<!-- Created with Inkscape (http://www.inkscape.org/) -->

<svg
   width="576.56104mm"
   height="500mm"
   viewBox="0 0 576.56104 500"
   version="1.1"
   id="svg1"
   inkscape:version="1.3.2 (091e20e, 2023-11-25, custom)"
   sodipodi:docname="BBallGrid.svg"
   xmlns:inkscape="http://www.inkscape.org/namespaces/inkscape"
   xmlns:sodipodi="http://sodipodi.sourceforge.net/DTD/sodipodi-0.dtd"
   xmlns="http://www.w3.org/2000/svg"
   xmlns:svg="http://www.w3.org/2000/svg">
  <sodipodi:namedview
     id="namedview1"
     pagecolor="#ffffff"
     bordercolor="#666666"
     borderopacity="1.0"
     inkscape:showpageshadow="2"
     inkscape:pageopacity="0.0"
     inkscape:pagecheckerboard="0"
     inkscape:deskcolor="#d1d1d1"
     inkscape:document-units="mm"
     inkscape:zoom="0.35455254"
     inkscape:cx="361.01843"
     inkscape:cy="951.90406"
     inkscape:window-width="2252"
     inkscape:window-height="981"
     inkscape:window-x="129"
     inkscape:window-y="7"
     inkscape:window-maximized="0"
     inkscape:current-layer="layer1" />
  <defs
     id="defs1" />
  <g
     inkscape:label="Layer 1"
     inkscape:groupmode="layer"
     id="layer1"
     transform="translate(-9.437306,-13.509601)">
    <path
       style="display:inline;fill:#12173f;fill-opacity:1;stroke:#FEE715;stroke-width:3.66521;stroke-dasharray:none;stroke-opacity:1"
       id="path54"
       d="m 340.04649,345.36802 -82.51355,-0.14554 -8.81836,-5.11204 -41.13071,-71.53164 0.0175,-10.19296 41.38288,-71.38606 8.83635,-5.08091 82.51359,0.14554 8.81841,5.11208 41.13066,71.53164 -0.0185,10.19296 -41.38289,71.38607 z" />
    <path
       style="display:inline;fill:#12173f;fill-opacity:1;stroke:#FEE715;stroke-width:3.37431;stroke-dasharray:none;stroke-opacity:1"
       id="path55"
       d="m 432.68118,115.42449 -43.51137,-0.0768 -4.65013,-2.69571 -21.68919,-37.720334 0.009,-5.374989 21.82215,-37.643573 4.65964,-2.679279 43.5114,0.07705 4.65014,2.69571 21.68918,37.720339 -0.009,5.374998 -21.82218,37.643558 z" />
    <path
       style="display:inline;fill:#12173f;fill-opacity:1;stroke:#FEE715;stroke-width:3.3744;stroke-linecap:round;stroke-linejoin:bevel;stroke-dasharray:none;stroke-opacity:1"
       id="path57"
       d="m 209.87797,115.42568 -43.51208,-0.077 -4.6502,-2.69575 -21.68955,-37.720931 0.009,-5.375078 21.82253,-37.644154 4.65971,-2.679325 43.51205,0.07705 4.6502,2.69575 21.68955,37.720926 -0.009,5.375082 -21.8225,37.64416 z" />
    <path
       style="display:inline;fill:#12173f;fill-opacity:1;stroke:#FEE715;stroke-width:3.37431;stroke-dasharray:none;stroke-opacity:1"
       id="path59"
       d="m 96.603117,306.73822 -43.511367,-0.0769 -4.650145,-2.6957 -21.689196,-37.72033 0.0092,-5.37499 21.822171,-37.64357 4.659633,-2.67929 43.511368,0.077 4.650149,2.6957 21.68919,37.72034 -0.009,5.37498 -21.82218,37.64356 z" />
    <path
       style="display:inline;fill:#12173f;fill-opacity:1;stroke:#FEE715;stroke-width:3.37434;stroke-dasharray:none;stroke-opacity:1"
       id="path61"
       d="m 542.19269,306.8397 -43.51136,-0.0769 -4.65014,-2.6957 -21.68919,-37.72032 0.009,-5.37499 21.82218,-37.64354 4.65965,-2.6793 43.51136,0.077 4.65011,2.69571 21.68922,37.72032 -0.009,5.375 -21.82218,37.64355 z" />
    <path
       style="display:inline;fill:#12173f;fill-opacity:1;stroke:#FEE715;stroke-width:3.37431;stroke-dasharray:none;stroke-opacity:1"
       id="path63"
       d="m 432.68115,497.7854 -43.51134,-0.0769 -4.65013,-2.6957 -21.68922,-37.72032 0.009,-5.37499 21.82218,-37.64359 4.65961,-2.67926 43.51137,0.0769 4.65016,2.6957 21.68919,37.72036 -0.009,5.37499 -21.82218,37.64355 z" />
    <path
       style="display:inline;fill:#12173f;fill-opacity:1;stroke:#FEE715;stroke-width:3.37434;stroke-dasharray:none;stroke-opacity:1"
       id="path66"
       d="m 209.8776,497.78481 -43.51136,-0.0769 -4.65013,-2.6957 -21.68919,-37.72035 0.009,-5.375 21.82217,-37.64355 4.65962,-2.67927 43.51137,0.0769 4.65013,2.6957 21.68919,37.72035 -0.009,5.37497 -21.82217,37.64358 z" />
    <g
       id="g52"
       style="display:inline"
       transform="matrix(2.5002133,0,0,2.5002133,0.97753599,291.57096)">
      <path
         d="m 109.97414,-27.870735 c 0.0941,0.04801 0.18876,0.09488 0.28365,0.141371 0.67265,0.329887 1.32307,0.692932 1.96075,1.086232 0.0405,0.02492 0.081,0.04987 0.12267,0.07555 0.24571,0.153138 0.48442,0.314068 0.72075,0.481295 0.0971,0.06863 0.1949,0.136079 0.29335,0.202795 0.929,0.630291 1.81668,1.311021 2.68291,2.02454 0.0855,0.06963 0.17108,0.13926 0.25663,0.208891 0.4417,0.361493 0.8748,0.733145 1.30784,1.10492 0.2635,0.226084 0.52847,0.450404 0.79375,0.674378 0.10324,0.08718 0.20638,0.174472 0.30952,0.261763 0.0516,0.0437 0.10328,0.08738 0.15493,0.131078 0.13127,0.110993 0.26239,0.222154 0.39328,0.333583 0.27052,0.23008 0.54285,0.457169 0.8212,0.67776 0.12349,0.09846 0.2455,0.198576 0.36742,0.298985 0.31053,0.254553 0.62621,0.502283 0.94298,0.749021 0.0491,0.03826 0.0981,0.07655 0.14864,0.116006 0.23524,0.18232 0.47175,0.361805 0.71265,0.536568 0.0416,0.03028 0.0832,0.06053 0.12604,0.09171 0.083,0.06022 0.16614,0.12017 0.24953,0.17982 0.0378,0.02738 0.0755,0.0548 0.11439,0.08303 0.034,0.02447 0.0681,0.04892 0.10319,0.07414 0.0363,0.03198 0.0363,0.03198 0.0734,0.06463 0,0.0315 0,0.06301 0,0.09549 0.0317,0.01038 0.0634,0.02079 0.0961,0.0315 0.18994,0.08517 0.34766,0.201701 0.51569,0.323602 0.0729,0.05213 0.14582,0.104228 0.21877,0.156286 0.0552,0.03949 0.0552,0.03949 0.11146,0.07979 0.92769,0.661003 1.89196,1.260547 2.86772,1.847209 0.0935,0.05623 0.18695,0.112523 0.28032,0.168979 0.47205,0.285187 0.95105,0.544506 1.44852,0.78258 0.0363,0.01749 0.0727,0.03484 0.11011,0.0528 0.22976,0.109877 0.46004,0.218593 0.69061,0.32675 0.0968,0.04562 0.19323,0.09177 0.28959,0.138201 0.48712,0.232469 0.98408,0.434941 1.48796,0.628169 0.0674,0.02605 0.0674,0.02605 0.13616,0.05264 0.59268,0.227401 1.19025,0.422772 1.80353,0.585946 0.0577,0.01531 0.11532,0.03071 0.17472,0.04653 0.6346,0.164369 1.27321,0.286236 1.92311,0.371251 0.0309,0.0041 0.0619,0.0081 0.0938,0.01232 0.70639,0.09181 1.41152,0.115972 2.12343,0.124893 0.13571,1.162303 0.227,2.314135 0.23782,3.4845328 0.001,0.093321 0.002,0.1866634 0.003,0.2800063 0.008,0.7043419 -0.008,1.405089 -0.0499,2.1082141 -0.52618,0.1261765 -1.05499,0.185 -1.59291,0.2385876 -0.056,0.00558 -0.11192,0.011164 -0.16958,0.016891 -0.0502,0.0048 -0.1004,0.00971 -0.15212,0.014714 -0.13453,0.013911 -0.13453,0.013911 -0.24987,0.039298 -0.18067,0.0351 -0.36218,0.051857 -0.54528,0.069686 -0.0417,0.00413 -0.0834,0.00815 -0.12629,0.012526 -0.53315,0.051321 -1.0672,0.091054 -1.60133,0.1306197 -0.0547,0.00402 -0.1094,0.00815 -0.16577,0.012325 -0.33785,0.025075 -0.67573,0.049848 -1.01362,0.07442 -0.15209,0.011164 -0.30416,0.022362 -0.45624,0.033626 -0.22964,0.016902 -0.45931,0.033481 -0.68902,0.04958 -0.082,0.00581 -0.164,0.011722 -0.24598,0.017885 -1.95566,0.1448875 -3.92361,0.1092852 -5.88327,0.1078004 -0.30493,0 -0.60985,0 -0.91478,0 -0.29853,0 -0.59705,0 -0.89558,0 -0.17644,0 -0.35288,0 -0.52931,0 -0.19553,0 -0.39106,0 -0.58659,0 -0.085,0 -0.085,0 -0.17168,0 -0.33809,0 -0.67257,-0.016501 -1.00961,-0.043183 -0.16273,-0.012716 -0.3242,-0.019079 -0.48737,-0.022775 -0.0583,-0.00201 -0.11652,-0.00301 -0.17655,-0.00458 -0.0602,-0.00201 -0.12031,-0.00301 -0.18228,-0.00458 -0.52758,-0.014513 -1.0525,-0.043261 -1.57853,-0.087359 -0.37271,-0.031059 -0.74503,-0.052427 -1.11877,-0.066415 -0.22216,-0.00893 -0.43665,-0.031472 -0.65686,-0.064071 -0.11035,-0.00715 -0.22077,-0.012917 -0.33124,-0.017885 -1.53474,-0.082335 -3.06302,-0.2920413 -4.58705,-0.4835053 -0.13221,-0.016501 -0.26445,-0.032867 -0.39671,-0.048999 -1.13052,-0.1378095 -2.25327,-0.3017987 -3.37476,-0.4999946 -0.0595,-0.010494 -0.0595,-0.010494 -0.12012,-0.021212 -1.02682,-0.1813158 -2.05372,-0.3633573 -3.07587,-0.5696472 -0.31337,-0.063166 -0.62675,-0.1261207 -0.94057,-0.1870654 -0.47094,-0.091858 -0.93716,-0.1861387 -1.39936,-0.3155751 -0.2598,-0.071874 -0.52229,-0.1330647 -0.78445,-0.1956505 -0.0777,-0.018488 -0.0777,-0.018488 -0.15695,-0.037556 -0.22463,-0.053588 -0.44934,-0.1067398 -0.6745,-0.1580834 -0.36195,-0.082715 -0.718429,-0.1749635 -1.073949,-0.2821164 -0.277707,-0.08353 -0.556976,-0.1601152 -0.837005,-0.2354505 -0.456198,-0.1233407 -0.909181,-0.255289 -1.361036,-0.393612 -0.134337,-0.040994 -0.26882,-0.081464 -0.403324,-0.1218895 -0.627634,-0.1897335 -1.251092,-0.390821 -1.873289,-0.597569 -0.03695,-0.01231 -0.07392,-0.02448 -0.111998,-0.03709 -0.358825,-0.118964 -0.716265,-0.238565 -1.065935,-0.382805 -0.212419,-0.08718 -0.427696,-0.167149 -0.642381,-0.248568 -0.04566,-0.01729 -0.09133,-0.0347 -0.138379,-0.05257 -0.111027,-0.0422 -0.222065,-0.08434 -0.333103,-0.126456 -0.0031,-0.477499 -0.0032,-0.954897 0,-1.432374 0,-0.04626 0.0011,-0.09252 0.0011,-0.140165 0.01539,-1.337848 0.223528,-2.712514 0.524366,-4.013744 0.01747,-0.07611 0.01747,-0.07611 0.0353,-0.153752 0.08037,-0.347471 0.164302,-0.693981 0.251181,-1.039889 0.0088,-0.03504 0.01758,-0.07009 0.02664,-0.106204 0.248289,-0.979782 0.537004,-1.968753 0.928282,-2.901802 0.0248,-0.06126 0.04954,-0.122559 0.07423,-0.183884 0.170621,-0.42208 0.352294,-0.836747 0.548536,-1.247574 0.04921,-0.10386 0.09738,-0.208177 0.145457,-0.312572 0.228964,-0.494647 0.478939,-0.97209 0.748619,-1.445648 0.05649,-0.100723 0.111004,-0.202215 0.164893,-0.304344 0.583547,-1.097296 1.324262,-2.131212 2.072289,-3.121768 0.01977,-0.02651 0.03957,-0.05303 0.05996,-0.08036 0.04731,-0.0616 0.09783,-0.12074 0.148917,-0.179262 0.03152,0 0.06303,0 0.0955,0 0.01175,-0.03482 0.02351,-0.06966 0.03563,-0.105567 0.06634,-0.147545 0.142755,-0.236835 0.253837,-0.35398 0.201345,-0.216282 0.386233,-0.441439 0.567906,-0.674422 0.09492,-0.104518 0.164525,-0.142666 0.288536,-0.202907 0.01576,-0.04727 0.0315,-0.09454 0.04775,-0.143235 3.54696,-0.74249 7.12247,-0.329832 10.36051,1.33576 z"
         fill="#000000"
         id="path2-9"
         style="fill:#FEE715;fill-opacity:1;stroke-width:0.047746" />
      <path
         d="m 92.642715,-9.5829306 c 0.117457,0.035569 0.234803,0.071428 0.352126,0.1074431 0.03243,0.00971 0.06486,0.019481 0.09829,0.029652 0.176672,0.054492 0.348498,0.1144765 0.51942,0.185 0.39647,0.161388 0.803557,0.29481 1.208568,0.4328985 0.04367,0.014904 0.08735,0.02983 0.13235,0.045214 0.631519,0.2153998 1.264076,0.4164761 1.906859,0.5957936 0.177877,0.050841 0.354325,0.1059918 0.530952,0.1610307 0.560638,0.1745169 1.12592,0.3245957 1.694898,0.4693827 0.214038,0.054626 0.426166,0.1128242 0.63786,0.1758789 0.323332,0.094817 0.651202,0.166557 0.979962,0.2396817 0.25104,0.056111 0.49979,0.1159278 0.74783,0.1840622 0.46568,0.1273822 0.93706,0.2306276 1.40851,0.3342191 0.0472,0.010383 0.0944,0.020855 0.14306,0.031594 0.48932,0.1065612 0.98068,0.2024048 1.47221,0.2981815 0.14477,0.0282 0.28952,0.056513 0.43427,0.084836 0.27167,0.053085 0.54342,0.1058467 0.81522,0.1583402 0.0377,0.00737 0.0754,0.014513 0.1142,0.022082 0.38653,0.07452 0.7728,0.143358 1.163,0.1957511 0.0861,0.011934 0.1721,0.023958 0.25813,0.036004 0.0602,0.00837 0.0602,0.00837 0.12161,0.016891 0.28735,0.040995 0.57303,0.091345 0.85865,0.1429449 0.47923,0.086421 0.95922,0.1625602 1.44135,0.2307951 0.0358,0.00514 0.0717,0.010159 0.10857,0.015507 0.53071,0.075514 1.06181,0.1417615 1.59494,0.1981401 0.33724,0.035703 0.67307,0.077602 1.00906,0.1235752 0.42608,0.05783 0.85203,0.097485 1.28068,0.1307537 0.26468,0.020799 0.52711,0.046253 0.7903,0.081118 0.70295,0.092517 1.4106,0.1468523 2.11896,0.1746844 0.15962,0.00659 0.31339,0.016299 0.47163,0.040001 0.24702,0.033827 0.49365,0.039632 0.74267,0.047916 0.55482,0.018689 0.55482,0.018689 0.78315,0.047749 0.32315,0.03932 0.64938,0.039677 0.9745,0.047749 0.3717,0.00938 0.74258,0.01928 1.11345,0.04757 4.12816,0.3133981 8.37141,0.068849 13.84594,-0.4056692 0.0984,-0.00837 0.19688,-0.015105 0.29544,-0.020888 0.62348,-0.042167 1.2414,-0.1174573 1.85791,-0.2194859 0.2405,-0.038404 0.46782,-0.052214 0.71141,-0.046096 -0.1156,1.1658316 -0.23575,2.3195278 -0.4893,3.4649068 -0.0474,0.2161255 -0.0928,0.4326529 -0.13825,0.6491802 -0.0354,0.16742778 -0.0718,0.33447594 -0.11077,0.50111102 -0.0933,0.39482893 -0.0933,0.39482893 -0.14516,0.79669122 -0.0228,0.21586869 -0.06,0.34610887 -0.21467,0.50860242 -0.3517,0.15201014 -0.73877,0.20096464 -1.11373,0.26835104 -0.41575,0.078472 -0.8116,0.2148193 -1.2109,0.3523496 -0.0551,0.018879 -0.0551,0.018879 -0.11132,0.037958 -0.2389,0.081542 -0.47722,0.164592 -0.71528,0.2485124 -0.0514,0.018086 -0.10276,0.03606 -0.15569,0.054626 -0.38742,0.13676 -0.7692,0.2799393 -1.14073,0.4562314 -0.13935,0.063646 -0.28021,0.1211861 -0.42235,0.1782345 -0.33502,0.13465 -0.6603,0.2799394 -0.98172,0.4443863 -0.28192,0.144106 -0.56742,0.2798947 -0.8536,0.4152815 -0.3635,0.1725967 -0.72227,0.3512109 -1.07653,0.5420386 -0.22777,0.1226039 -0.45798,0.2390229 -0.69007,0.353198 -0.24914,0.1228831 -0.48796,0.2544741 -0.7242,0.4009915 -0.12394,0.073192 -0.25041,0.136079 -0.37993,0.1988211 -0.26546,0.1305528 -0.51875,0.2760766 -0.77267,0.4273611 -0.26364,0.157034 -0.52914,0.3105066 -0.79546,0.4629522 -0.53054,0.3038863 -1.05468,0.6157996 -1.57265,0.9406409 -0.65631,0.4107042 -0.65631,0.4107042 -0.96537,0.5593316 -0.19697,0.096346 -0.39083,0.196633 -0.58353,0.3011623 -0.81836,0.4422316 -1.67256,0.8080451 -2.54084,1.1401542 -0.084,0.032141 -0.084,0.032141 -0.16961,0.064919 -1.17713,0.4475234 -2.37436,0.8465835 -3.60232,1.1287445 -0.0596,0.013922 -0.11914,0.027888 -0.18052,0.042267 -3.13929,0.7292046 -6.61124,0.9165486 -9.75063,0.1009679 -0.0564,-0.014502 -0.1127,-0.029071 -0.17076,-0.044065 -0.68718,-0.1803334 -1.35346,-0.389325 -2.006,-0.6707046 -0.1193,-0.050986 -0.23931,-0.099907 -0.35957,-0.1485827 C 101.37704,8.2727239 99.76608,7.1769916 98.515458,5.6002101 98.474999,5.5498378 98.434529,5.4994878 98.394048,5.4491378 98.062218,5.0338562 97.750997,4.6048987 97.442188,4.1723464 97.369632,4.072439 97.294933,3.974463 97.219799,3.8765093 97.093913,3.7098184 96.99395,3.5384386 96.8921,3.3561403 96.796379,3.2074347 96.696003,3.0618551 96.596017,2.9159852 96.464984,2.7223777 96.348063,2.524606 96.236143,2.3193655 96.176996,2.2122015 96.115493,2.1068795 96.052817,2.0017251 95.784042,1.5493564 95.542719,1.0923659 95.322642,0.61448705 c -0.0966,-0.20976194 -0.199804,-0.41567226 -0.304567,-0.62144862 -0.154534,-0.30577304 -0.291338,-0.61546468 -0.417783,-0.9340206 -0.0219,-0.0536657 -0.04382,-0.10734263 -0.06639,-0.16263833 -0.196007,-0.4828019 -0.378685,-0.9701587 -0.554307,-1.460742 -0.0123,-0.034106 -0.02462,-0.068235 -0.0373,-0.1033794 -0.205017,-0.57303 -0.35792,-1.1568333 -0.506369,-1.7467546 -0.04486,-0.1780783 -0.09339,-0.3532092 -0.149576,-0.5280052 -0.101493,-0.3314616 -0.154332,-0.6739087 -0.213926,-1.0147928 -0.01264,-0.071372 -0.02532,-0.1427551 -0.03801,-0.2141159 -0.02454,-0.1382113 -0.04894,-0.2764227 -0.07326,-0.4146452 -0.02488,-0.1401315 -0.05049,-0.2800175 -0.07728,-0.4197918 -0.159925,-0.8478115 -0.276389,-1.71324 -0.241155,-2.5771614 z"
         fill="#000000"
         id="path3-6"
         style="fill:#FEE715;fill-opacity:1;stroke-width:0.047746" />
      <path
         d="m 119.00918,-37.759253 c 0.17196,0 0.34393,0 0.5159,0 1.76839,0 1.76839,0 2.17998,0.21243 0.0345,0.0165 0.069,0.03311 0.1046,0.05019 0.11446,0.05593 0.22729,0.114332 0.34004,0.173613 0.0425,0.02218 0.0849,0.04434 0.1287,0.0672 0.95518,0.502528 1.86867,1.055854 2.73606,1.699407 0.0473,0.03503 0.0947,0.07003 0.14342,0.106126 1.0163,0.756702 1.94413,1.596363 2.8407,2.490059 0.0667,0.06641 0.0667,0.06641 0.13484,0.13417 0.24352,0.244081 0.47704,0.492783 0.70071,0.755094 0.0494,0.05633 0.0988,0.112601 0.14827,0.168801 0.26701,0.304992 0.52936,0.612942 0.78277,0.929365 0.0344,0.04284 0.0344,0.04284 0.0694,0.08656 0.43192,0.543747 0.43192,0.543747 0.43192,0.677381 0.0315,0 0.063,0 0.0955,0 0.19097,0.258393 0.19097,0.258393 0.19097,0.381968 0.0315,0 0.063,0 0.0955,0 0.0835,0.115939 0.16191,0.231844 0.23873,0.352126 0.0427,0.06607 0.0854,0.132105 0.12832,0.198062 0.0283,0.04427 0.0283,0.04427 0.0572,0.08941 0.055,0.08408 0.055,0.08408 0.14865,0.172072 0,0.04727 0,0.09454 0,0.143235 0.0315,0 0.063,0 0.0955,0 0.0669,0.08562 0.0669,0.08562 0.14025,0.199938 0.0241,0.03711 0.0481,0.07422 0.0729,0.112467 0.0476,0.07616 0.0945,0.152736 0.14066,0.229779 0.0713,0.118674 0.14394,0.236366 0.21724,0.353801 0.0397,0.06378 0.0397,0.06378 0.0802,0.128889 0.0548,0.08793 0.10959,0.175857 0.1645,0.263707 0.14485,0.23305 0.28405,0.467641 0.41575,0.708361 0.0584,0.105311 0.11907,0.208925 0.1807,0.312394 0.24677,0.415404 0.47338,0.832985 0.67527,1.272035 0.11708,0.253838 0.24356,0.500218 0.37737,0.745604 0.19748,0.364307 0.35457,0.738973 0.5074,1.123665 0.0482,0.118529 0.10112,0.234513 0.15508,0.350497 0.26308,0.570149 0.48829,1.156297 0.70544,1.745169 0.0448,0.120337 0.091,0.240072 0.13709,0.359918 0.74015,1.939882 1.22625,3.97083 1.62235,6.005752 0.009,0.04856 0.0189,0.09712 0.0287,0.147154 0.0266,0.137295 0.053,0.274625 0.0791,0.411999 0.008,0.04108 0.0158,0.08217 0.0239,0.124513 0.0282,0.15009 0.0533,0.291248 0.0533,0.444319 -1.96338,0.04884 -3.90783,-0.366104 -5.72952,-1.098155 -0.10443,-0.03882 -0.20888,-0.07761 -0.31333,-0.116374 -0.31523,-0.121834 -0.61966,-0.263618 -0.92428,-0.409365 -0.10457,-0.04971 -0.20949,-0.09861 -0.3145,-0.147343 -1.1344,-0.528407 -2.22965,-1.132328 -3.28454,-1.805657 -0.0747,-0.04768 -0.14976,-0.09497 -0.22478,-0.142241 -0.32188,-0.203108 -0.63911,-0.412803 -0.95456,-0.625725 -0.0503,-0.03382 -0.0503,-0.03382 -0.10154,-0.06832 -0.4669,-0.314503 -0.92554,-0.63662 -1.37373,-0.977237 -0.17791,-0.135163 -0.35781,-0.267469 -0.5381,-0.399439 -0.58419,-0.427707 -1.15079,-0.873578 -1.71166,-1.331272 -0.24111,-0.196511 -0.48462,-0.389727 -0.73007,-0.580778 -0.0749,-0.05841 -0.14945,-0.117279 -0.224,-0.176158 -0.0272,-0.02129 -0.0545,-0.0426 -0.0826,-0.06453 -0.0698,-0.05588 -0.13709,-0.114812 -0.2039,-0.174205 0,-0.0315 0,-0.06303 0,-0.09549 -0.0348,-0.01173 -0.0697,-0.02352 -0.10556,-0.03562 -0.14757,-0.06635 -0.23685,-0.142755 -0.35399,-0.253837 -0.16878,-0.15651 -0.34002,-0.306153 -0.51924,-0.450605 -0.17164,-0.138837 -0.33817,-0.281 -0.50133,-0.429706 -0.2015,-0.183437 -0.40968,-0.356245 -0.62145,-0.527625 -0.161,-0.132127 -0.31898,-0.267436 -0.47672,-0.403426 -0.28277,-0.24341 -0.56892,-0.481986 -0.85942,-0.716175 -0.0271,-0.02191 -0.0543,-0.04382 -0.0822,-0.06639 -0.90207,-0.727441 -1.82267,-1.432274 -2.78254,-2.082191 -0.0507,-0.03477 -0.1013,-0.06955 -0.15349,-0.105366 -1.19842,-0.816497 -2.44666,-1.529357 -3.76167,-2.138681 -0.045,-0.02091 -0.0899,-0.04184 -0.13625,-0.06339 -0.25484,-0.117379 -0.51006,-0.226195 -0.7739,-0.321559 -0.20558,-0.07512 -0.40983,-0.152222 -0.61268,-0.234457 -2.3188,-0.931799 -4.78759,-1.172362 -7.26242,-1.003952 0.0599,-0.179775 0.13516,-0.224119 0.28349,-0.340203 0.23095,-0.183437 0.4484,-0.375951 0.66228,-0.578914 0.10311,-0.08236 0.16672,-0.112511 0.29562,-0.131312 0,-0.0315 0,-0.06301 0,-0.0955 0.0827,-0.07203 0.16908,-0.139853 0.25664,-0.205888 0.0275,-0.02079 0.0551,-0.04156 0.0834,-0.06297 0.0932,-0.07 0.18688,-0.13935 0.28065,-0.208601 0.0332,-0.02463 0.0664,-0.04926 0.10066,-0.07464 0.47692,-0.352584 0.96268,-0.686937 1.46397,-1.003829 0.11379,-0.07205 0.22717,-0.144687 0.34054,-0.217376 0.39253,-0.250924 0.7847,-0.494502 1.19832,-0.709477 0.0672,-0.03594 0.1343,-0.07193 0.20142,-0.107991 1.03406,-0.553225 2.09844,-1.047883 3.20103,-1.449153 0.13808,-0.05122 0.27443,-0.104552 0.41088,-0.159848 0.82317,-0.330747 1.67691,-0.553749 2.53688,-0.7658 0.0471,-0.01173 0.0942,-0.02342 0.14274,-0.03549 0.47439,-0.117491 0.94878,-0.22614 1.43004,-0.311579 0.18393,-0.03276 0.36721,-0.06859 0.5506,-0.104272 0.35863,-0.06812 0.71787,-0.12026 1.08025,-0.163632 0.0959,-0.01153 0.19163,-0.02384 0.28742,-0.03612 0.937,-0.116486 1.87915,-0.12074 2.82212,-0.119065 z"
         fill="#000000"
         id="path4-3"
         style="fill:#FEE715;fill-opacity:1;stroke-width:0.047746" />
      <path
         d="m 135.80504,2.3058123 c -0.19654,0.6164248 -0.42146,1.2164607 -0.66845,1.8143531 -0.0246,0.060018 -0.0246,0.060018 -0.0497,0.1212531 -0.18979,0.4624163 -0.38907,0.9146063 -0.61873,1.3588698 -0.0287,0.057506 -0.0573,0.1150905 -0.0858,0.1726971 -0.6646,1.3438987 -0.6646,1.3438987 -1.06011,1.9758639 -0.0597,0.097474 -0.11936,0.1949584 -0.17905,0.2924543 -0.0676,0.1094638 -0.13516,0.2188942 -0.20292,0.3282352 -0.0195,0.031471 -0.039,0.062932 -0.0591,0.095352 -0.13859,0.2234268 -0.27806,0.4462507 -0.41838,0.6685834 -0.0449,0.071283 -0.0449,0.071283 -0.0906,0.1439943 -0.0252,0.039141 -0.0505,0.078294 -0.0765,0.1186072 -0.0212,0.033001 -0.0423,0.065991 -0.0642,0.099986 -0.0182,0.022138 -0.0364,0.04431 -0.0552,0.067141 -0.0315,0 -0.063,0 -0.0955,0 -0.007,0.039499 -0.007,0.039499 -0.0136,0.079812 -0.0433,0.1409688 -0.11356,0.2413786 -0.19826,0.3618273 -0.0442,0.06389 -0.0442,0.06389 -0.0893,0.129068 -0.0266,0.03227 -0.0533,0.06451 -0.0808,0.09774 -0.0315,0 -0.063,0 -0.0955,0 -0.0138,0.03643 -0.0276,0.07287 -0.0418,0.110401 -0.0537,0.12832 -0.0537,0.12832 -0.14921,0.271556 -0.0315,0 -0.063,0 -0.0955,0 -0.0178,0.05171 -0.0178,0.05171 -0.036,0.10444 -0.0655,0.14779 -0.1434,0.249539 -0.24749,0.373025 -0.0571,0.06812 -0.0571,0.06812 -0.11526,0.137631 -0.0421,0.04964 -0.0843,0.09925 -0.12646,0.148839 -0.0461,0.05457 -0.0923,0.109152 -0.13839,0.163755 -0.0682,0.08074 -0.13651,0.161422 -0.20505,0.241903 -0.0985,0.115727 -0.19457,0.231823 -0.28676,0.352674 -0.0426,0.05005 -0.0426,0.05005 -0.086,0.101091 -0.0315,0 -0.063,0 -0.0955,0 -0.0191,0.04183 -0.0191,0.04183 -0.0386,0.08448 -0.16803,0.314593 -0.4642,0.56516 -0.71693,0.811506 -0.0961,0.09871 -0.17794,0.200742 -0.26205,0.309614 -1.26891,1.461255 -5.54472,1.745716 -7.3857,1.897905 -2.56848,0.179351 -5.11447,0.05824 -7.63934,-0.429739 -0.0493,-0.0094 -0.0493,-0.0094 -0.0996,-0.01908 -1.90111,-0.364016 -3.83123,-0.943309 -5.57505,-1.793409 -0.12034,-0.05822 -0.24125,-0.115213 -0.3622,-0.172161 -0.78059,-0.368482 -1.54075,-0.756612 -2.27696,-1.207552 -0.12452,-0.07594 -0.24974,-0.150693 -0.37496,-0.225492 -0.27272,-0.16294 -0.54415,-0.327644 -0.81264,-0.497494 0.0236,-0.04727 0.0236,-0.04727 0.0477,-0.0955 0.0603,0.02085 0.0603,0.02085 0.12179,0.04214 0.90946,0.300325 1.84458,0.479977 2.79072,0.61734 0.0339,0.0049 0.0678,0.01016 0.10266,0.0153 1.85365,0.271555 3.87186,0.270874 5.72234,-0.0064 0.0685,-0.0099 0.13707,-0.01968 0.20562,-0.02952 1.37315,-0.198375 2.72107,-0.474831 4.04848,-0.883001 0.14529,-0.04447 0.29089,-0.08782 0.43657,-0.130988 0.0976,-0.02915 0.19521,-0.05829 0.29281,-0.08748 0.066,-0.01948 0.066,-0.01948 0.13327,-0.03954 0.2541,-0.07697 0.49949,-0.165876 0.74511,-0.266677 0.12921,-0.05214 0.2601,-0.09617 0.39285,-0.1384007 0.25962,-0.085238 0.51148,-0.1821978 0.76394,-0.2864815 0.0617,-0.024907 0.12334,-0.049769 0.18502,-0.074621 0.42206,-0.1707435 0.83667,-0.3524836 1.2475,-0.5487928 0.10063,-0.047525 0.2018,-0.093722 0.30312,-0.1397854 0.57709,-0.2644883 1.12687,-0.5687654 1.67635,-0.8862495 0.10846,-0.062106 0.21762,-0.1225258 0.3273,-0.1824435 0.29987,-0.1658312 0.59085,-0.3468233 0.88312,-0.5255714 0.37245,-0.2276022 0.74575,-0.4530162 1.12336,-0.672022 0.16691,-0.097284 0.33196,-0.1974479 0.49701,-0.297813 0.209,-0.1263774 0.41813,-0.2466927 0.63879,-0.3515681 0.1091,-0.05534 0.21191,-0.1185514 0.31613,-0.1825997 0.21817,-0.1330089 0.44258,-0.2460452 0.67199,-0.3582666 0.15869,-0.080995 0.31138,-0.1691582 0.46496,-0.2594421 0.29721,-0.1737689 0.60387,-0.3210232 0.91608,-0.465732 0.26035,-0.1213089 0.51442,-0.2509686 0.76697,-0.3877286 0.29262,-0.1578824 0.58648,-0.2953011 0.89393,-0.4224377 0.17802,-0.075257 0.35208,-0.1569111 0.5265,-0.2400389 0.26549,-0.1257634 0.53337,-0.2375605 0.80927,-0.3390755 0.14016,-0.053666 0.27712,-0.1112277 0.41498,-0.1704644 0.36542,-0.1529814 0.73911,-0.2800733 1.11406,-0.4073662 0.12065,-0.041006 0.24117,-0.08238 0.36167,-0.1237985 1.09616,-0.3751131 1.09616,-0.3751131 1.42706,-0.3648198 z"
         fill="#000000"
         id="path5-86"
         style="fill:#FEE715;fill-opacity:1;stroke-width:0.047746" />
      <path
         d="m 125.34867,-37.036848 c 0.23776,0.03511 0.46641,0.09054 0.6983,0.1522 0.0592,0.01571 0.0592,0.01571 0.11963,0.03173 0.90071,0.241513 1.80682,0.505153 2.66753,0.8665 0.0635,0.02592 0.12705,0.05176 0.19061,0.07758 0.0708,0.02885 0.1415,0.05768 0.21225,0.08655 0.0325,0.01312 0.0649,0.02639 0.0984,0.03999 0.28188,0.115726 0.55896,0.241177 0.83564,0.368827 0.0411,0.01888 0.0823,0.03795 0.12469,0.05751 1.02489,0.475925 2.03457,0.990757 2.97879,1.61359 0.0506,0.03324 0.10118,0.06647 0.15331,0.100722 0.0948,0.06288 0.18936,0.126087 0.28368,0.189678 0.0908,0.06112 0.18191,0.121688 0.27342,0.181651 0.39422,0.258794 0.77434,0.534514 1.15168,0.817088 0.0407,0.03049 0.0407,0.03049 0.0823,0.0616 0.34631,0.260157 0.68039,0.532103 1.00931,0.813862 0.14019,0.119846 0.28346,0.235551 0.42728,0.351021 0.18758,0.152501 0.36088,0.311433 0.52726,0.486776 0.0894,0.08832 0.18098,0.169716 0.27622,0.251616 0.23182,0.201311 0.44819,0.416744 0.66471,0.63431 0.0387,0.03854 0.0775,0.0771 0.11741,0.116832 0.20588,0.206212 0.40434,0.415962 0.59433,0.636922 0.0993,0.115224 0.20261,0.226676 0.30584,0.338428 0.23492,0.257935 0.45682,0.524109 0.67442,0.796758 0.0197,0.02453 0.0395,0.04906 0.0598,0.07432 0.32753,0.407467 0.63686,0.826444 0.94081,1.25174 0.0973,0.136168 0.19677,0.27036 0.29804,0.403615 0.10197,0.135186 0.19267,0.271812 0.27697,0.418876 0.0525,0.08274 0.10519,0.165284 0.15816,0.247698 0.0587,0.09247 0.11743,0.184977 0.17605,0.277528 0.026,0.04074 0.052,0.08149 0.0787,0.123463 0.0242,0.03902 0.0485,0.07804 0.0735,0.11825 0.0214,0.03403 0.0427,0.06806 0.0647,0.103123 0.97677,1.861889 1.28662,4.948445 0.79172,6.969233 -0.009,0.03652 -0.0172,0.07304 -0.0261,0.110659 -0.0171,0.07166 -0.0344,0.14328 -0.052,0.214797 -0.0196,0.08028 -0.0379,0.160863 -0.0559,0.241535 -0.19242,0.803132 -0.64456,1.507184 -1.20875,2.097831 -0.0258,0.02936 -0.0516,0.05871 -0.0781,0.08897 -0.64094,0.702276 -1.67857,1.095576 -2.59563,1.24791 -0.0795,0.0026 -0.15924,0.0038 -0.23873,0 -0.0676,-0.156331 -0.11047,-0.295938 -0.13148,-0.464772 -0.006,-0.04516 -0.0122,-0.09033 -0.0185,-0.136861 -0.007,-0.04961 -0.0133,-0.09923 -0.0202,-0.150347 -0.0836,-0.581045 -0.2015,-1.151921 -0.32825,-1.724839 -0.0134,-0.06084 -0.0134,-0.06084 -0.0271,-0.122917 -0.17156,-0.777087 -0.35181,-1.554185 -0.57574,-2.318076 -0.0133,-0.04562 -0.0266,-0.09122 -0.0403,-0.138189 -0.18983,-0.638072 -0.40532,-1.268262 -0.61856,-1.898798 -0.0568,-0.167863 -0.11317,-0.335827 -0.16869,-0.504114 -0.0106,-0.03222 -0.0213,-0.06444 -0.0323,-0.09765 -0.0289,-0.08747 -0.0576,-0.174985 -0.0864,-0.262489 -0.0671,-0.193909 -0.14517,-0.381622 -0.22614,-0.570049 -0.0819,-0.195171 -0.15735,-0.392518 -0.23313,-0.5901 -0.10583,-0.274369 -0.21574,-0.54474 -0.34056,-0.811115 -0.0518,-0.11182 -0.10208,-0.223941 -0.15145,-0.336854 -0.16776,-0.383274 -0.34098,-0.76186 -0.53082,-1.13474 -0.14776,-0.290914 -0.28633,-0.585913 -0.42232,-0.882509 -0.0998,-0.214418 -0.21047,-0.414367 -0.33841,-0.613299 -0.0708,-0.11125 -0.13311,-0.226129 -0.19492,-0.34257 -0.11555,-0.214496 -0.23789,-0.42351 -0.36443,-0.631686 -0.0642,-0.107499 -0.12486,-0.216204 -0.18464,-0.326204 -0.27577,-0.500463 -0.60542,-0.972034 -0.9221,-1.4473 -0.0211,-0.03171 -0.0422,-0.06339 -0.064,-0.09608 -0.28686,-0.430063 -0.57675,-0.856196 -0.88983,-1.267782 -0.0673,-0.08907 -0.13336,-0.178983 -0.19935,-0.269021 -0.27724,-0.376698 -0.56651,-0.7377 -0.87417,-1.089949 -0.11683,-0.133936 -0.22838,-0.271399 -0.33906,-0.410504 -0.50129,-0.613365 -1.07052,-1.167584 -1.62933,-1.727798 -0.0437,-0.04386 -0.0437,-0.04386 -0.0882,-0.08861 -0.30527,-0.306298 -0.61047,-0.60823 -0.9413,-0.887198 -0.0523,-0.04585 -0.10453,-0.09179 -0.15667,-0.137832 -0.47442,-0.414377 -0.97414,-0.788832 -1.48329,-1.159156 -0.0333,-0.02423 -0.0665,-0.04847 -0.10082,-0.07346 -0.0639,-0.04645 -0.12786,-0.09277 -0.19198,-0.13887 -0.0728,-0.0528 -0.14443,-0.107142 -0.2158,-0.161801 0,-0.01571 0,-0.0315 0,-0.04775 z"
         fill="#000000"
         id="path6-3"
         style="fill:#FEE715;fill-opacity:1;stroke-width:0.047746" />
      <path
         d="m 144.30381,-19.800566 c 0.61742,0.926138 0.76528,2.388544 0.96985,3.470533 0.0118,0.06246 0.0118,0.06246 0.0239,0.126165 0.15963,0.849978 0.30837,1.69971 0.376,2.562548 0.003,0.03773 0.006,0.07544 0.009,0.11432 0.0606,0.791802 0.0678,1.583603 0.0685,2.377403 0,0.08768 0,0.08768 0.001,0.177129 0.001,0.849185 -0.0394,1.6894158 -0.11092,2.5354411 -1.93178,0.7609327 -3.98128,1.1599928 -6.01301,1.5547324 -0.0616,0.011934 -0.12322,0.023992 -0.18671,0.036361 -0.41841,0.080024 -0.41841,0.080024 -0.5802,0.080024 0,-0.029674 0,-0.059371 0.001,-0.089949 0.0115,-1.6836552 0.0109,-3.3574195 -0.16251,-5.0338185 -0.0242,-0.23526 -0.0329,-0.464671 -0.0291,-0.701238 0.0271,-0.0056 0.0541,-0.01094 0.082,-0.01669 1.71083,-0.35235 3.23771,-1.06665 4.26285,-2.540789 0.89085,-1.378206 1.14748,-2.882019 1.23132,-4.498935 0.0101,-0.105568 0.0101,-0.105568 0.0578,-0.153317 z"
         fill="#000000"
         id="path7-7"
         style="fill:#FEE715;fill-opacity:1;stroke-width:0.047746" />
      <path
         d="m 145.35423,-6.9091441 c 0.0609,0.182689 0.0247,0.3227871 -0.0106,0.5067377 -0.007,0.036172 -0.0134,0.072354 -0.0203,0.1095978 -0.0221,0.1179373 -0.0447,0.2357184 -0.0675,0.3534883 -0.008,0.040113 -0.0153,0.080203 -0.0232,0.1215099 -0.11366,0.5923662 -0.24236,1.1761918 -0.41663,1.7540894 -0.0351,0.116419 -0.069,0.2331618 -0.10269,0.3500051 -0.1288,0.4425889 -0.2686,0.8816052 -0.41236,1.3195498 -0.0151,0.046554 -0.0302,0.093109 -0.0458,0.1410694 -0.0927,0.2787671 -0.20175,0.5435456 -0.32609,0.8096527 -0.0728,0.1599478 -0.13084,0.3218158 -0.18915,0.48761361 -0.12113,0.33320319 -0.26986,0.6451388 -0.43214,0.95996591 -0.0921,0.17915003 -0.17776,0.36087896 -0.2626,0.54354566 -0.19722,0.4246262 -0.41242,0.83018382 -0.6511,1.23292802 -0.064,0.1112166 -0.12752,0.2227012 -0.19099,0.3342192 -0.1687,-0.075056 -0.30037,-0.1779108 -0.44463,-0.2924432 -1.00909,-0.7734252 -2.25958,-1.11443212 -3.51529,-1.16678083 -0.0463,-0.00201 -0.0926,-0.004131 -0.14035,-0.00614 -0.11336,-0.005024 -0.22672,-0.009936 -0.3401,-0.0147143 0.0538,-0.24375657 0.10852,-0.48727869 0.16451,-0.73054403 0.40208,-1.75147704 0.66955,-3.49682494 0.83816,-5.28544484 0.0287,-0.00458 0.0574,-0.00915 0.087,-0.01371 0.59852,-0.095297 1.19315,-0.2008307 1.78582,-0.3276435 0.25797,-0.055117 0.51597,-0.1069407 0.7756,-0.1535731 1.33095,-0.240519 2.66518,-0.5826311 3.94051,-1.0329232 z"
         fill="#000000"
         id="path8-7"
         style="fill:#FEE715;fill-opacity:1;stroke-width:0.047746" />
      <path
         d="m 137.3329,2.0193308 c 1.44159,-0.040604 2.79566,0.099729 3.91219,1.1011581 0.0652,0.062061 0.13015,0.1244683 0.19397,0.1879808 -0.0728,0.1481139 -0.15383,0.2882231 -0.23873,0.429739 -0.0325,0.0633 -0.0646,0.1268351 -0.0955,0.1909728 -0.0315,0 -0.063,0 -0.0955,0 -0.0128,0.034653 -0.0256,0.069295 -0.0388,0.1049982 -0.0561,0.1322274 -0.12065,0.2439798 -0.19994,0.3635025 -0.0246,0.037723 -0.0492,0.075447 -0.0746,0.1143313 -0.0227,0.028245 -0.0453,0.05649 -0.0686,0.085617 -0.0315,0 -0.063,0 -0.0955,0 -0.0138,0.027564 -0.0276,0.055139 -0.0418,0.083541 -0.0497,0.099472 -0.0995,0.1989551 -0.14921,0.2984271 -0.0315,0 -0.063,0 -0.0955,0 -0.0119,0.026705 -0.0239,0.053409 -0.0362,0.08094 -0.0689,0.1277729 -0.15193,0.2308732 -0.24433,0.3428043 -0.10762,0.1320488 -0.2074,0.2605138 -0.30139,0.4028336 -0.0956,0.1417503 -0.20369,0.2466815 -0.32527,0.3670638 -0.10246,0.107499 -0.20344,0.2163488 -0.30438,0.3252767 -0.0257,0.027586 -0.0515,0.055195 -0.078,0.083641 -0.13324,0.1435589 -0.26371,0.2886585 -0.3911,0.4374422 -0.20758,0.2383532 -0.43104,0.4607864 -0.65488,0.6836884 -0.0726,0.072299 -0.14486,0.1448428 -0.21713,0.2174205 -0.255,0.2551886 -0.5151,0.5010328 -0.78958,0.7353111 -0.0768,0.069452 -0.15339,0.1390598 -0.22978,0.2088911 -0.25073,0.2257043 -0.50888,0.4406017 -0.77289,0.6505534 -0.0348,0.027732 -0.0697,0.055474 -0.10559,0.084054 -0.11673,0.092673 -0.2338,0.1849107 -0.35098,0.2770144 -0.0381,0.030199 -0.0763,0.060386 -0.11554,0.091523 -0.0358,0.027944 -0.0716,0.055909 -0.10845,0.084713 -0.0322,0.02529 -0.0643,0.05055 -0.0975,0.07658 -0.0814,0.05455 -0.0814,0.05455 -0.17689,0.05455 0,0.0315 0,0.06301 0,0.09549 -0.0981,0.07069 -0.0981,0.07069 -0.23276,0.152189 -0.17482,0.108046 -0.34613,0.217622 -0.51327,0.3372 -0.49912,0.353221 -1.01758,0.682829 -1.54578,0.990734 -0.0515,0.03015 -0.10302,0.06031 -0.15609,0.09138 -0.13885,0.08114 -0.2778,0.16208 -0.41686,0.242841 -0.0157,-0.0315 -0.0315,-0.06303 -0.0477,-0.09549 0.0267,-0.0343 0.0534,-0.06856 0.0809,-0.103882 0.51934,-0.67047 1.02608,-1.348576 1.48929,-2.0592431 0.0849,-0.1293805 0.17225,-0.2571534 0.25903,-0.3853059 0.1283,-0.1922009 0.24475,-0.3864559 0.354,-0.5899325 0.0702,-0.1250823 0.14695,-0.2446273 0.22492,-0.3649873 0.16584,-0.2580466 0.31286,-0.5229368 0.45657,-0.7937885 0.0295,-0.054581 0.059,-0.1091848 0.0893,-0.1654182 0.61191,-1.1345276 1.16194,-2.2943864 1.61813,-3.5003863 0.0479,-0.1246917 0.0974,-0.2484678 0.14753,-0.3722663 0.11581,-0.2887479 0.22134,-0.5809789 0.32639,-0.8737792 0.0192,-0.053186 0.0385,-0.1063602 0.0583,-0.1611424 0.0184,-0.051087 0.0367,-0.1021737 0.0557,-0.1548123 0.0165,-0.045974 0.0331,-0.091925 0.0501,-0.1393054 0.0353,-0.1044289 0.065,-0.2072724 0.0896,-0.3146597 z"
         fill="#010101"
         id="path9-6"
         style="fill:#FEE715;fill-opacity:1;stroke-width:0.047746" />
    </g>
    <path
       d="m 182.18472,415.94138 c 0.64397,0.3034 0.89573,0.69932 1.24246,1.28854 0.22,0.33641 0.41038,0.47377 0.78677,0.61381 0.74229,0.0388 1.35558,-0.0597 2.06881,-0.25355 1.95017,-0.49291 1.95017,-0.49291 2.81839,-0.11324 0.37546,0.1357 0.48551,0.0957 0.84365,-0.0609 1.06831,-0.39623 2.10881,-0.26616 3.14683,0.17416 0.87335,0.46472 1.45646,0.94511 1.77556,1.90235 0.0292,0.38001 0.0486,0.75975 0.0661,1.14041 0.0327,0.38352 0.0327,0.38352 0.25069,0.65599 0.60612,1.14592 0.33099,3.09627 0.009,4.30456 -0.71809,2.31953 -0.71809,2.31953 -1.59423,2.90361 -0.28687,0.0246 -0.28687,0.0246 -0.59448,0.0154 -0.10234,-0.002 -0.20496,-0.003 -0.31064,-0.006 -0.0779,-0.002 -0.15604,-0.006 -0.23635,-0.009 -0.29345,1.11373 0.0234,1.79388 0.50729,2.79013 0.16173,0.35001 0.3191,0.70184 0.47563,1.05422 0.0578,0.12739 0.0578,0.12739 0.11742,0.25724 0.21869,0.49214 0.35855,0.94361 0.42153,1.47864 0.11969,-0.006 0.23936,-0.0123 0.36265,-0.0185 1.66079,-0.0471 2.9571,0.23878 4.20304,1.41288 0.65319,0.6351 1.10477,1.28694 1.39505,2.15599 0,0.084 0,0.1677 0,0.25385 1.36344,-0.19477 2.63678,-0.89769 3.77302,-1.65661 0.41223,-0.24555 0.41223,-0.24555 0.69163,-0.19755 0.11284,0.0394 0.11284,0.0394 0.22789,0.0788 -0.0611,0.54848 -0.21032,0.79018 -0.63418,1.14142 -0.16819,0.0865 -0.33702,0.17139 -0.50729,0.25386 -0.0419,0.0837 -0.0838,0.16739 -0.12677,0.25354 0.82932,0.2114 1.64834,0.32155 2.49927,0.39651 0.65854,0.0662 1.20538,0.2237 1.81273,0.49128 0.19013,0.27724 0.19013,0.27724 0.25361,0.50728 -0.12681,0.12677 -0.12681,0.12677 -0.49934,0.14277 -0.59774,-0.006 -1.18998,-0.0754 -1.78348,-0.14277 0.14489,0.0646 0.29004,0.12862 0.43945,0.19508 0.18927,0.088 0.37822,0.17601 0.56725,0.26463 0.0958,0.0419 0.19145,0.0837 0.29004,0.12739 0.26626,0.12646 0.50068,0.24493 0.7325,0.42755 0.12739,0.41516 0.12739,0.41516 0.12681,0.76098 -0.53217,-0.0443 -0.91699,-0.12339 -1.38717,-0.38047 -0.51382,-0.27724 -0.94989,-0.33906 -1.52981,-0.38051 0,0.084 0,0.16739 0,0.25386 0.0911,0.0342 0.18216,0.0686 0.27595,0.10369 0.35721,0.14924 0.68191,0.31912 1.01608,0.51427 0.10905,0.0631 0.21807,0.12493 0.3304,0.18924 0.2954,0.21847 0.40244,0.37589 0.53359,0.71433 -0.0419,0.0419 -0.0838,0.084 -0.12678,0.12677 -0.77295,-0.0388 -1.30135,-0.31324 -1.95786,-0.70544 -0.0929,-0.0535 -0.18542,-0.10769 -0.28114,-0.16339 -0.22672,-0.132 -0.45243,-0.26555 -0.67798,-0.39958 0.39565,0.73753 0.39565,0.73753 0.98291,1.32377 0.0779,0.0631 0.15552,0.12524 0.23577,0.18985 0.0873,0.0671 0.0873,0.0671 0.17637,0.13539 -0.0419,0.16739 -0.0838,0.33488 -0.12671,0.50728 -0.67329,-0.0412 -1.06774,-0.42854 -1.5219,-0.88775 -0.0686,-0.10493 -0.13625,-0.20986 -0.20656,-0.31811 -0.43099,-0.45303 -0.89728,-0.55076 -1.48967,-0.71239 -0.69707,-0.19816 -1.34227,-0.39315 -1.98161,-0.74504 -0.009,0.0991 -0.016,0.19877 -0.0234,0.30093 -0.3104,1.38463 -1.13736,2.44317 -2.29868,3.22612 -1.21242,0.7215 -2.35529,0.93311 -3.76511,0.78476 -0.57881,-0.15354 -1.11391,-0.36675 -1.64871,-0.6342 -0.004,0.13323 -0.009,0.26647 -0.0135,0.40376 -0.0393,0.8869 -0.0787,1.67862 -0.41516,2.51025 -0.11659,0.38432 -0.0771,0.74381 -0.0292,1.13893 -0.0486,0.25909 -0.0486,0.25909 -0.36709,0.49541 -0.35544,0.24308 -0.35544,0.24308 -0.35862,0.64648 0.0175,0.14308 0.0335,0.28586 0.0511,0.433 0.0175,0.15908 0.036,0.31817 0.0553,0.48199 0.0219,0.16 0.0419,0.32013 0.0636,0.48503 0.0175,0.20647 0.0175,0.20647 0.036,0.41759 0.14607,1.40537 0.63359,2.69748 1.10523,4.02122 0.0578,0.16462 0.11499,0.32924 0.17235,0.49389 0.10102,0.28678 0.20367,0.57304 0.30812,0.85853 0.10369,0.28585 0.20342,0.57337 0.29924,0.86203 0.39079,1.12961 0.90191,2.16014 1.46341,3.21519 1.38777,2.61871 2.41876,5.3665 3.34814,8.17771 0.0729,0.21693 0.14957,0.43257 0.23032,0.64661 0.2629,0.71077 0.30551,1.32916 0.30564,2.08254 0.0889,3.45446 0.96308,6.89582 1.70394,10.25542 0.0277,0.12462 0.0545,0.24893 0.0829,0.37736 0.0511,0.23417 0.10327,0.46818 0.15601,0.70209 0.11123,0.50747 0.20788,0.97496 0.17394,1.49818 0.16748,0.0419 0.33484,0.0837 0.50729,0.12677 0.0419,0.16739 0.0838,0.33485 0.12671,0.50728 0.13869,0.0123 0.27724,0.0246 0.42011,0.0394 0.46767,0.0874 0.46767,0.0874 0.7134,0.26955 0.13478,0.19785 0.13478,0.19785 0.13478,0.45183 1.7358,0.36124 3.68737,0.30432 5.32662,-0.38051 0.54966,-0.18339 1.07484,-0.20985 1.64871,-0.12677 0.36424,0.3429 0.37495,0.59482 0.44389,1.08595 -0.0435,1.0808 -0.61316,2.07219 -1.33166,2.84561 -0.52488,0.41894 -1.08327,0.78015 -1.64871,1.14142 -0.15736,0.1037 -0.15736,0.1037 -0.31801,0.20986 -0.93648,0.54756 -1.92156,0.53694 -2.97939,0.55134 -0.0394,0.0991 -0.0787,0.19847 -0.11899,0.30063 -0.11699,0.28985 -0.24524,0.56325 -0.38836,0.84067 -0.0302,0.0843 -0.0611,0.16893 -0.0922,0.25601 -0.28653,0.44602 -0.76541,0.44359 -1.25766,0.55196 -0.65218,0.12247 -1.30411,0.21201 -1.9634,0.28617 -0.12521,0.0154 -0.2505,0.0311 -0.37949,0.0468 -2.40677,0.28124 -4.81883,0.27847 -7.23821,0.27816 -0.38283,0 -0.76566,8e-4 -1.14847,0.002 -9.78533,0.0437 -9.78533,0.0437 -11.12937,-1.16755 0,-0.0837 0,-0.1677 0,-0.25355 3.32572,-1.53461 7.74872,-1.0521 11.32582,-1.03939 0.49021,0.001 0.98028,0.001 1.47042,0.001 0.47823,3e-5 0.95645,8.3e-4 1.43468,0.002 0.22545,4.3e-4 0.45084,6.1e-4 0.6763,8.6e-4 1.29401,10e-4 2.57294,0.0335 3.86278,0.14801 -0.0461,-0.12247 -0.0915,-0.24524 -0.13871,-0.37153 -0.30896,-0.85624 -0.54255,-1.5671 -0.48451,-2.48695 -0.0175,-0.52294 -0.22068,-0.9828 -0.39883,-1.47036 -0.10612,-0.32321 -0.15862,-0.58956 -0.18283,-0.9264 -0.1649,-1.92915 -1.23041,-3.79331 -2.07427,-5.49952 -1.1018,-2.23378 -1.89626,-4.3565 -1.93654,-6.87924 -0.004,-0.2077 -0.004,-0.2077 -0.009,-0.41958 -0.004,-0.27478 -0.006,-0.54993 -0.004,-0.8248 -0.016,-1.03662 -0.299,-1.69366 -0.85989,-2.55483 -0.0913,-0.14309 -0.18244,-0.28586 -0.27361,-0.42891 -0.30712,-0.47663 -0.62254,-0.94754 -0.9391,-1.41796 -0.0561,-0.0828 -0.11164,-0.16678 -0.16927,-0.25262 -1.95254,-2.91322 -4.0267,-5.59725 -6.50479,-8.08599 -0.0948,-0.0954 -0.18967,-0.19108 -0.28752,-0.28924 -1.09496,-1.19315 -1.09496,-1.19315 -2.4788,-1.95389 -1.44667,1.34273 -1.44667,1.34273 -2.85353,2.72675 -0.4619,0.46657 -0.92817,0.92037 -1.42927,1.34503 -0.22721,0.19293 -0.45042,0.38894 -0.6727,0.58753 -3.50664,3.10673 -3.50664,3.10673 -5.30781,3.00808 -0.89183,-0.19662 -1.84421,-0.73326 -2.36307,-1.48621 -0.51499,-0.82615 -0.80738,-1.54264 -0.91656,-2.51815 -0.1917,-1.69379 -0.61031,-3.32948 -1.02448,-4.97938 -0.0252,-0.0997 -0.0503,-0.1997 -0.0762,-0.30248 -0.0478,-0.18831 -0.0951,-0.37638 -0.14311,-0.56442 -0.12564,-0.49589 -0.22924,-0.98871 -0.30552,-1.49451 -0.17259,-0.0437 -0.17259,-0.0437 -0.34875,-0.0874 -0.46909,-0.18955 -0.63777,-0.38894 -0.91946,-0.80061 -0.0837,0.084 -0.16748,0.16739 -0.25367,0.25354 -0.25361,-0.0154 -0.25361,-0.0154 -0.50729,-0.12646 -0.0503,-0.11693 -0.0503,-0.11693 -0.10059,-0.23632 -0.34556,-0.61162 -1.15666,-0.83584 -1.80179,-1.03191 -1.0803,-0.23878 -2.19093,-0.33998 -3.29151,-0.43697 -0.14625,-0.0123 -0.14625,-0.0123 -0.29564,-0.0277 -0.18148,-0.0185 -0.36323,-0.0311 -0.54523,-0.0428 -0.46524,-0.0418 -0.68752,-0.12677 -1.05855,-0.41878 -0.33611,-0.43759 -0.35629,-0.64606 -0.32354,-1.17851 0.19188,-0.95938 0.78987,-1.66803 1.58284,-2.20706 1.24889,-0.77387 2.75141,-0.98444 4.18769,-0.67966 0.82755,0.24155 0.82755,0.24155 1.0121,0.42605 0.30294,0.0351 0.30294,0.0351 0.65788,0.0394 0.11942,0.003 0.23902,0.009 0.36215,0.0123 0.39631,-0.0277 0.39631,-0.0277 0.7397,-0.30678 0.47437,-0.30493 0.84158,-0.3281 1.38714,-0.3101 0.0895,0.002 0.17881,0.003 0.27084,0.003 0.918,0.0326 1.59363,0.15446 2.28935,0.7635 0.12564,0.14924 0.12564,0.14924 0.2537,0.30094 0.0419,0.0418 0.0838,0.0837 0.12684,0.12677 0.0703,0.86895 -0.0318,1.6996 -0.18927,2.5528 -0.0595,0.33552 -0.10167,0.66726 -0.13585,1.00619 -0.0553,0.4994 -0.0553,0.4994 -0.18244,0.87985 0.14715,0.35869 0.14715,0.35869 0.37253,0.7515 0.0603,0.11108 0.0603,0.11108 0.12213,0.22432 0.12991,0.23816 0.26139,0.47531 0.39313,0.71239 0.16952,0.30823 0.33853,0.61707 0.50729,0.92591 0.0419,0.0763 0.0838,0.15293 0.12672,0.2317 0.30511,0.55996 0.60033,1.12426 0.8878,1.69351 0.0737,0.14493 0.1465,0.29017 0.22195,0.43953 0.15846,0.34764 0.15846,0.34764 0.15846,0.60134 1.44372,-1.1453 3.12928,-2.97115 3.47677,-4.84953 0.009,-0.0871 0.0175,-0.17354 0.0268,-0.26309 0.016,-0.15416 0.0309,-0.30856 0.0478,-0.46767 0.10044,-0.0277 0.20075,-0.0535 0.3042,-0.0812 0.35804,-0.14185 0.35804,-0.14185 0.46173,-0.49537 0.0243,-0.13385 0.0486,-0.26801 0.0746,-0.4062 0.0292,-0.14831 0.0595,-0.29693 0.0902,-0.44983 0.0544,-0.30493 0.10838,-0.61015 0.16047,-0.91551 0.27376,-1.47135 0.83883,-2.94352 2.07972,-3.86617 0.22093,-0.12062 0.44296,-0.2397 0.66583,-0.35669 0.3851,-0.21355 0.56483,-0.31466 0.73669,-0.7248 0.0519,-0.22585 0.10234,-0.45235 0.15065,-0.67916 0.0318,-0.0886 0.0628,-0.17724 0.0958,-0.26863 0.41214,-0.14277 0.41214,-0.14277 0.88775,-0.25354 0.54355,-0.46725 0.93784,-0.91936 1.01461,-1.64871 -0.29088,-0.29078 -1.04322,-0.22708 -1.45576,-0.26309 -0.72019,-0.0735 -1.33321,-0.20031 -1.82583,-0.77529 -0.32555,-0.81375 -0.16684,-1.38445 0.15065,-2.17186 0.59699,-1.3534 1.38861,-2.62139 2.16642,-3.87654 0.95591,-1.54701 1.75918,-3.15322 2.35171,-4.8743 0.40193,-1.14023 1.07762,-2.52732 2.20356,-3.09137 0.15419,-0.0551 0.30862,-0.10955 0.46768,-0.16647 0.38584,-0.19293 0.58367,-0.29786 0.80846,-0.66581 0.17478,-0.76914 -0.11416,-1.46639 -0.37454,-2.18439 -0.58853,-1.62338 -0.79506,-2.85161 -0.18016,-4.50561 -0.19499,-0.28001 -0.19499,-0.28001 -0.50729,-0.50731 -0.69775,0.0277 -1.12342,0.23232 -1.69624,0.61824 -0.82371,0.53454 -1.72386,1.06949 -2.74258,0.90366 -0.4892,-0.38736 -0.62689,-0.77138 -0.79263,-1.36337 -0.0427,-0.14862 -0.0851,-0.29693 -0.12871,-0.44983 -0.0309,-0.11324 -0.062,-0.22616 -0.0933,-0.3429 -0.25109,-0.0419 -0.50218,-0.0837 -0.76089,-0.12647 -0.0662,0.0871 -0.13185,0.17416 -0.19967,0.26401 -0.0885,0.11446 -0.17681,0.22862 -0.26801,0.34632 -0.0869,0.11323 -0.17355,0.22647 -0.26306,0.3433 -0.40896,0.45319 -0.72345,0.68412 -1.33808,0.71886 -0.11259,-0.006 -0.22496,-0.0154 -0.34087,-0.0246 0.0891,-0.0788 0.17798,-0.15692 0.26949,-0.23785 0.57446,-0.57611 0.95226,-1.31611 1.31181,-2.03906 0.5727,-1.13933 1.14004,-1.69763 2.47704,-1.52784 z"
       fill="#020205"
       id="path11-7"
       style="display:inline;fill:#ffffff;fill-opacity:1;stroke-width:0.126824" />
    <path
       d="m 411.1095,34.373133 c 0.96093,0.701677 1.35498,1.772061 1.55363,2.906976 0.009,0.195053 0.0123,0.390371 0.0123,0.585596 -2.8e-4,0.107881 -7.4e-4,0.215731 -0.001,0.326886 -9.8e-4,0.111297 -0.002,0.222624 -0.003,0.337271 -4.6e-4,0.113419 -9.5e-4,0.2269 -10e-4,0.343723 -0.001,0.278995 -0.003,0.558042 -0.006,0.837021 0.60932,-0.07456 0.60932,-0.07456 1.18072,-0.283087 0.58695,-0.231085 1.18125,-0.237516 1.80219,-0.158806 0.84517,0.407455 1.16697,1.090415 1.52778,1.914399 0.14308,0.3258 0.29816,0.641709 0.46085,0.958062 0.55186,0.04105 0.91541,0.0065 1.42245,-0.220931 0.56433,-0.244285 1.06099,-0.314906 1.67101,-0.221023 0.34522,0.16576 0.34522,0.16576 0.55233,0.331409 -0.0363,0.07286 -0.0729,0.14579 -0.11046,0.220962 -0.0914,-0.016 -0.18247,-0.03182 -0.27601,-0.04859 -0.72462,0.09062 -1.13466,0.640205 -1.56615,1.194136 -0.10432,0.135759 -0.20832,0.271671 -0.31195,0.407793 -0.65421,0.857893 -1.26947,1.347628 -2.26482,1.760763 1.01222,1.034493 1.01222,1.034493 2.09906,1.988629 0.0738,0.06031 0.14677,0.121358 0.22216,0.183822 1.11638,0.853335 2.49535,1.3454 3.78952,1.866926 1.50338,0.621697 2.79222,1.471281 4.08289,2.447477 1.5051,1.143684 1.5051,1.143684 3.17424,2.020018 0.20093,0.08785 0.40207,0.175791 0.60319,0.263825 0.14616,0.06363 0.29262,0.126989 0.43921,0.189883 0.44245,0.190777 0.87822,0.391627 1.31134,0.602853 0.15108,0.07373 0.15108,0.07373 0.30586,0.148744 0.1957,0.09582 0.39131,0.192561 0.58621,0.290195 1.33374,0.651759 2.68732,0.809466 4.14553,0.952099 2.13276,0.212162 2.13276,0.212162 2.77281,0.977291 0.0215,0.352179 0.0215,0.352179 0,0.662901 -0.3762,0.12942 -0.55938,0.08579 -0.92527,-0.05529 -0.93326,-0.275056 -1.89096,-0.132159 -2.84847,-0.07203 -0.48448,0.02677 -0.96819,0.0352 -1.45328,0.03769 -0.0819,0.0011 -0.16462,0.0031 -0.24924,0.0043 -0.59215,0.0011 -1.13226,-0.09763 -1.70465,-0.245917 0.17047,0.3232 0.31244,0.537355 0.60073,0.766502 0.38192,0.307365 0.68292,0.616585 0.75997,1.118145 0.0123,0.421695 -0.0185,0.632669 -0.25601,0.987854 -0.36798,-0.03265 -0.52267,-0.08126 -0.78978,-0.344387 -0.0812,-0.100589 -0.16247,-0.200992 -0.24586,-0.304688 -0.447,-0.517844 -0.90089,-0.89851 -1.46381,-1.284324 -0.64196,-0.443638 -1.08942,-0.886915 -1.50959,-1.556623 -0.38654,-0.544561 -0.91366,-0.82002 -1.50793,-1.094864 -0.13077,-0.0628 -0.26186,-0.125297 -0.39654,-0.189884 -1.27444,-0.537102 -2.61099,-0.751762 -3.9674,-0.964552 -4.88495,-0.773705 -4.88495,-0.773705 -6.6576,-2.241066 -0.24278,-0.225054 -0.24278,-0.225054 -0.57184,-0.2089 -0.84972,0.30595 -1.23786,0.922846 -1.65289,1.695179 -0.53725,1.283588 -0.30032,2.81353 0.20278,4.063547 0.36709,0.866112 0.84628,1.635377 1.39876,2.39317 0.31727,0.450171 0.45897,0.797411 0.47943,1.363139 -0.0579,0.285272 -0.0579,0.285272 -0.152,0.531662 -0.0311,0.0829 -0.0612,0.165483 -0.0923,0.250748 -0.0874,0.211823 -0.0874,0.211823 -0.19723,0.432834 0.15816,0.272379 0.32287,0.532081 0.49715,0.79406 1.30777,2.028904 2.12793,4.172444 1.77198,6.62789 -0.90179,3.914813 -3.5974,7.464772 -5.75107,10.761049 -2.21839,3.30104 -2.21839,3.30104 -3.03633,7.116757 0.14924,0.0536 0.29878,0.106619 0.44882,0.158898 0.0828,0.02923 0.16646,0.05948 0.25231,0.08926 0.86028,0.244563 1.71859,0.197238 2.60271,0.169914 0.83262,-0.01354 1.32507,0.120097 2.01971,0.596822 0.56968,0.569685 0.77781,1.062106 0.8079,1.871243 -0.0185,0.559633 -0.10677,0.890103 -0.49718,1.311931 -0.25601,0.233178 -0.52485,0.423874 -0.81391,0.613656 -0.59916,0.400002 -1.05585,0.730571 -1.39565,1.374948 0.0403,0.541128 0.23631,1.013231 0.43503,1.512169 0.47562,1.234137 0.81926,2.506313 1.17081,3.779912 0.0215,0.0821 0.0462,0.16465 0.0695,0.24924 0.0428,0.15443 0.0852,0.30911 0.12708,0.4639 0.25109,0.97641 0.25109,0.97641 0.89053,1.70761 1.07524,0.87152 1.28195,2.49944 1.43753,3.80377 0.0277,0.6562 0.0277,0.6562 -0.22216,0.97529 -0.30949,0.25151 -0.61449,0.38643 -0.9805,0.54464 -0.69227,0.31977 -1.15777,0.7263 -1.67523,1.27887 -1.07967,1.14135 -2.32372,1.58029 -3.8487,1.77312 -0.0957,0.0135 -0.19139,0.0268 -0.29016,0.0402 -1.82354,0.24106 -3.65598,0.24247 -5.49195,0.24229 -0.40119,2.2e-4 -0.80219,0.002 -1.20328,0.004 -6.10246,0.016 -6.10246,0.016 -7.32183,-0.79816 0.0369,-0.10921 0.0729,-0.21869 0.11077,-0.33141 2.10365,-1.00705 5.35413,-0.68225 7.62311,-0.67731 0.32687,4.9e-4 0.65375,0 0.98071,-7.5e-4 1.04102,-2.2e-4 2.07155,0.006 3.10701,0.12545 0.0123,-0.084 0.0246,-0.16819 0.0366,-0.25484 0.076,-0.30906 0.1397,-0.41885 0.35931,-0.63937 0.0585,-0.0603 0.11754,-0.12145 0.17816,-0.18367 0.0637,-0.0636 0.12616,-0.12699 0.1917,-0.19256 0.94997,-0.98918 1.82757,-2.01962 2.43744,-3.25914 0.0366,-0.0729 0.0729,-0.14579 0.11077,-0.22096 0.27509,-2.29266 -0.15139,-4.25938 -1.43626,-6.186825 -0.10893,0.03683 -0.21878,0.07286 -0.3314,0.110404 -0.71584,0.03852 -0.71584,0.03852 -1.10478,-0.220931 0.0154,-0.195638 0.0317,-0.391291 0.0486,-0.586938 0.009,-0.108804 0.0185,-0.217824 0.0277,-0.330151 0.0351,-0.298257 0.0351,-0.298257 0.14524,-0.629653 0.0794,-0.713405 -0.12739,-1.079009 -0.51784,-1.643374 -0.0545,-0.08126 -0.10862,-0.162221 -0.16462,-0.245732 -0.50805,-0.748833 -1.05638,-1.466099 -1.61233,-2.179664 -0.35509,-0.456028 -0.69935,-0.91955 -1.0405,-1.386164 -0.0511,-0.06865 -0.10093,-0.137851 -0.15293,-0.209238 -0.20555,-0.281487 -0.40611,-0.564156 -0.59941,-0.854225 -0.21293,-0.114312 -0.21293,-0.114312 -0.46712,-0.199392 -0.0966,-0.0352 -0.19355,-0.0712 -0.29324,-0.107481 -0.15786,-0.05609 -0.15786,-0.05609 -0.31869,-0.112988 -0.10893,-0.03936 -0.21755,-0.07957 -0.32974,-0.120097 -0.34939,-0.127235 -0.69941,-0.252871 -1.04948,-0.378392 -4.5029,-1.624342 -4.5029,-1.624342 -5.10277,-2.824097 -0.40737,-2.263353 0.79655,-4.576523 1.81062,-6.52944 0.11293,-0.218008 0.22401,-0.436683 0.33512,-0.655617 0.74018,-1.443757 1.58889,-2.823118 2.43227,-4.208138 0.0812,-0.13382 0.16308,-0.267517 0.24432,-0.401257 0.0412,-0.06702 0.0818,-0.134775 0.124,-0.2041 0.12462,-0.205208 0.24955,-0.410473 0.37454,-0.615669 0.15723,-0.259117 0.31567,-0.518089 0.47386,-0.776886 0.38814,-0.636688 0.77046,-1.276188 1.14303,-1.922045 0.0711,-0.12302 0.14216,-0.246163 0.21508,-0.372952 0.21386,-0.396904 0.38232,-0.796737 0.53091,-1.221682 0.0979,-0.23047 0.0979,-0.23047 0.27294,-0.448828 0.31407,-0.449417 0.19477,-1.040109 0.12492,-1.561808 -0.0908,-0.435348 -0.25231,-0.772871 -0.47989,-1.154423 -0.25693,-0.438779 -0.3346,-0.747572 -0.26247,-1.263597 0.0729,-0.109204 0.14585,-0.218777 0.22093,-0.331409 0.14001,-2.207114 -1.01594,-4.948823 -2.20956,-6.739254 -0.35161,0.0553 -0.65956,0.149667 -0.98742,0.283087 -0.38893,0.147575 -0.69178,0.224132 -1.1117,0.158899 -0.89514,-0.614072 -1.20669,-1.651433 -1.48415,-2.656681 -0.0246,-0.08542 -0.0471,-0.170868 -0.0711,-0.258871 -0.28894,-1.081646 -0.47221,-2.182507 -0.66083,-3.285083 -0.24308,-1.410208 -0.50408,-2.802135 -0.87695,-4.184398 -0.0695,0.016 -0.1397,0.03182 -0.21201,0.04859 -1.60554,0.364908 -3.13415,0.510221 -4.62635,-0.333003 -1.34611,-0.904233 -2.30541,-2.115369 -2.63988,-3.726988 -0.14893,-1.755002 0.24985,-3.104765 1.35595,-4.494261 0.73754,-0.809467 1.8473,-1.472263 2.94783,-1.569768 1.90906,-0.07788 3.28625,0.205023 4.74861,1.520587 1.06453,1.125869 1.4494,2.574004 1.42285,4.082536 -0.0655,1.759433 -0.0655,1.759433 -0.23693,2.255765 -0.13016,0.406116 -0.14616,0.754944 -0.15016,1.181181 -0.003,0.142713 -0.006,0.285426 -0.009,0.432413 0.0686,1.163128 0.6622,2.194984 1.22475,3.185771 0.12831,0.228501 0.25662,0.457204 0.38407,0.686185 0.056,0.09923 0.11231,0.198315 0.17016,0.300503 0.15785,0.313402 0.26771,0.625466 0.37085,0.960494 0.86437,-0.22287 1.20927,-0.815501 1.6572,-1.546712 1.47873,-2.452523 1.47873,-2.452523 2.09909,-5.192521 0.003,-0.113635 0.009,-0.2273 0.0123,-0.344391 0.009,-0.365413 0.002,-0.726722 -0.0123,-1.091839 -0.006,-0.145298 -0.006,-0.145298 -0.009,-0.293488 -0.0326,-0.276133 -0.0686,-0.460641 -0.21017,-0.700841 -0.26524,-0.170191 -0.53377,-0.286872 -0.82387,-0.409135 -0.60095,-0.306534 -0.90265,-0.880395 -1.14407,-1.489737 -0.1797,-0.576636 -0.25694,-1.073257 -0.2554,-1.67791 -2.7e-4,-0.119327 -5.2e-4,-0.238686 -9.8e-4,-0.361641 0.0154,-0.370272 0.0154,-0.370272 0.0686,-0.746571 0.0511,-0.355361 0.072,-0.701429 0.0828,-1.059907 0.0452,-1.299019 0.21693,-2.480816 1.16432,-3.445999 1.53605,-1.249913 4.05168,-0.967785 5.65208,-0.01354 z"
       fill="#020204"
       id="path5-8"
       style="display:inline;fill:#ffffff;fill-opacity:1;stroke-width:0.11048" />
    <path
       d="m 425.40891,416.80932 c 1.00816,0.69163 1.7373,1.42064 2.14821,2.59511 0.068,0.55236 0.0545,1.09118 0.0317,1.64643 -0.009,0.28278 -0.0154,0.56516 -0.0215,0.84769 -0.003,0.13231 -0.006,0.26493 -0.009,0.40171 8e-4,0.3185 0.0246,0.61214 0.072,0.92628 0.0545,0.44137 0.0277,0.70008 -0.11046,1.11721 -0.0326,0.10431 -0.0662,0.20893 -0.10032,0.31659 -0.11138,0.26371 -0.11138,0.26371 -0.36213,0.51448 -0.12401,0 -0.24832,0 -0.37632,0 -0.0828,0.41399 -0.16555,0.82788 -0.25078,1.25445 0.1797,0.0526 0.1797,0.0526 0.36306,0.10616 1.08545,0.33124 1.9597,0.75024 2.89844,1.39897 0.80123,0.51556 1.60698,0.99724 2.45458,1.43138 2.24458,1.15148 2.24458,1.15148 2.74004,2.4103 0.10277,0.41383 0.0711,0.79323 0.0502,1.21623 0.0375,0.54112 0.26862,0.98637 0.50125,1.47051 0.3597,0.89274 0.29847,1.86629 0.30493,2.81414 10e-4,0.15077 0.002,0.30185 0.003,0.45703 0.002,0.31859 0.003,0.63725 0.003,0.95588 0.001,0.32352 0.003,0.64716 0.009,0.97071 0.006,0.47036 0.006,0.94065 0.009,1.41104 0.002,0.14246 0.003,0.28493 0.006,0.43173 -0.003,1.3235 -0.37303,2.44099 -0.89114,3.64808 -0.31321,0.73175 -0.49186,1.42303 -0.59682,2.21041 -0.16462,1.17414 -0.53845,2.34043 -1.45729,3.15221 -1.44439,1.08081 -3.34113,2.027 -5.14317,2.25802 0.0545,0.19786 0.0545,0.19786 0.10985,0.39986 0.45344,1.82684 0.51039,3.192 -0.12554,4.9628 -0.10462,0.30186 -0.20924,0.60353 -0.31312,0.90557 -0.0511,0.14893 -0.10246,0.29786 -0.15539,0.45125 -0.20216,0.60845 -0.37454,1.22346 -0.54294,1.84194 -0.5187,1.86838 -1.21694,3.7786 -2.37901,5.35192 -0.28709,0.4794 -0.3438,0.88338 -0.41217,1.42983 -0.15601,1.0189 -0.43205,1.71548 -1.06915,2.53533 -0.48931,0.63479 -0.80086,1.12318 -0.98496,1.91007 -0.17446,0.66122 -0.35016,0.90772 -0.9408,1.25444 -0.12185,0.0662 -0.2437,0.13262 -0.36943,0.20124 -0.90305,0.54156 -1.34592,1.54089 -1.84302,2.43366 -0.67178,1.19069 -1.42774,2.21882 -2.76604,2.66489 -1.08237,0.16339 -2.1117,-0.40143 -2.97118,-1.03357 -0.6656,-0.53771 -1.01136,-1.06327 -1.12921,-1.89862 -0.14001,-0.77372 -0.72363,-1.21306 -1.29365,-1.70917 -0.28986,0.0828 -0.57956,0.16554 -0.87809,0.25077 0.009,0.0812 0.0185,0.16278 0.0246,0.24617 0.0902,0.9044 0.12585,1.80068 0.13047,2.70933 0.003,0.19908 0.003,0.19908 0.009,0.4025 0.006,1.24285 -0.21693,2.44311 -1.04274,3.4156 -0.51347,0.48073 -0.99158,0.66766 -1.69351,0.69775 -0.91016,-0.0486 -1.51575,-0.35404 -2.15602,-0.9957 -0.5607,-0.67645 -0.79043,-1.50851 -1.04278,-2.33636 -2.35147,2.32212 -4.74051,4.80341 -5.39404,8.15378 0.0779,-0.006 0.15539,-0.0154 0.2357,-0.0215 1.18703,-0.0603 2.48016,0.22031 3.45361,0.93541 0.3249,0.34103 0.3249,0.34103 0.41601,0.72379 -0.0369,1.17496 -0.19077,1.90403 -1.05548,2.722 -0.51642,0.41986 -1.04241,0.69304 -1.66997,0.90948 -0.0812,0.0277 -0.16339,0.056 -0.2474,0.0858 -1.34694,0.37629 -2.79111,0.30493 -4.07054,-0.22001 -0.72588,-0.26185 -1.38981,-0.30949 -2.10949,0.006 -0.60135,0.30462 -1.17962,0.6446 -1.75105,1.00172 -0.69591,0.39823 -1.55074,0.35553 -2.31212,0.17786 -1.16241,-0.413 -2.04284,-1.25174 -2.68379,-2.29378 -0.12246,-0.2637 -0.12246,-0.2637 -0.15354,-0.67125 0.30918,-0.68 0.8296,-0.94198 1.48184,-1.23094 0.8476,-0.40269 1.46494,-1.05435 2.131,-1.70009 0.22862,-0.21816 0.46623,-0.42405 0.70713,-0.62839 1.76283,-1.53788 3.12322,-3.34699 4.36693,-5.31564 0.0597,-0.0911 0.11816,-0.18124 0.17877,-0.27478 0.54322,-0.86197 0.9177,-1.76493 1.28716,-2.71216 0.11785,-0.29878 0.2357,-0.59762 0.35429,-0.89622 0.0511,-0.13047 0.10185,-0.26124 0.15447,-0.39577 0.15262,-0.35121 0.33407,-0.66335 0.53374,-0.98942 0.0585,-0.19416 0.11108,-0.39035 0.15693,-0.58802 0.57894,-2.0145 2.57855,-3.735 4.34391,-4.73353 0.57236,-0.28924 1.16069,-0.50617 1.77139,-0.69971 -0.0412,-0.0828 -0.0828,-0.16555 -0.12524,-0.25078 -0.0738,-0.72732 -0.0123,-1.1169 0.43903,-1.69449 0.18832,-0.1874 0.18832,-0.1874 0.58018,-0.39103 0.5942,-0.49088 0.61574,-1.19426 0.73692,-1.92869 0.0277,-0.12185 0.0569,-0.24339 0.0868,-0.36903 0.0486,-0.48122 -0.0585,-0.87692 -0.19662,-1.33232 -0.70443,-2.4364 -0.49691,-4.7695 0.57328,-7.07235 0.25539,-0.59864 0.30493,-1.13915 0.31558,-1.78656 0.003,-0.14739 0.006,-0.29478 0.009,-0.44666 0.006,-0.30826 0.009,-0.61673 0.0154,-0.92514 0.003,-0.14739 0.009,-0.29509 0.009,-0.44716 0.002,-0.13416 0.003,-0.26801 0.006,-0.40592 0.0837,-0.61962 0.30795,-1.02416 0.7579,-1.45267 0.43467,-0.497 0.37722,-1.09373 0.40328,-1.72483 0.0785,-1.83573 0.0785,-1.83573 0.56104,-2.50105 0.31902,-0.21508 0.60937,-0.33625 0.96434,-0.47823 0.56014,-0.4534 0.82563,-0.94172 1.00357,-1.63076 0.0452,-0.43802 0.0419,-0.86948 0.0311,-1.30931 -10e-4,-0.16739 -10e-4,-0.16739 -0.002,-0.33835 -0.006,-0.62286 -0.0511,-1.2306 -0.12616,-1.84859 -0.0452,-0.42362 -0.0526,-0.8448 -0.052,-1.27057 0,-0.0908 0,-0.18124 0,-0.27478 0.0123,-1.27054 0.18554,-2.5224 0.41524,-3.77072 0.1397,-0.78471 0.13324,-1.55751 0.10985,-2.35209 -0.70107,-0.15416 -1.02225,-0.12647 -1.63073,0.25078 -0.36045,0.32259 -0.69289,0.66975 -1.02706,1.01924 -0.68962,0.70544 -1.37448,1.3702 -2.15112,1.97914 -0.38731,0.30494 -0.76,0.62427 -1.13392,0.94521 -0.6811,0.58208 -1.38368,1.12872 -2.10118,1.66504 -0.53701,0.42756 -0.98145,0.86148 -1.34067,1.4475 -1.27109,1.94712 -3.05789,3.08482 -5.29991,3.64081 -2.1642,0.44119 -4.11843,-0.2197 -5.96637,-1.31226 -1.7733,-1.17546 -2.89648,-3.25849 -3.55946,-5.24509 -0.0803,-0.4325 -0.0711,-0.6854 0,-1.12899 0.2354,-0.32143 0.2354,-0.32143 0.50175,-0.50177 0.0828,0 0.16554,0 0.25077,0 -0.0443,-0.0695 -0.088,-0.1397 -0.13323,-0.2117 -0.15201,-0.37525 -0.13385,-0.53913 0.009,-0.91733 0.51531,-0.50177 0.51531,-0.50177 1.00354,-0.50177 -0.0123,-0.11139 -0.0246,-0.22247 -0.0394,-0.33709 0.0511,-0.54405 0.26032,-0.69587 0.66642,-1.04274 0.0412,-0.0412 0.0828,-0.0828 0.12524,-0.12524 0.40395,0.0468 0.7907,0.0994 1.18096,0.2157 0.4346,0.0471 0.60729,-0.0865 0.96724,-0.3254 0.3382,-0.22093 0.60319,-0.38918 0.98788,-0.5174 0.0729,-0.10862 0.14493,-0.21755 0.2197,-0.32933 0.1397,-0.14739 0.1397,-0.14739 0.28247,-0.29786 0.39826,0.0123 0.72597,0.0788 1.10546,0.19539 0.3682,0.0745 0.71449,0.0569 1.08976,0.0477 1.90773,-0.006 3.63869,0.43768 5.10936,1.71157 0.22862,0.20401 0.22862,0.20401 0.59833,0.3034 0.30678,-0.18862 0.58937,-0.3826 0.87812,-0.5959 0.66984,-0.48275 1.34436,-0.91262 2.07109,-1.30478 1.11472,-0.60372 1.76822,-1.14878 2.44486,-2.23898 0.35536,-0.43903 0.73618,-0.84874 1.12896,-1.25441 0.1437,-0.14862 0.1437,-0.14862 0.29017,-0.29971 1.22432,-1.18601 2.99931,-2.70976 4.75457,-2.7372 0.156,-0.003 0.31226,-0.006 0.47312,-0.009 0.32598,-0.006 0.65203,-0.009 0.97807,-0.0154 1.14878,-0.0277 2.26294,-0.12308 3.3044,-0.6439 0.51531,-0.25786 1.0501,-0.33626 1.61504,-0.43115 0,-0.16555 0,-0.33115 0,-0.50175 -0.11139,0.0311 -0.22247,0.0622 -0.33709,0.0942 -0.41549,0.0317 -0.41549,0.0317 -0.76046,-0.18062 -0.6831,-0.70212 -0.70562,-1.60784 -0.6943,-2.55295 0.036,-0.24586 0.036,-0.24586 0.25509,-0.51258 0.33007,-0.12831 0.45371,-0.0828 0.78403,0.0154 -0.002,-0.0705 -0.006,-0.14154 -0.009,-0.21416 -0.009,-0.32574 -0.0185,-0.65144 -0.0246,-0.97733 -0.006,-0.16678 -0.006,-0.16678 -0.0123,-0.33709 -0.0123,-0.91003 0.19785,-1.51544 0.73843,-2.24279 2.11453,-2.07124 4.71835,-2.66062 7.31832,-1.08142 z"
       fill="#08090a"
       id="path11-6"
       style="display:inline;fill:#ffffff;stroke-width:0.125443" />
    <path
       d="m 187.94187,34.282723 c 0.9469,0.64791 1.58644,1.414002 1.82371,2.556025 0.11105,1.105886 0.0586,2.083454 -0.48317,3.065804 -0.43493,0.795733 -0.70855,1.490558 -0.53242,2.418364 0.21047,0.407621 0.40805,0.685428 0.81249,0.914024 0.19499,-0.01261 0.19499,-0.01261 0.4062,-0.05695 0.67211,-0.111974 1.22469,0.195053 1.82805,0.463318 0.0855,0.03603 0.17102,0.07286 0.25906,0.110312 0.22025,0.09505 0.43777,0.19413 0.65494,0.29601 0.072,0.03351 0.14422,0.06702 0.2185,0.101173 0.31491,0.150652 0.57705,0.291211 0.84777,0.514493 0.25654,0.220254 0.25654,0.220254 0.63476,0.330067 0.53393,0.188345 0.92674,0.50796 1.34567,0.882291 0.0729,0.06533 0.14649,0.130158 0.22179,0.197176 0.88687,0.883706 1.37469,2.060321 1.91715,3.171918 0.22472,0.457038 0.47253,0.892626 0.73644,1.327999 1.55708,2.616563 2.90886,5.328917 3.92904,8.200849 0.0503,0.140282 0.0503,0.140282 0.10151,0.283333 0.54833,1.758095 0.4438,3.628932 0.42731,5.448247 -0.004,0.385429 -0.004,0.770942 -0.006,1.156353 -0.004,0.750842 -0.009,1.501577 -0.016,2.252343 0.10058,0 0.20099,0 0.30468,0 0.006,0.154036 0.006,0.154036 0.0135,0.311048 0.0461,0.33384 0.14296,0.486519 0.37689,0.725636 0.34582,0.387269 0.50813,0.775126 0.6768,1.261135 0.0595,0.162221 0.11859,0.324122 0.17856,0.486018 0.0292,0.07874 0.0586,0.15819 0.0886,0.239608 0.12653,0.324209 0.2774,0.631577 0.43116,0.943733 0.26641,0.567842 0.49021,1.105892 0.30469,1.730881 -0.0829,0.198746 -0.0829,0.198746 -0.24121,0.497071 -0.067,0 -0.13407,0 -0.20318,0 0.004,0.06114 0.006,0.122527 0.0108,0.185699 0.0228,0.660559 0.0228,0.660559 -0.1376,0.988611 -0.17773,0.146036 -0.17773,0.146036 -0.58393,0.146036 -0.10058,-0.335175 -0.20123,-0.670267 -0.30468,-1.0156 0,0.469183 0,0.938416 0,1.421827 -0.201,0.03351 -0.40218,0.06702 -0.60939,0.101511 -0.20099,-0.40218 -0.40218,-0.804361 -0.60938,-1.218708 0.067,0.200991 0.13407,0.40218 0.20318,0.609385 0.0135,0.3428 0.0135,0.3428 0,0.609382 -0.16749,0.03351 -0.3351,0.06702 -0.5078,0.101511 -0.91403,-1.026431 -0.91403,-1.026431 -0.91403,-1.523384 -0.10059,0.06702 -0.20099,0.134066 -0.30469,0.203176 -0.22219,-0.03852 -0.22219,-0.03852 -0.4062,-0.101511 0.002,-0.08603 0.004,-0.171699 0.006,-0.260225 0.0135,-0.829821 -0.0277,-1.471749 -0.37529,-2.234272 -0.25611,-0.649503 -0.23241,-1.543083 -0.0873,-2.21724 0.13868,-0.746153 0.0268,-1.521692 -0.0461,-2.2704 -0.067,-0.703354 -0.11631,-1.401146 -0.13274,-2.107531 -0.02,-0.807374 -0.0712,-1.473223 -0.44733,-2.20713 -0.45067,-0.922193 -0.58317,-1.913608 -0.74841,-2.917613 -0.17438,-1.002831 -0.39054,-1.90038 -1.11536,-2.644287 -0.067,-0.03351 -0.1341,-0.06702 -0.20318,-0.101512 0.0175,0.111051 0.0335,0.222039 0.0511,0.336434 0.0973,0.806873 0.0603,1.576467 -0.0511,2.38028 -0.18619,1.425058 -0.20893,2.35335 0.6093,3.579946 0.43166,0.752852 0.76039,1.496851 0.99656,2.32949 0.0292,0.103266 0.0292,0.103266 0.0595,0.208685 0.41575,1.573192 0.40603,3.17218 0.40344,4.786703 0,0.123851 0,0.247763 0,0.375297 -0.009,5.197121 -0.44532,10.387675 -0.95204,15.5567 -1.36304,0.212069 -3.11987,-0.08726 -4.36703,-0.710894 0.0519,0.743473 0.31139,1.204573 0.75126,1.796635 0.50109,0.694982 0.78861,1.464231 1.07682,2.265725 0.0444,0.116989 0.0886,0.234101 0.1341,0.354693 0.51089,1.518307 0.31223,3.117873 0.0234,4.662563 -0.0561,0.520437 0.10459,0.833089 0.40109,1.260366 0.52748,0.599083 1.03452,0.701093 1.78362,0.841421 0.3789,0.07456 0.66601,0.2185 0.99654,0.421695 0.46098,0.279826 0.77195,0.328477 1.30362,0.251086 0.2325,0.02831 0.2325,0.02831 0.51215,0.236009 0.4108,0.540121 0.29893,1.179621 0.22813,1.823279 -0.18659,0.78937 -0.60335,1.45169 -1.28219,1.90424 -0.38769,0.36734 -0.48543,0.84587 -0.64741,1.34566 -0.44289,1.33892 -1.11104,2.5091 -2.06292,3.54818 -0.29798,0.33057 -0.29798,0.33057 -0.37412,0.74623 0.0813,0.24146 0.18859,0.45511 0.30426,0.68192 0.0636,0.19321 0.1232,0.38794 0.17773,0.584 0.0268,0.0895 0.0536,0.17905 0.0813,0.27133 0.0519,0.29546 0.0394,0.48535 -0.0553,0.76961 -0.32521,0.21674 -0.5026,0.2521 -0.88348,0.30821 -0.11456,0.0175 -0.229,0.0343 -0.3469,0.0519 -0.11967,0.0175 -0.23946,0.0343 -0.36282,0.0519 -0.11785,0.0175 -0.23549,0.0352 -0.35687,0.0536 -0.33149,0.0494 -0.66324,0.0966 -0.99516,0.14339 -0.0737,0.0108 -0.1469,0.0219 -0.22263,0.0327 -1.06573,0.14822 -2.15638,0.14093 -3.23041,0.17019 -0.1664,0.004 -0.1664,0.004 -0.33601,0.009 -0.31332,0.006 -0.62647,0.0135 -0.93983,0.016 -0.0933,0.002 -0.18675,0.004 -0.28309,0.006 -0.6557,0.002 -1.33888,-0.0544 -1.86848,-0.47899 -0.12724,-0.16236 -0.12724,-0.16236 -0.13342,-0.49237 0.17729,-0.62539 0.47026,-0.94571 1.02986,-1.27663 0.22511,-0.11877 0.45201,-0.23425 0.68074,-0.3459 0.6428,-0.35419 1.05938,-0.80653 1.46944,-1.39882 0.0444,-0.0611 0.0879,-0.12252 0.13342,-0.1857 0.4557,-0.6469 0.58107,-1.14998 0.60302,-1.93437 0.016,-0.57831 0.0511,-1.09149 0.25394,-1.63763 0.12872,-0.0942 0.12872,-0.0942 0.26023,-0.19037 0.32764,-0.28568 0.29859,-0.45923 0.33434,-0.87539 0.0234,-0.39833 0.0302,-0.7949 0.0277,-1.19387 0,-0.084 -0.001,-0.16774 -0.001,-0.25427 -0.006,-0.68903 -0.0252,-1.371974 -0.11299,-2.056174 -0.0108,-0.09545 -0.0203,-0.191207 -0.0318,-0.289611 -0.16601,-0.920482 -0.79599,-1.394146 -1.49166,-1.944673 -0.0889,-0.07034 -0.0889,-0.07034 -0.17948,-0.142959 -0.24136,-0.191207 -0.48367,-0.381494 -0.72705,-0.570273 -0.80554,-0.625128 -1.53799,-1.317368 -2.26074,-2.035268 -0.0578,-0.05779 -0.11591,-0.11502 -0.17554,-0.174191 -0.36441,-0.365829 -0.70822,-0.744812 -1.04611,-1.135137 -0.30552,-0.350505 -0.62028,-0.692132 -0.93647,-1.032972 -0.094,-0.10302 -0.094,-0.10302 -0.18988,-0.208285 -0.59549,-0.640706 -1.22489,-1.129672 -2.00006,-1.537271 -0.99627,-0.57111 -1.6338,-1.396715 -1.955,-2.494518 -0.13492,-0.604779 -0.14579,-1.243682 0.0252,-1.84075 -0.10058,0 -0.20117,0 -0.30468,0 0.006,-0.110404 0.0135,-0.220685 0.0175,-0.334422 0.009,-0.16576 0.0175,-0.331409 0.0258,-0.497073 0.006,-0.136251 0.006,-0.136251 0.0135,-0.275302 0.0318,-0.661981 0.0511,-1.323768 0.0653,-1.986337 0.002,-0.08376 0.004,-0.167329 0.006,-0.253609 0.0108,-0.510305 0.0108,-0.510305 0.02,-1.020708 0.004,-0.242132 0.009,-0.484261 0.016,-0.726387 0.001,-0.07286 0.002,-0.145543 0.002,-0.220684 0.0108,-0.405864 0.067,-0.716334 0.23902,-1.083732 0.0486,-0.223424 0.0882,-0.446906 0.12604,-0.672449 0.077,-0.24164 0.077,-0.24164 0.28727,-0.518093 0.25829,-0.438696 0.22875,-0.751095 0.19588,-1.246867 -0.0427,-0.644558 -0.0277,-1.000657 0.4062,-1.523384 0.067,-0.06702 0.1341,-0.134067 0.20318,-0.203177 0.0578,-0.205853 0.0962,-0.411978 0.13601,-0.622032 0.067,-0.190376 0.067,-0.190376 0.37169,-0.393552 0.016,-0.226962 0.016,-0.226962 -0.016,-0.488778 -0.0203,-0.741295 0.2577,-1.291548 0.57445,-1.948646 0.11173,-0.242778 0.22327,-0.485513 0.33485,-0.728396 0.15336,-0.328144 0.30751,-0.655953 0.46273,-0.983239 0.46918,-0.996079 0.74715,-1.724038 0.67739,-2.839075 -0.004,-0.596825 0.28373,-0.956389 0.60695,-1.441258 -0.041,-0.463571 -0.23336,-0.897175 -0.39397,-1.330996 -0.0603,-0.16533 -0.12077,-0.330652 -0.18108,-0.496065 -0.0318,-0.08619 -0.0628,-0.172437 -0.0957,-0.261301 -0.70143,-1.918839 -1.38941,-3.844528 -1.86838,-5.833221 -0.28552,0.339615 -0.5042,0.674544 -0.7109,1.066371 -0.43333,0.757206 -1.00117,1.375911 -1.62494,1.980379 -0.0503,0.05025 -0.10016,0.09973 -0.15176,0.151175 -0.25475,0.236101 -0.42228,0.351422 -0.76893,0.402178 -0.30887,-0.04689 -0.5222,-0.12539 -0.79942,-0.267764 -0.4397,-0.212992 -0.87202,-0.371607 -1.3393,-0.514154 -1.82568,-0.577141 -3.32362,-1.673045 -4.70279,-2.973449 -0.27924,-0.261887 -0.56231,-0.519604 -0.84485,-0.777896 -0.10302,-0.09462 -0.20628,-0.189023 -0.30946,-0.283641 -0.0737,-0.06785 -0.14757,-0.135421 -0.2237,-0.205208 0.002,0.06702 0.006,0.13382 0.009,0.202777 0.0858,2.48725 0.0858,2.48725 -0.51583,3.554867 -0.0444,0.08207 -0.0882,0.164652 -0.13367,0.249578 -0.70268,1.175117 -1.80197,1.901066 -3.09714,2.270372 -1.47521,0.328227 -2.78495,0.06702 -4.05915,-0.736267 -1.08751,-0.765834 -1.84355,-1.886551 -2.11529,-3.1999 -0.1862,-1.456382 0.0586,-2.692024 0.87953,-3.915149 0.25604,-0.328898 0.5423,-0.607037 0.85769,-0.878712 0.19899,-0.24487 0.15511,-0.38786 0.15268,-0.695819 0.52923,-0.72069 1.5778,-1.239319 2.43741,-1.421814 0.14379,-0.01354 0.28811,-0.02277 0.43242,-0.02831 0.12037,-0.0055 0.12037,-0.0055 0.24324,-0.01169 0.16819,-0.0071 0.33643,-0.01446 0.50461,-0.02185 0.11985,-0.0055 0.11985,-0.0055 0.24238,-0.01169 0.0729,-0.0031 0.14579,-0.0062 0.22093,-0.0092 0.19428,-0.0092 0.19428,-0.0092 0.38752,-0.120773 0.64079,-0.05025 1.02339,0.04859 1.57418,0.368176 0.0661,0.03683 0.13249,0.07286 0.20099,0.11065 0.36549,0.205516 0.69439,0.426973 1.01777,0.695481 0.17394,0.150744 0.17394,0.150744 0.35544,0.247547 0.23777,-0.02769 0.47505,-0.06114 0.71089,-0.101603 0.13869,0.166498 0.27346,0.336434 0.40629,0.507791 0.21757,0.176867 0.43124,0.341209 0.66013,0.501427 0.094,0.06616 0.094,0.06616 0.18989,0.133728 0.85081,0.586603 1.73316,0.993504 2.71872,1.301161 0.27004,0.08822 0.52496,0.191453 0.78552,0.304288 0.62454,0.258225 1.28071,0.375632 1.9423,0.501427 -0.006,-0.09923 -0.0135,-0.198745 -0.02,-0.301087 0,-0.472784 0.16422,-0.851234 0.35067,-1.279404 0.0309,-0.07373 0.0611,-0.148067 0.0924,-0.224377 0.14579,-0.344643 0.27472,-0.615669 0.51257,-0.908676 0.28767,-0.526469 0.22881,-1.057417 0.22656,-1.647152 0.0302,-1.725177 0.417,-3.263627 1.6186,-4.576493 0.32136,-0.298226 0.66073,-0.459884 1.06636,-0.618847 0.24254,-0.09431 0.24254,-0.09431 0.52681,-0.314239 0.38459,-0.237332 0.66323,-0.254748 1.11079,-0.285672 -0.10059,-0.502683 -0.20099,-1.005433 -0.30469,-1.523375 -0.51423,-0.146898 -0.8273,-0.224039 -1.33295,-0.241209 -0.3665,-0.02831 -0.58953,-0.06031 -0.92671,-0.215823 -0.26164,-0.373786 -0.23758,-0.724796 -0.17773,-1.167922 0.0335,-0.06702 0.067,-0.134067 0.10151,-0.203115 -0.067,0 -0.13407,0 -0.20318,0 -0.0135,-0.09222 -0.0252,-0.184346 -0.0385,-0.279334 -0.057,-0.294718 -0.13167,-0.475045 -0.26657,-0.736266 -0.0915,-0.341213 -0.11391,-0.470858 0,-0.812485 0.0234,-0.276533 0.0135,-0.533254 0,-0.812485 -0.067,-0.06702 -0.13409,-0.134097 -0.20317,-0.203084 0.0352,-0.322871 0.16114,-0.500425 0.36817,-0.742637 0.21807,-0.292872 0.24278,-0.344138 0.2222,-0.729986 -0.041,-0.175976 -0.041,-0.175976 -0.0821,-0.355447 -0.0385,-0.551008 0.0411,-0.839969 0.30469,-1.320257 0.0553,-0.160744 0.1104,-0.321526 0.16508,-0.482415 0.35118,-0.888641 1.08914,-1.667531 1.96768,-2.05656 1.37145,-0.45662 2.64135,-0.245148 3.8636,0.490704 z"
       fill="#090a0b"
       id="path6-1"
       style="display:inline;fill:#ffffff;stroke-width:0.101558" />
    <path
       d="m 77.661211,225.64593 c 0.238008,0.1873 0.462235,0.3841 0.679738,0.59482 0.02831,-0.10259 0.02831,-0.10259 0.05862,-0.20721 0.03683,-0.072 0.0737,-0.14382 0.111481,-0.21782 0.223023,-0.0695 0.223023,-0.0695 0.424877,-0.0851 0.138251,0.38961 0.02339,0.65335 -0.11942,1.02064 -0.07286,0.17305 -0.07286,0.17305 0.03434,0.33886 0.03182,-0.12361 0.03182,-0.12361 0.06363,-0.24958 0.106127,-0.26023 0.106127,-0.26023 0.276133,-0.34514 0.05612,0 0.112127,0 0.169914,0 0.08419,0.0842 0.08419,0.0842 0.169914,0.16991 -0.02277,0.31021 -0.06951,0.60402 -0.132097,0.90845 -0.100835,0.49649 -0.132098,0.88665 -0.03769,1.38572 0.148651,-0.10797 0.297395,-0.21582 0.446068,-0.32395 0.0829,-0.0603 0.165606,-0.12034 0.250933,-0.18216 0.14422,-0.10545 0.286872,-0.21315 0.426215,-0.32496 0.151359,-0.10351 0.151359,-0.10351 0.342551,-0.0771 0.04856,0.02 0.09816,0.0385 0.148682,0.0586 0.02831,0.11213 0.05609,0.22428 0.08508,0.33987 -0.08206,0.0687 -0.163729,0.13736 -0.248255,0.20804 -0.108373,0.0917 -0.216931,0.18351 -0.325295,0.27512 -0.08126,0.0678 -0.08126,0.0678 -0.163329,0.13652 -0.542632,0.43451 -0.542632,0.43451 -0.839092,1.0384 -0.0065,0.0771 -0.01077,0.15336 -0.01754,0.23232 -0.06533,0.48836 -0.228131,0.86612 -0.446065,1.30112 -0.402766,0.78719 -0.402766,0.78719 -0.5098,1.65159 0.09173,0.16401 0.09173,0.16401 0.226039,0.31071 0.311814,0.39087 0.522954,0.80486 0.735183,1.25595 0.04022,0.0844 0.07957,0.16884 0.120774,0.25586 1.001467,2.16632 1.450505,4.27353 1.743297,6.62102 0.0092,0.067 0.01754,0.13478 0.02585,0.20429 0.016,0.12739 0.03182,0.25502 0.04689,0.38258 0.04274,0.32973 0.116989,0.60586 0.245301,0.91108 0.02,0.29189 0.02523,0.42052 -0.08483,0.67974 -0.248655,0.27321 -0.546401,0.47102 -0.84971,0.67973 -0.241055,0.16601 -0.48183,0.33233 -0.722282,0.49917 -0.0948,0.0653 -0.0948,0.0653 -0.191453,0.13234 -0.355613,0.2501 -0.667172,0.50553 -0.966244,0.82363 -0.894587,0.94452 -2.223666,1.69396 -3.446587,2.11893 -0.330151,0.12789 -0.537438,0.25774 -0.687437,0.58686 -0.03351,0.30761 0.128312,0.52597 0.277794,0.78635 0.779232,1.43523 0.814408,3.35232 0.851862,4.94386 0.016,0.49171 0.04942,0.94882 0.176376,1.42501 0.05446,0.24598 0.02338,0.42614 -0.05025,0.66475 -0.05948,0.0875 -0.119266,0.17529 -0.180591,0.26557 -0.18013,0.22109 -0.18013,0.22109 -0.14336,0.42488 0.02277,0.0528 0.04523,0.10502 0.06868,0.1593 0.07373,0.2221 0.08711,0.32965 0.03683,0.5629 -0.0352,0.27272 -0.02,0.40143 0.04354,0.66081 0.110558,0.5258 0.118343,1.03984 0.120774,1.57565 7.78e-4,0.10284 0.0015,0.20561 0.0022,0.31155 0.0012,0.2161 0.002,0.43216 0.0022,0.64824 0.001,0.32965 0.0043,0.65922 0.0092,0.98891 8.03e-4,0.21072 0.0014,0.42153 0.0018,0.63233 0.0017,0.0979 0.0022,0.19589 0.0043,0.29675 -0.0043,0.60888 -0.09576,0.98357 -0.477306,1.46044 -0.04776,0.0703 -0.09465,0.14028 -0.14339,0.21247 -0.03683,0.0419 -0.0737,0.0842 -0.111481,0.12739 -0.05613,0 -0.112127,0 -0.169914,0 -0.0092,0.28644 -0.0092,0.28644 0.08508,0.59481 0.220008,0.14665 0.397322,0.24112 0.637272,0.33987 0.124805,0.0569 0.24924,0.11431 0.373454,0.17259 0.06031,0.0283 0.120343,0.0561 0.182345,0.0851 0.739199,0.36566 1.195348,0.91335 1.491408,1.67185 0.196069,0.60427 0.165298,1.24921 0.172591,1.87828 0.0022,0.19145 0.0065,0.38275 0.01077,0.57412 0.0043,0.17235 0.0065,0.34498 0.0092,0.51751 0.0022,0.26632 0.0022,0.26632 0.05446,0.44933 0.07117,0.2837 0.06702,0.57446 0.07874,0.86544 0.0352,0.72815 0.121697,1.44077 0.228409,2.1614 0.233916,1.59046 0.379481,3.17469 0.439031,4.78192 0.0043,0.0933 0.0065,0.18674 0.01077,0.28299 0.0065,0.1753 0.01077,0.35051 0.016,0.5258 0.01354,0.42128 0.05526,0.76015 0.206254,1.15845 -0.02185,0.23877 -0.02185,0.23877 -0.08483,0.42487 -0.05609,0.0277 -0.112127,0.056 -0.169914,0.0849 -0.106373,1.71538 -0.180407,3.28956 0.350422,4.94716 0.129143,0.40956 0.238378,0.82388 0.345228,1.23971 0.02185,0.0818 0.04271,0.16493 0.06533,0.24985 0.188776,0.76668 0.278564,1.53763 0.349499,2.3231 0.04105,0.45094 0.0968,0.8384 0.249578,1.26667 0.01754,0.15877 0.03351,0.31748 0.04523,0.47663 0.06951,0.92591 0.369096,1.72868 0.719515,2.58228 0.05609,0 0.112158,0 0.169914,0 0.02769,-0.084 0.05609,-0.16832 0.08483,-0.25509 0.196561,-0.0277 0.196561,-0.0277 0.42488,0 0.374204,0.42755 0.266564,0.94422 0.237516,1.47368 -0.02,0.64692 0.131851,1.12223 0.527893,1.63702 0.05948,0.0603 0.118743,0.12 0.179884,0.18216 0.35469,0.37346 0.666418,0.76424 0.970724,1.17872 0.432416,0.57934 0.769687,0.67347 1.466515,0.80184 0.301519,0.0889 0.468595,0.20586 0.696068,0.41986 0.130067,0.26063 0.104343,0.47725 0.08483,0.76477 -0.186345,0.42192 -0.475716,0.67956 -0.900165,0.85668 -1.165744,0.31413 -2.308354,0.0388 -3.410127,-0.36282 -0.305641,-0.10892 -0.614997,-0.20462 -0.926002,-0.29724 -0.08846,-0.0277 -0.08846,-0.0277 -0.178653,-0.0535 -0.415329,-0.12031 -0.828058,-0.19539 -1.255221,-0.2597 -0.998953,-0.15539 -2.050844,-0.49556 -2.761543,-1.24269 0.239362,0.32121 0.49054,0.5579 0.80721,0.80194 0.754191,0.6102 0.754191,0.6102 0.838077,1.06477 0.02,0.30463 -0.02,0.49436 -0.174191,0.75677 -0.534339,0.49103 -1.250793,0.39657 -1.932396,0.38167 -1.394122,-0.0671 -2.512467,-0.70956 -3.606596,-1.52879 -0.369681,-0.27016 -0.754944,-0.42195 -1.17895,-0.58417 -0.883035,-0.34454 -0.883035,-0.34454 -1.146756,-0.73185 -0.12545,-0.31392 -0.135174,-0.59623 -0.06363,-0.92505 0.148683,-0.27077 0.148683,-0.27077 0.339868,-0.5098 0.277395,-0.3918 0.494815,-0.79498 0.70101,-1.22675 0.03086,-0.0622 0.06197,-0.12308 0.09357,-0.18678 0.274379,-0.57393 0.270286,-1.00185 0.09665,-1.61624 -0.05025,-0.24155 -0.05443,-0.47322 -0.0628,-0.7196 -0.03351,-0.56358 -0.220685,-0.99102 -0.458041,-1.49796 -0.149329,-0.35659 -0.175299,-0.65734 -0.2005,-1.04053 -0.08419,-0.12585 -0.08419,-0.12585 -0.169914,-0.25508 -0.04855,-0.16739 -0.09219,-0.337 -0.131851,-0.50719 -0.02431,-0.10216 -0.04859,-0.20401 -0.07286,-0.3098 -0.02523,-0.10923 -0.05025,-0.21816 -0.07622,-0.33032 -0.05277,-0.224 -0.105942,-0.44832 -0.159144,-0.67245 -0.01354,-0.0551 -0.02585,-0.11108 -0.03936,-0.16801 -0.126528,-0.53266 -0.265333,-1.06182 -0.411062,-1.58959 -0.376967,-1.38729 -0.304534,-2.83371 0.106774,-4.20228 0.195637,-0.69381 0.220254,-1.3378 0.205607,-2.0558 -0.0012,-0.10892 -0.0022,-0.21785 -0.0043,-0.32989 -0.0022,-0.26524 -0.0065,-0.53057 -0.01354,-0.7959 -0.09357,-0.0215 -0.186837,-0.0409 -0.283087,-0.0628 -2.54708,-0.57162 -2.54708,-0.57162 -3.200661,-1.55203 -0.0065,-0.24647 0.05025,-0.38249 0.205854,-0.57253 0.510055,-0.52697 0.925141,-0.82102 1.663534,-0.87194 -0.02769,-0.0469 -0.05526,-0.0937 -0.084,-0.14203 -0.100588,-0.23133 -0.100188,-0.39205 -0.101911,-0.64389 -0.0553,-0.9288 -0.385433,-1.81591 -0.663824,-2.69779 -0.02831,-0.092 -0.05609,-0.18391 -0.08551,-0.27881 -0.105019,-0.28785 -0.237332,-0.55862 -0.376386,-0.83116 -0.03852,-0.0762 -0.03852,-0.0762 -0.07705,-0.15419 -0.211116,-0.41843 -0.413151,-0.80411 -0.740707,-1.14164 -0.198746,-0.22268 -0.286318,-0.38719 -0.345228,-0.67973 -0.02431,-0.10352 -0.04859,-0.20681 -0.07456,-0.31332 -0.05443,-0.0243 -0.107973,-0.0486 -0.163575,-0.0737 -0.176129,-0.0962 -0.176129,-0.0962 -0.27481,-0.32094 -0.03769,-0.13317 -0.03769,-0.13317 -0.07705,-0.26918 -0.10905,-0.3804 -0.10905,-0.3804 -0.300749,-0.72262 -0.173299,-0.33266 -0.153329,-0.63392 -0.14539,-1.00336 8.37e-4,-0.0729 0.0017,-0.14539 0.0022,-0.22025 0.0092,-0.44539 0.04855,-0.86506 0.14622,-1.30059 0.06449,-0.34095 0.0909,-0.68291 0.122128,-1.02827 0.06363,-0.67019 0.189176,-1.30605 0.355447,-1.95763 0.08791,-0.35871 0.149328,-0.71642 0.199915,-1.08205 0.05025,-0.17865 0.05025,-0.17865 0.179883,-0.30041 0.182837,-0.19428 0.159544,-0.35394 0.167483,-0.61634 0.01754,-0.31918 0.03683,-0.56424 0.180591,-0.8497 0.157544,-0.36307 0.123605,-0.71776 0.100835,-1.10461 -0.0043,-0.0628 -0.0065,-0.12539 -0.01077,-0.18988 -0.02031,-0.25546 -0.04354,-0.48125 -0.142713,-0.71877 -0.09505,-0.2478 -0.118496,-0.45277 -0.136959,-0.71743 -0.0092,-0.10418 -0.016,-0.20803 -0.02431,-0.31541 -0.0043,-0.057 -0.0092,-0.11391 -0.01354,-0.17259 -0.11542,-1.58549 -0.283087,-3.16627 -0.449752,-4.74699 -0.02,-0.19105 -0.04022,-0.38216 -0.05948,-0.57328 -0.03182,-0.3058 -0.06363,-0.6114 -0.0964,-0.91705 -0.01754,-0.16868 -0.0352,-0.3371 -0.05277,-0.5057 -0.05693,-0.52697 -0.130989,-1.02536 -0.273363,-1.53581 -0.161975,-1.19357 0.330821,-2.46615 0.93467,-3.48379 0.08483,-0.0848 0.08483,-0.0848 0.345228,-0.0902 0.08207,0.002 0.164653,0.004 0.249579,0.004 -0.143544,-0.29601 -0.31491,-0.48719 -0.562901,-0.69573 -0.274194,-0.23318 -0.52873,-0.47572 -0.775382,-0.73819 -0.06114,-0.0645 -0.12185,-0.12924 -0.184591,-0.19589 -0.482076,-0.65427 -0.577723,-1.25294 -0.569602,-2.05587 6.64e-4,-0.0944 0.0014,-0.18878 0.0022,-0.28592 0.02523,-0.89097 0.238193,-1.43042 0.879392,-2.05077 1.021046,-0.81257 2.120098,-0.96817 3.39351,-0.83677 0.454949,0.0829 0.861924,0.2701 1.216122,0.57119 0,0.0561 0,0.11213 0,0.16991 0.04859,0.0228 0.09776,0.0461 0.147974,0.0695 0.340791,0.17924 0.626469,0.39741 0.871598,0.69565 0.0628,0.215 0.08979,0.41994 0.117266,0.64188 0.09154,0.35989 0.351089,0.59138 0.647577,0.8026 0.05609,0 0.112127,0 0.169914,0 0.147821,-0.17597 0.287118,-0.35276 0.424877,-0.53635 0.301426,-0.3943 0.609382,-0.76977 0.950601,-1.13115 0.821445,-0.90304 1.195901,-1.7255 1.573524,-2.87744 0.195484,-0.58895 0.402852,-1.09081 0.740876,-1.61171 0.269856,-0.43585 0.55863,-0.97076 0.55863,-1.49063 -0.09287,-0.0228 -0.185699,-0.0461 -0.281487,-0.0695 -0.313319,-0.10083 -0.313319,-0.10083 -0.43116,-0.22536 -0.185023,-0.17597 -0.359466,-0.21071 -0.604441,-0.27915 -0.763991,-0.24136 -1.405709,-0.67605 -1.996792,-1.21082 -0.123605,-0.10505 -0.123605,-0.10505 -0.249579,-0.21247 -0.05779,-0.0703 -0.115665,-0.14028 -0.175298,-0.21247 0.02339,-0.0972 0.02339,-0.0972 0.04776,-0.19656 0.0628,-0.22373 0.0628,-0.22373 -0.05446,-0.37043 -0.04354,-0.0528 -0.08687,-0.10613 -0.13182,-0.16065 -0.691044,-0.84894 -0.86657,-1.85968 -0.796571,-2.92615 0.174868,-1.15945 0.710724,-2.06075 1.614431,-2.80402 1.57638,-1.06591 3.346752,-1.01987 4.928259,0 z"
       fill="#090a0b"
       id="path10-5"
       style="fill:#ffffff;stroke-width:0.0849702" />
    <path
       d="m 73.752598,281.21634 c 0.112127,0 0.224285,0 0.339868,0 0.276041,0.42269 0.382331,0.66977 0.339871,1.18958 0.08419,0.0277 0.16819,0.056 0.254932,0.0849 -9.72e-4,0.0545 -0.002,0.10832 -0.0022,0.16432 -7.47e-4,0.0705 -0.0015,0.14062 -0.0022,0.21262 -9.97e-4,0.0705 -0.002,0.14001 -0.0022,0.21201 -0.01077,0.17477 -0.01077,0.17477 0.0933,0.26062 0.01077,0.13785 0.016,0.27571 0.01754,0.41393 0.0022,0.0883 0.0043,0.176 0.0065,0.26708 0.0022,0.096 0.0043,0.19201 0.0065,0.29078 0.02585,0.81659 0.07874,1.62551 0.169914,2.43754 0.0092,0.0911 0.02,0.18216 0.02923,0.27539 0.07874,0.66326 0.185023,1.20211 0.606955,1.73083 0.334843,0.42417 0.513403,0.89708 0.70729,1.39765 0.03603,0.0892 0.07203,0.17786 0.10945,0.26955 0.222285,0.56307 0.382079,1.11915 0.504775,1.71197 0.02831,0.20524 0.02831,0.20524 0.134775,0.29663 0.04271,0.28278 0.07705,0.56577 0.110804,0.84935 0.03434,0.28094 0.03434,0.28094 0.313989,0.42522 0.279241,0.50654 0.327471,1.01243 0.377051,1.58258 0.0092,0.0871 0.02,0.17385 0.02923,0.2637 0.05779,0.64055 0.05779,0.64055 -0.138282,0.94797 -0.06031,0.0594 -0.121174,0.11878 -0.183514,0.1797 -0.09908,0.21755 -0.09908,0.21755 -0.169914,0.44617 -0.02831,0.0812 -0.05609,0.16185 -0.08551,0.24524 -0.02769,0.0803 -0.05526,0.16062 -0.08419,0.2434 -0.189176,0.53817 -0.189176,0.53817 -0.339867,0.76473 -0.08751,0.0277 -0.175299,0.056 -0.265487,0.0846 -0.0804,0.0277 -0.161298,0.056 -0.244286,0.0852 -0.09816,0.24924 -0.138282,0.49941 -0.169914,0.76471 -0.427889,-0.40426 -1.024351,-1.03672 -1.142121,-1.63495 0.01077,-0.16309 0.02431,-0.3262 0.03769,-0.48928 -0.07874,-0.24401 -0.172591,-0.47697 -0.273857,-0.71258 -0.07619,-0.25601 -0.05948,-0.39396 0.02,-0.64692 0.06616,-0.1 0.06616,-0.1 0.132743,-0.20185 0.156037,-0.28463 0.140959,-0.49824 0.122128,-0.81785 -0.05613,0.19632 -0.112158,0.39257 -0.169914,0.59482 -0.02831,0 -0.05609,0 -0.08483,0 -0.01754,-0.0929 -0.0352,-0.18585 -0.0536,-0.28154 -0.08533,-0.32934 -0.08533,-0.32934 -0.361139,-0.45673 -0.08751,-0.0366 -0.175299,-0.0735 -0.265486,-0.11169 -0.485683,-0.42867 -0.749169,-0.98198 -0.804528,-1.62708 -0.016,-0.25016 -0.02277,-0.50033 -0.03016,-0.75073 -0.0092,-0.27324 -0.04271,-0.52565 -0.10545,-0.79265 -0.09262,-0.39564 -0.08662,-0.77027 -0.06951,-1.17496 0.0011,-0.24555 0.0011,-0.24555 -0.09302,-0.47488 -0.291641,-0.92622 -0.192807,-2.0682 -0.197669,-3.03553 -9.78e-4,-0.13693 -0.0022,-0.27355 -0.0043,-0.41054 -0.01354,-0.76609 0.01754,-1.49337 0.180592,-2.24405 0.02,-0.0917 0.02,-0.0917 0.04022,-0.18493 0.09222,-0.38075 0.233855,-0.70415 0.415748,-1.05022 0.08711,-0.17785 0.125389,-0.33586 0.14382,-0.53285 0.0065,-0.0628 0.01354,-0.12585 0.02,-0.19078 0.0092,-0.0948 0.0092,-0.0948 0.016,-0.19139 0.0065,-0.0661 0.01354,-0.13169 0.02,-0.19939 0.016,-0.16001 0.03016,-0.3201 0.04354,-0.48026 z"
       fill="#fdfdfd"
       id="path12-3"
       style="fill:#12173f;fill-opacity:1;stroke-width:0.0849702" />
    <path
       d="m 77.916131,237.71166 c 0.02769,0 0.05609,0 0.08483,0 0.07203,0.43593 0.0984,0.859 0.09545,1.3011 -2.92e-4,0.0662 -5.81e-4,0.13182 -8.74e-4,0.19992 -0.0065,0.66181 -0.03015,1.32141 -0.08206,1.98121 -0.01077,0.15847 -0.01754,0.31743 -0.02277,0.47622 -0.02185,0.26835 -0.04689,0.47019 -0.159298,0.715 -0.2165,0.16976 -0.429314,0.27277 -0.680742,0.38367 -0.273856,0.13609 -0.446065,0.28896 -0.662818,0.50318 -0.580993,0.55126 -1.524812,1.13238 -2.336678,1.163 -0.07539,-0.004 -0.150652,-0.006 -0.228286,-0.0108 0,-0.31516 0.0628,-0.35126 0.276441,-0.57187 0.05862,-0.0611 0.117266,-0.12252 0.17773,-0.18566 0.062,-0.0636 0.124281,-0.12739 0.188345,-0.19306 0.953841,-0.96239 0.953841,-0.96239 1.651617,-2.10832 0.149821,-0.28527 0.32295,-0.49942 0.541712,-0.73284 0.642968,-0.7309 0.818516,-1.59723 1.005049,-2.52587 0.06785,-0.30996 0.06785,-0.30996 0.152682,-0.39498 z"
       fill="#f9f9f9"
       id="path17-0"
       style="fill:#12173f;fill-opacity:1;stroke-width:0.0849702" />
    <path
       style="fill:none;stroke:#12173f;stroke-width:4.43191;stroke-dasharray:none;stroke-opacity:1"
       id="path37"
       d="m 348.64653,362.46322 -99.77385,-0.176 -10.663,-6.1814 -49.73445,-86.49468 0.0218,-12.32513 50.03939,-86.31866 10.68475,-6.14373 99.77379,0.17598 10.66304,6.1814 49.73445,86.49472 -0.0215,12.32512 -50.03936,86.31862 z" />
    <path
       style="fill:none;stroke:#12173f;stroke-width:4.43191;stroke-dasharray:none;stroke-opacity:1"
       id="path38"
       d="m 439.47623,128.93173 -57.14903,-0.10083 -6.10761,-3.54061 -28.48719,-49.542911 0.0123,-7.059659 28.66184,-49.442069 6.12004,-3.519051 57.14906,0.100835 6.1076,3.540614 28.48719,49.542919 -0.0123,7.05965 -28.66184,49.442072 z" />
    <path
       style="display:inline;fill:none;stroke:#12173f;stroke-width:4.43191;stroke-linecap:round;stroke-linejoin:bevel;stroke-dasharray:none;stroke-opacity:1"
       id="path38-4"
       d="m 216.67236,128.93173 -57.14849,-0.10083 -6.10757,-3.54058 -28.48692,-49.542489 0.0126,-7.059591 28.66157,-49.441644 6.12005,-3.519014 57.14849,0.100834 6.10757,3.54059 28.48691,49.542476 -0.0135,7.059591 -28.66158,49.441637 z" />
    <path
       style="fill:none;stroke:#12173f;stroke-width:4.43191;stroke-dasharray:none;stroke-opacity:1"
       id="path39"
       d="m 103.39813,320.24545 -57.149013,-0.10093 -6.107616,-3.54062 -28.487182,-49.54291 0.01262,-7.05965 28.661831,-49.44208 6.120075,-3.51904 57.149005,0.10083 6.10762,3.54061 28.48717,49.54292 -0.0135,7.05965 -28.66184,49.4421 z" />
    <path
       style="fill:none;stroke:#12173f;stroke-width:4.43191;stroke-dasharray:none;stroke-opacity:1"
       id="path40"
       d="m 548.98749,320.24541 -57.14853,-0.10092 -6.10755,-3.54059 -28.48694,-49.5425 0.0123,-7.0596 28.66159,-49.44163 6.12001,-3.51902 57.1485,0.10083 6.10761,3.54058 28.48688,49.54248 -0.0123,7.05959 -28.66156,49.44167 z" />
    <path
       style="fill:none;stroke:#12173f;stroke-width:4.43191;stroke-dasharray:none;stroke-opacity:1"
       id="path41"
       d="m 216.67236,511.29158 -57.14849,-0.10093 -6.10757,-3.54059 -28.48692,-49.54247 0.0126,-7.05964 28.66157,-49.44161 6.12005,-3.51902 57.14849,0.10092 6.10757,3.54056 28.48691,49.54251 -0.0135,7.05958 -28.66158,49.44164 z" />
    <path
       style="fill:none;stroke:#12173f;stroke-width:4.43191;stroke-dasharray:none;stroke-opacity:1"
       id="path42"
       d="m 439.47619,511.2926 -57.14902,-0.10093 -6.10761,-3.54056 -28.48719,-49.54294 0.0123,-7.05967 28.66184,-49.44207 6.12007,-3.51905 57.14903,0.10093 6.1076,3.54055 28.48716,49.54294 -0.0123,7.05964 -28.66184,49.44211 z" />
    <rect
       style="fill:#12173f;fill-opacity:1;stroke:#0b162a;stroke-width:4.43191;stroke-dasharray:none"
       id="rect42"
       width="46.12178"
       height="9.8832378"
       x="-79.723633"
       y="-396.34073"
       transform="rotate(120)" />
    <rect
       style="fill:#12173f;fill-opacity:1;stroke:#0b162a;stroke-width:4.43191;stroke-dasharray:none"
       id="rect43"
       width="46.12178"
       height="9.8832378"
       x="192.05237"
       y="-394.43109"
       transform="rotate(120)" />
    <rect
       style="fill:#12173f;fill-opacity:1;stroke:#0b162a;stroke-width:4.43191;stroke-dasharray:none"
       id="rect44"
       width="46.121777"
       height="9.8832378"
       x="218.79836"
       y="120.71461"
       transform="matrix(0.49999999,0.86602541,0.86602541,-0.49999999,0,0)" />
    <rect
       style="display:inline;fill:#12173f;fill-opacity:1;stroke:#0b162a;stroke-width:4.43191;stroke-dasharray:none"
       id="rect44-5"
       width="46.121777"
       height="9.8832378"
       x="139.70636"
       y="-268.38916"
       transform="scale(1,-1)" />
    <rect
       style="fill:#12173f;fill-opacity:1;stroke:#0b162a;stroke-width:4.43191;stroke-dasharray:none"
       id="rect45"
       width="46.121777"
       height="9.8832378"
       x="490.57443"
       y="122.62419"
       transform="matrix(0.49999999,0.86602541,0.86602541,-0.49999999,0,0)" />
    <rect
       style="display:inline;fill:#12173f;fill-opacity:1;stroke:#0b162a;stroke-width:4.43191;stroke-dasharray:none"
       id="rect46"
       width="46.121777"
       height="9.8832378"
       x="412.31903"
       y="-268.38916"
       transform="scale(1,-1)" />
    <path
       d="m 516.33225,227.06135 c 1.29977,1.09985 1.29977,1.09985 2.13293,2.66626 0.13324,2.03301 0.13324,2.03301 0,3.73279 0.44476,0.002 0.88951,0.002 1.34775,0.004 5.79913,0.19927 8.61585,1.78519 12.56119,5.94622 1.69874,1.83931 3.12845,3.5283 4.22163,5.78115 0.34094,0.1649 0.68193,0.32991 1.03318,0.49992 1.09982,0.56659 1.09982,0.56659 1.86637,1.86639 0.96158,1.57696 1.87665,2.1329 3.49948,2.96623 -0.088,0.43995 -0.176,0.87987 -0.26678,1.33312 -0.33115,1.89933 -0.33115,1.89933 -0.16677,3.96604 0.0326,2.43283 -0.85009,3.95349 -2.23301,5.89912 -0.32988,0.47295 -0.65987,0.94583 -0.99982,1.43308 -1.30207,1.41701 -2.73517,2.30115 -4.33265,3.36616 -0.72867,0.87435 -1.44251,1.76148 -2.13303,2.66623 -1.97075,1.31389 -3.00263,1.10669 -5.3325,1.06653 -0.89351,0.15225 -1.78542,0.31968 -2.66625,0.53325 0.34094,0.50586 0.6819,1.01182 1.03318,1.53308 0.94966,1.64124 1.25146,2.91213 1.36645,4.79924 0.19108,2.86656 1.04733,5.01818 2.39962,7.53221 0.20462,0.38081 0.40971,0.76165 0.6207,1.15398 1.09192,1.88093 2.06491,3.21328 3.84525,4.47847 0.46192,0.42897 0.92388,0.85784 1.39977,1.2998 -0.0671,2.03303 -0.0671,2.03303 -0.53325,3.73278 -0.52789,0.17601 -1.05588,0.35195 -1.59978,0.53325 -0.1637,0.41448 -0.32724,0.82898 -0.49571,1.25608 -0.98145,2.42485 -3.06546,3.52499 -5.37004,4.6097 -1.5375,0.24555 -2.70081,0.17047 -4.266,0 -0.52793,-1.05582 -0.52793,-1.05582 -1.0665,-2.133 0.64341,-0.7259 0.64341,-0.7259 1.29977,-1.46645 1.06607,-1.29494 1.74899,-2.15771 1.89973,-3.86608 0.0769,-0.60495 0.15385,-1.2098 0.23355,-1.83305 -0.006,-3.39348 -1.92284,-6.41728 -3.43277,-9.36523 -0.0154,0.77759 -0.0246,1.55528 -0.0335,2.333 -0.006,0.433 -0.0123,0.86613 -0.0185,1.3123 -0.0246,1.18032 -0.0246,1.18032 0.58535,2.22048 0.0779,0.88646 0.11785,1.77652 0.13323,2.66625 0.0123,0.47297 0.0277,0.94585 0.0418,1.4331 -0.0575,0.40693 -0.11539,0.8139 -0.17508,1.23315 -3.88876,2.59252 -8.82063,2.27254 -13.33125,2.133 -0.26401,-1.31977 -0.26401,-1.31977 -0.53329,-2.66622 0.36645,-0.12924 0.73277,-0.25847 1.11029,-0.39161 0.72067,-0.26801 0.72067,-0.26801 1.45602,-0.54159 0.4763,-0.17324 0.95274,-0.34648 1.4435,-0.52495 1.52916,-0.78024 2.14008,-1.2798 2.92245,-2.80791 0.13785,-1.70637 0.13785,-1.70637 -0.0671,-3.59943 -0.0277,-0.3449 -0.0569,-0.68971 -0.0865,-1.04505 -0.52356,-6.67179 -0.52356,-6.67179 -2.51314,-12.95279 -0.36022,-2.702 -0.36022,-2.702 0,-4.26602 0.8233,-0.97863 1.702,-1.66813 2.72666,-2.43087 1.9465,-1.48712 3.4252,-3.22683 4.20557,-5.5679 -2.72284,1.61435 -2.72284,1.61435 -4.26601,4.266 -0.35192,0 -0.70384,0 -1.0665,0 -0.176,0.70385 -0.35192,1.40776 -0.53325,2.133 -1.05582,0 -2.11167,0 -3.1995,0 -0.176,0.5279 -0.35192,1.05584 -0.53325,1.59974 -0.35195,0 -0.70393,0 -1.0665,0 -0.176,-0.52789 -0.35192,-1.05583 -0.53325,-1.59974 -0.35195,0 -0.70396,0 -1.06653,0 0.73009,-2.36763 1.73302,-3.39324 3.69946,-4.86592 1.55224,-1.17507 2.9173,-2.28405 4.29932,-3.66612 -4.22335,0 -8.44667,0 -12.798,0 0,-1.05583 0,-2.11168 0,-3.19949 1.39978,-1.29977 1.39978,-1.29977 3.1995,-2.133 2.82623,0.1598 2.82623,0.1598 3.73272,1.06652 2.84703,0.33099 4.11791,-0.5108 6.39907,-2.13303 0.52789,0 1.05582,0 1.59971,0 -0.32493,-1.43521 -0.68064,-2.84663 -1.0665,-4.26602 -0.13077,-0.50587 -0.26124,-1.01182 -0.39573,-1.53308 -0.76366,-2.91055 -0.76366,-2.91055 -2.76832,-4.96799 -1.11469,-0.38544 -1.11469,-0.38544 -2.22051,-0.56031 -1.56766,-0.62446 -1.92502,-1.56641 -2.61416,-3.07038 -0.34558,-2.16552 -0.32985,-4.23094 0,-6.39901 2.14553,-2.87949 3.91796,-3.56649 7.46551,-3.19951 z"
       fill="#040404"
       id="path19-2"
       style="fill:#ffffff;fill-opacity:1;stroke-width:0.53325" />
  </g>
</svg>
