<?xml version="1.0" encoding="UTF-8" standalone="no"?>
<!-- Generator: Adobe Illustrator 25.2.1, SVG Export Plug-In . SVG Version: 6.00 Build 0)  -->

<svg
   version="1.1"
   id="Слой_1"
   x="0px"
   y="0px"
   viewBox="0 0 347.88004 365.84969"
   xml:space="preserve"
   width="347.88004"
   height="365.84967"
   sodipodi:docname="MBA-BLUE.svg"
   inkscape:version="1.3.2 (091e20e, 2023-11-25, custom)"
   xmlns:inkscape="http://www.inkscape.org/namespaces/inkscape"
   xmlns:sodipodi="http://sodipodi.sourceforge.net/DTD/sodipodi-0.dtd"
   xmlns="http://www.w3.org/2000/svg"
   xmlns:svg="http://www.w3.org/2000/svg"><sodipodi:namedview
   id="namedview1"
   pagecolor="#ffffff"
   bordercolor="#666666"
   borderopacity="1.0"
   inkscape:showpageshadow="2"
   inkscape:pageopacity="0.0"
   inkscape:pagecheckerboard="0"
   inkscape:deskcolor="#d1d1d1"
   inkscape:zoom="2.16"
   inkscape:cx="173.84259"
   inkscape:cy="183.10185"
   inkscape:window-width="2021"
   inkscape:window-height="1013"
   inkscape:window-x="10"
   inkscape:window-y="24"
   inkscape:window-maximized="0"
   inkscape:current-layer="Слой_1" /><defs
   id="defs44">
		
		
		
		
		
		
		
		
		
		
		
		
		
		
		
		
		
		
		
		
		
		
		
		
		
		
		
		
		
		
		
		
		
		
		
		
	</defs>
<style
   type="text/css"
   id="style1">
	.st0{fill:none;}
</style>
<path
   class="st0"
   d="m 102.28717,185.1749 c -2.21583,1.66717 -4.346445,3.25496 -6.817953,4.52519 -0.426122,0.23817 -1.022693,0.55573 -1.448815,0.15878 -0.511346,-0.39695 -0.08522,-0.95267 0.170449,-1.34962 3.238527,-5.79543 5.965709,-11.82902 8.863339,-17.78323 0.3409,-0.7145 0.76702,-1.34962 1.44881,-1.82595 3.92033,-2.46108 7.6702,-5.08093 11.59052,-7.542 2.81241,-1.82596 5.79526,-3.49313 8.94857,-5.39848 -0.42612,0 -0.59657,-0.0794 -0.76702,0 -6.81795,2.06413 -13.46546,4.60459 -19.60162,8.17711 -2.30106,1.27023 -3.92032,3.0168 -4.943012,5.39848 -3.068079,6.90688 -5.539587,14.05193 -9.800808,20.64125 0.681796,0.23817 2.130611,-0.0794 1.193142,1.34962 -0.170449,0.23817 0.426122,0.23817 0.681795,0.23817 0.681796,0 1.278367,0 1.960162,0 1.022693,0 1.193142,0.39694 0.681795,1.19084 -2.641957,3.81069 -5.369138,7.62138 -9.119012,10.63818 -1.36359,1.03206 -2.727181,2.06412 -4.175996,3.17558 8.096319,-1.34962 20.965204,-14.60766 21.135654,-21.59392 z"
   id="path1"
   style="stroke:#12173d;stroke-width:1;stroke-dasharray:none;stroke-opacity:1"
   inkscape:export-filename="MGABlue80h.png"
   inkscape:export-xdpi="33.240002"
   inkscape:export-ydpi="33.240002" /><path
   class="st0"
   d="m 82.00376,189.46192 c 0.08522,0.71451 0,1.42901 0.426122,2.06413 1.363591,2.06412 3.153303,3.81069 4.857792,5.63665 0.511346,0.47633 1.022692,0.55572 1.534039,0 0.681795,-0.87329 1.363591,-1.74657 2.13061,-2.77863 -1.448815,0 -2.556732,0 -3.664649,0 -0.681796,0 -1.53404,0 -1.874937,-0.63512 -0.340898,-0.63511 0.340897,-1.11145 0.681795,-1.58779 4.687342,-6.58932 8.096319,-13.73436 10.567827,-21.19697 0.426122,-1.27023 0.596571,-2.61985 0.255673,-3.89008 -0.08522,-0.39695 -0.170449,-1.11145 -0.852244,-0.7939 -1.193142,0.63512 -1.363591,-0.23816 -1.53404,-0.87328 -2.301059,-5.71604 -5.539586,-10.95574 -9.119011,-16.11605 -0.170449,-0.23817 -0.511347,-0.47634 0.08522,-0.95267 1.619264,1.27023 3.238528,2.46107 4.857791,3.7313 -1.36359,-3.57252 -2.812405,-7.06566 -3.4942,-10.79696 -0.681796,-3.7313 -0.681796,-7.38322 0.852244,-10.95574 0.340897,2.46107 1.107917,4.76337 2.89763,7.06566 0.08522,-3.17558 -0.170449,-6.11299 0.426122,-8.97101 0.511346,-2.85801 1.107917,-5.71603 1.619263,-8.57405 -1.704488,3.25496 -3.835098,6.19237 -7.073626,8.33589 -1.874937,1.27023 -3.579425,2.61985 -5.369138,4.04886 -3.068078,2.46107 -5.454362,5.39848 -7.244074,8.81222 -0.596571,1.11145 -0.426123,1.5084 1.107917,1.42901 2.13061,-0.0794 3.835098,-0.39695 4.090772,-2.77863 0,-0.23817 0.255673,-0.47634 0.426122,-0.79389 0.170448,-0.23817 0.426122,-0.63512 0.767019,-0.63512 0.511347,0.0794 0.511347,0.55573 0.511347,0.87329 0.08522,2.61985 1.193142,5.00153 2.301059,7.38321 1.960161,4.36642 4.772567,8.41528 7.073626,12.70231 2.471508,4.4458 2.727181,8.971 2.13061,13.73437 -0.08522,0.47633 0.08522,1.11145 -0.426122,1.42901 -0.681795,-0.31756 -0.511346,-0.87329 -0.681795,-1.34962 -0.76702,-3.0168 -1.704488,-5.87482 -3.408976,-8.57406 -0.426123,-0.7939 -1.022693,-1.42901 -2.130611,-1.42901 -5.539586,-0.39695 -9.459909,-3.33436 -13.039335,-6.82749 -2.727181,-2.61985 -2.727181,-2.69924 -6.136157,-0.63512 -1.193142,0.71451 -2.301059,1.42901 -3.068079,2.46108 -0.255673,0.31755 -0.76702,0.63511 -0.340898,1.27023 1.704489,-0.39695 3.494201,-0.7939 5.283914,-0.63512 1.704488,0.15878 2.215834,0.87328 1.448815,2.30229 -1.278366,2.54047 -2.045386,5.23971 -2.556733,8.01833 -0.255673,1.11146 0.08522,1.82596 1.193142,2.38169 1.960162,0.95267 3.153303,2.46107 4.175996,4.12825 0.681796,1.11145 0.681796,1.82595 -0.852244,2.14351 -0.511346,0.0794 -1.022693,0.31756 -1.448815,0.55573 -1.960161,0.79389 -3.835098,1.74656 -5.79526,3.41374 3.068079,0.23817 5.624811,0.31756 8.181544,0.87329 2.556732,0.55572 4.943016,1.50839 7.073626,3.01679 -0.255673,-2.14351 -0.852244,-4.12825 -2.727181,-5.47787 0.511346,-0.39694 0.852244,-0.23816 1.193141,-0.15878 0.852245,0.23817 1.704489,0.7939 2.471508,0.71451 1.193142,-0.15878 0.08522,-1.58779 1.107918,-2.2229 0.511346,0.23816 0.426122,0.7145 0.426122,1.11145 0.255673,3.33435 0.511346,6.66871 0.681795,10.00306 z m -3.153303,-23.65804 c 3.153303,0.23817 5.965709,0.79389 8.607665,2.06412 0.681796,0.31756 1.193142,0.95268 1.278367,1.66718 0.852244,3.89008 0.08522,7.78016 -0.426123,11.74963 -1.193141,-6.11298 -4.005547,-11.43207 -9.459909,-15.48093 z"
   id="path2"
   style="stroke:#12173d;stroke-width:1;stroke-dasharray:none;stroke-opacity:1" /><path
   class="st0"
   d="m 76.378949,153.6573 c -0.255673,0.31756 0.08522,0.7145 0.255673,1.03206 1.363591,3.41375 4.516894,3.65191 8.096319,3.81069 -2.556732,-1.66718 -4.857791,-3.17557 -7.073626,-4.68397 -0.426122,-0.0794 -0.852244,-0.55573 -1.278366,-0.15878 z"
   id="path3"
   style="stroke:#12173d;stroke-width:1;stroke-dasharray:none;stroke-opacity:1" /><path
   class="st0"
   d="m 89.844406,209.1505 c 2.13061,-0.71451 3.920323,-1.82596 5.880484,-3.33436 -1.193142,-0.39694 -1.960161,-0.15878 -2.812405,0.15878 -1.53404,0.63512 -3.068079,1.27023 -4.772567,1.58779 -0.426122,0.0794 -0.937469,0.0794 -0.937469,0.55573 -0.08522,0.47633 0.426122,0.79389 0.76702,1.03206 0.596571,0.31756 1.278366,0.23817 1.874937,0 z"
   id="path4"
   style="stroke:#12173d;stroke-width:1;stroke-dasharray:none;stroke-opacity:1" /><path
   class="st0"
   d="m 155.04108,245.82841 c 3.40898,0 6.81795,0.0794 10.22693,0.0794 1.19314,0 1.27837,-0.39695 0.76702,-1.27023 -1.19314,-1.82596 -3.06808,-2.85802 -5.02824,-3.73131 -5.53959,-2.30229 -7.07363,-6.58932 -6.81795,-11.74963 0.0852,-1.58779 0.85224,-2.61985 2.64195,-2.85802 2.98286,-0.47633 5.88049,-1.03206 8.86334,-1.42901 1.27837,-0.15878 1.61927,-0.63511 1.36359,-1.82595 -0.93747,-5.16032 -1.70449,-10.32063 -2.64195,-15.40155 -0.51135,-2.77863 -1.19315,-5.55726 -1.78972,-8.41528 -0.0852,-0.39695 -0.34089,-1.58779 -1.19314,-0.55572 -1.19314,1.50839 -1.53404,0.55572 -1.96016,-0.39695 -3.06808,-7.542 -7.58497,-14.36949 -12.18709,-21.11759 -0.25567,-0.39694 -0.85225,-0.79389 -0.59657,-1.66717 2.64195,1.74656 4.94301,3.81069 7.75542,5.87481 -2.47151,-5.39848 -4.68734,-10.32062 -5.79526,-15.56032 -1.19314,-5.47787 -0.85224,-14.05193 0.85224,-15.71911 0.51135,1.90535 0.6818,3.8107 1.44882,5.63665 0.85224,1.98474 2.13061,3.96947 3.06808,4.76337 -1.36359,-9.12978 0.59657,-17.86262 2.30106,-26.75423 -0.25568,0.39694 -0.42613,0.87328 -0.6818,1.27023 -2.38628,5.31909 -5.62481,9.92367 -10.73827,13.33742 -2.72719,1.82595 -5.19869,3.89008 -7.58498,6.19237 -3.4942,3.33436 -6.13615,7.22444 -8.01109,11.51147 -0.42612,1.03206 -0.42612,1.58778 1.02269,1.34962 1.53404,-0.23817 2.98286,-0.39695 4.51689,-0.63512 0.93747,-0.0794 1.44882,-0.39695 1.53404,-1.42901 0.17045,-1.27023 0.6818,-2.46107 1.44882,-3.49313 0.25567,-0.31756 0.42612,-0.7939 0.93747,-0.63512 0.51134,0.0794 0.42612,0.63512 0.42612,0.95268 0,4.76336 2.13061,8.971 4.26122,13.01986 2.98285,5.47787 6.30661,10.79696 9.03379,16.43361 0.93747,1.98473 1.70449,4.04886 2.04538,6.27176 0.6818,4.20764 0.3409,8.41528 -0.0852,12.62292 -0.0852,0.31756 -0.0852,0.7145 -0.59657,0.63511 -0.42612,-0.39694 -0.42612,-0.95267 -0.59657,-1.5084 -0.85225,-4.36641 -2.47151,-8.41527 -4.68734,-12.30535 -0.76702,-1.34962 -1.70449,-1.98474 -3.40898,-2.14352 -4.5169,-0.39695 -8.52244,-1.82595 -11.93142,-4.68397 -2.47151,-2.06413 -5.02824,-3.96947 -6.90318,-6.58933 -0.68179,-0.87328 -1.36359,-1.03206 -2.38628,-0.55572 -2.04539,0.95267 -4.00555,1.82596 -5.79526,3.17558 -1.44881,1.11145 -2.89763,2.30229 -4.09077,4.20763 3.1533,-0.7145 5.88048,-1.50839 8.69289,-1.11145 2.30106,0.31756 2.55673,0.7939 1.61926,2.69924 -1.96016,3.96947 -2.98285,8.09772 -3.57942,12.30536 -0.17045,1.19084 0.17045,1.82596 1.27836,2.30229 3.15331,1.42901 5.11347,3.96948 6.64751,6.82749 0.59657,1.11146 0.42612,1.74657 -0.85225,2.06413 -1.10791,0.23817 -2.30106,0.63511 -3.32375,1.11145 -2.72718,1.11145 -5.19869,2.46107 -7.75542,4.5252 8.35199,0.63511 16.36309,0.79389 22.49924,6.58932 -0.76702,-3.49314 -1.70448,-6.90688 -5.02824,-9.12978 1.61927,-0.0794 2.98286,0.39694 4.26122,0.95267 1.19315,0.47634 1.87494,0.47634 1.87494,-0.95267 0,-0.87329 0.25567,-1.82596 0.42612,-2.93741 0.6818,0.63511 0.76702,1.19084 0.85225,1.74657 1.02269,5.2397 1.27836,10.55879 1.36359,15.87788 0,1.03206 0.17045,1.98473 0.85224,2.77863 2.64196,3.17557 5.45436,6.03359 8.86334,8.41528 0.85225,0.7145 1.44882,1.03206 2.30106,1.03206 z m -3.8351,-25.80156 c 0,0.23817 -0.0852,0.55572 -0.25567,0.79389 -0.93747,-0.23817 -0.85225,-0.95267 -0.93747,-1.42901 -0.42612,-1.42901 -0.85224,-2.85802 -1.19314,-4.28703 -1.36359,-5.16031 -4.26122,-9.44734 -8.52244,-13.01986 -1.10792,-0.95267 -2.13061,-1.98473 -3.40898,-3.09619 0.76702,-0.39694 1.27837,-0.23816 1.70449,-0.0794 3.06808,0.87329 6.30661,1.42901 9.28946,2.54047 1.96016,0.7145 2.98285,1.98473 3.23853,3.89008 0.51134,4.92214 0.42612,9.84428 0.0852,14.68704 z"
   id="path5"
   style="stroke:#12173d;stroke-width:1;stroke-dasharray:none;stroke-opacity:1" /><path
   class="st0"
   d="m 145.92207,189.38253 c -2.64196,-2.30229 -9.88603,-6.58932 -11.59052,-6.98626 0.76702,5.00153 5.79526,8.01833 11.59052,6.98626 z"
   id="path6"
   style="stroke:#12173d;stroke-width:1;stroke-dasharray:none;stroke-opacity:1" /><path
   class="st0"
   d="m 85.242288,154.84814 c -1.960162,-3.0168 -4.261221,-5.39848 -6.903178,-7.70077 -0.681795,-0.63512 -1.534039,-0.55573 -2.301059,-0.47634 -5.369138,0.39695 -10.397378,1.74657 -15.08472,4.20764 -0.340898,0.15878 -0.852245,0.23817 -1.022693,0.95267 9.119012,-3.41374 17.811902,-4.20764 25.31165,3.0168 z"
   id="path7"
   style="stroke:#12173d;stroke-width:1;stroke-dasharray:none;stroke-opacity:1" /><path
   class="st0"
   d="m 111.91753,203.75202 c -5.53959,8.41528 -13.806356,13.33742 -23.692388,16.27483 5.965709,0.23817 11.760969,-0.63512 17.811898,-0.39695 -2.72718,1.98474 -5.02824,4.20764 -6.817949,6.82749 -1.960161,2.61985 -3.238528,5.55726 -4.090772,8.57406 2.812406,-4.20764 6.732731,-6.90688 11.760971,-8.09772 0.93747,-0.23817 1.27836,-0.87329 1.53404,-1.58779 0.68179,-1.98474 1.27836,-3.96947 1.96016,-5.95421 1.19314,-3.65191 1.10792,-3.81069 -3.1533,-3.33435 -0.51135,0.0794 -1.19315,0.39694 -1.44882,-0.15878 -0.25567,-0.47634 0.3409,-0.87328 0.6818,-1.27023 2.38628,-3.33436 4.26122,-6.90688 5.45436,-10.87635 z"
   id="path8"
   style="stroke:#12173d;stroke-width:1;stroke-dasharray:none;stroke-opacity:1" /><path
   class="st0"
   d="m 139.53024,179.61764 c 2.55673,1.58778 5.11346,3.17557 7.67019,4.68397 -2.89763,-3.7313 -5.9657,-7.38321 -9.54513,-10.4794 -0.85224,-0.71451 -1.70449,-0.87328 -2.81241,-0.71451 -5.19868,0.63512 -10.31215,1.58779 -15.16994,3.49314 -2.72718,1.03206 -5.36914,2.2229 -7.75542,3.96947 4.09077,-1.42901 8.35199,-2.61985 12.69844,-3.25497 5.19868,-0.79389 10.31215,-0.55572 14.91427,2.3023 z"
   id="path9"
   style="stroke:#12173d;stroke-width:1;stroke-dasharray:none;stroke-opacity:1" /><path
   class="st0"
   d="m 262.33861,124.68016 c 2.64196,0.87329 5.45437,1.5084 8.43722,3.09619 -1.70449,-2.54046 -4.09077,-3.96947 -5.79526,-6.19238 2.64196,0.31756 4.60212,1.34962 7.24408,1.42901 -1.27837,-1.50839 -2.21584,-2.69924 -3.23853,-3.89008 -0.59657,-0.63511 -0.6818,-1.27023 -0.17045,-1.98473 3.32375,-4.92215 6.6475,-9.92368 10.1417,-15.16338 0.25568,0.47634 0.42613,0.63511 0.42613,0.87328 0.76702,5.71604 1.44881,11.51147 1.10791,17.3069 -0.17045,3.01679 -0.59657,5.71603 -3.57942,7.54199 -1.78971,1.11145 -1.70449,1.34962 0.25567,2.46107 0.59657,0.39695 1.10792,0.7939 1.61927,1.27023 0.68179,0.63512 1.10791,0.39695 1.44881,-0.23817 0.6818,-1.42901 1.19314,-2.85802 1.53404,-4.36641 1.53404,-6.66871 1.19314,-13.33743 0.25567,-20.08553 -0.34089,-2.61985 -0.85224,-5.31909 -2.04538,-7.780158 -1.10792,-2.222904 -3.23853,-2.461072 -4.68735,-0.635116 -5.36913,6.986264 -10.65305,14.051924 -16.02219,21.038194 -0.25567,0.39695 -0.68179,0.7939 -0.42612,1.19084 0.93747,1.66718 1.61927,3.57253 3.4942,4.12825 z"
   id="path10"
   style="stroke:#12173d;stroke-width:1;stroke-dasharray:none;stroke-opacity:1" /><path
   class="st0"
   d="m 231.40215,149.60844 c -1.27836,3.0168 -2.47151,5.79543 -3.8351,8.971 3.74988,-1.42901 4.77257,-3.96947 3.8351,-8.971 z"
   id="path11"
   style="stroke:#12173d;stroke-width:1;stroke-dasharray:none;stroke-opacity:1" /><path
   class="st0"
   d="m 198.16463,141.11377 c 0.6818,0.95267 1.61927,1.42901 2.81241,1.74657 3.74987,0.79389 7.3293,1.98473 10.65305,3.81069 0.3409,0.23817 0.68179,0.55573 1.36359,0.39695 -2.64196,-3.33436 -6.05093,-5.87482 -9.03379,-8.73284 0.0852,-0.15878 0.25568,-0.31756 0.3409,-0.47634 3.23853,0.95268 6.56228,1.90535 9.80081,2.85802 -1.53404,-2.2229 -3.06808,-4.20764 -4.85779,-6.03359 -0.93747,-0.95267 -0.93747,-1.82596 -0.17045,-2.93741 3.8351,-5.39848 7.58497,-10.87635 11.24962,-16.27483 1.19314,-1.74657 2.38628,-3.49313 3.8351,-5.71604 1.70449,10.40002 2.98285,20.2443 1.96016,30.24737 -0.25567,2.93741 -1.36359,5.2397 -4.09077,6.90688 -0.85225,0.47633 -1.53404,1.19084 -2.30106,1.74656 -0.93747,0.63512 -0.85225,1.11146 0.25567,1.5084 1.70449,0.71451 3.23853,1.66718 4.34645,3.0168 0.85224,0.95267 1.19314,0.95267 1.70448,-0.23817 1.0227,-2.54046 1.96017,-5.08092 2.47151,-7.78016 2.04539,-10.32062 1.36359,-20.64125 -0.59657,-30.88248 -0.59657,-3.0168 -1.10792,-5.95421 -2.38628,-8.73284 -1.70449,-3.49313 -4.68734,-3.81069 -7.07363,-0.79389 -2.55673,3.17558 -5.02824,6.35115 -7.49975,9.60612 -5.19869,6.7481 -10.31215,13.4962 -15.51084,20.16491 -1.02269,1.27023 -1.02269,2.14351 0.0852,3.33435 0.93746,1.03207 1.78971,2.14352 2.64195,3.25497 z"
   id="path12"
   style="stroke:#12173d;stroke-width:1;stroke-dasharray:none;stroke-opacity:1" /><path
   class="st0"
   d="m 53.879704,140.1611 c -1.789712,0.95267 -2.982854,2.38168 -3.835098,4.12825 -2.13061,4.4458 -3.749874,9.12978 -6.56228,13.25803 -0.767019,1.11145 -0.08522,2.06412 1.363591,2.14351 1.193142,0.0794 1.619264,0.39695 0.937468,1.5084 -1.193141,1.98474 -2.386283,3.89008 -4.005547,5.55726 -1.36359,1.42901 -2.982854,2.69924 -4.346445,4.12825 7.584973,-2.61985 10.993949,-8.65345 13.976804,-15.08399 -1.363591,0.7939 -2.641957,1.5084 -4.090772,2.22291 -0.426122,0.23816 -1.107918,0.39694 -1.448815,0 -0.340898,-0.39695 0.08522,-0.7939 0.340897,-1.19085 2.130611,-3.7313 4.090772,-7.54199 5.965709,-11.35268 0.426122,-0.87329 1.022693,-1.58779 1.874937,-2.14352 1.874937,-1.19084 3.579426,-2.46107 5.539587,-3.57252 3.068079,-1.82596 6.221382,-3.65191 9.374685,-5.39848 -5.454362,1.34962 -10.397378,3.17558 -15.084721,5.79543 z"
   id="path13"
   style="stroke:#12173d;stroke-width:1;stroke-dasharray:none;stroke-opacity:1" /><path
   class="st0"
   d="m 58.993169,169.93213 c -3.579425,4.52519 -7.584972,8.41528 -13.550681,10.95574 3.494201,0.55572 6.477055,-0.23817 10.05648,0 -3.579425,2.85802 -5.79526,5.9542 -7.073626,9.60612 1.363591,-1.11146 2.556732,-2.54047 4.175996,-2.93741 3.494201,-0.7939 4.602118,-3.17558 5.283914,-5.95421 0.08522,-0.15878 0.08522,-0.31756 0.170449,-0.47633 1.022693,-2.77863 1.022693,-2.77863 -2.130611,-2.77863 -0.426122,0 -1.022693,0.23816 -1.278366,-0.23817 -0.170449,-0.39695 0.255673,-0.63512 0.511347,-0.95268 1.789712,-2.30229 3.153303,-4.60458 3.835098,-7.22443 z"
   id="path14"
   style="stroke:#12173d;stroke-width:1;stroke-dasharray:none;stroke-opacity:1" /><path
   class="st0"
   d="m 59.674964,130.15803 c 0.426122,0.95267 0.852245,1.27023 1.704489,0.39695 0.681795,-0.7939 1.619263,-1.27023 2.556732,-1.74657 0.76702,-0.31756 0.852244,-0.7145 0.170449,-1.27023 -0.681796,-0.47634 -1.193142,-1.11145 -1.874937,-1.5084 -1.789713,-1.27023 -2.641957,-2.85802 -2.641957,-4.92214 -0.255673,-6.27177 0.170449,-12.46414 1.107917,-18.65651 0.08523,-0.31756 0,-0.71451 0.426122,-0.87329 0.426122,-0.0794 0.596571,0.31756 0.76702,0.55573 3.153303,4.68397 6.306606,9.36795 9.45991,14.05192 0.511346,0.7939 0.511346,1.42901 -0.08522,2.3023 -1.022693,1.19084 -1.960161,2.46107 -3.153303,3.96947 2.556732,-0.55573 4.602118,-1.42901 6.903177,-1.34962 -1.704488,1.98473 -3.920323,3.57252 -5.454362,5.63665 1.960162,-0.87329 3.920323,-1.74657 5.965709,-1.98474 2.471508,-0.31756 3.920323,-1.58779 5.283913,-3.33435 0.852244,-1.11146 0.76702,-1.90535 -0.08522,-2.93741 -2.215835,-2.77863 -4.261221,-5.63665 -6.477055,-8.41528 -3.238528,-4.12825 -6.306607,-8.2565 -9.630359,-12.384749 -1.534039,-1.905346 -3.408976,-1.746567 -4.516894,0.396947 -0.426122,0.793894 -0.767019,1.746567 -1.022692,2.619852 -1.874938,6.7481 -2.130611,13.4962 -1.789713,20.32369 0.340898,3.17558 1.107917,6.19237 2.386283,9.12978 z"
   id="path15"
   style="stroke:#12173d;stroke-width:1;stroke-dasharray:none;stroke-opacity:1" /><path
   class="st0"
   d="m 103.56554,153.33974 c -0.0852,2.38168 1.36359,3.49313 3.83509,4.68398 -1.36359,-3.49314 -2.64195,-6.58933 -3.83509,-9.60612 -0.0852,0 -0.17045,0.0794 -0.25568,0.0794 0.0852,1.50839 0.3409,3.17557 0.25568,4.84275 z"
   id="path16"
   style="stroke:#12173d;stroke-width:1;stroke-dasharray:none;stroke-opacity:1" /><path
   class="st0"
   d="m 109.3608,152.8634 c 0.42612,0.95268 0.68179,1.42901 1.53404,0.39695 1.19314,-1.42901 2.8124,-2.46107 4.68734,-3.17558 1.02269,-0.39694 0.93747,-0.79389 0.17045,-1.34962 -1.19314,-0.87328 -2.30106,-1.82595 -3.57943,-2.69924 -1.70449,-1.27023 -2.64196,-2.77863 -2.89763,-4.84275 -1.19314,-8.33589 -0.59657,-16.59239 0.59657,-24.92828 0.25568,-1.98473 0.42612,-4.04886 1.10792,-6.03359 0.25567,0.15878 0.42612,0.23817 0.42612,0.23817 4.85779,7.38321 9.88603,14.52826 14.9995,21.7527 0.59657,0.79389 0.42612,1.42901 -0.17045,2.2229 -1.78971,1.98474 -3.4942,4.12825 -5.53959,6.58932 3.74988,-1.19084 6.9884,-2.38168 10.48261,-2.77863 -2.89763,3.09619 -6.30661,5.63665 -8.77812,8.97101 2.64196,-1.42901 5.36914,-2.93741 8.35199,-3.33436 4.34645,-0.63512 6.90318,-3.0168 9.11902,-6.11298 0.68179,-0.95268 0.85224,-1.66718 0.0852,-2.61986 -7.92587,-10.24123 -15.93697,-20.48246 -23.86284,-30.7237 -1.61926,-2.14351 -3.74987,-2.06412 -5.53958,-0.0794 -1.0227,1.19084 -1.53404,2.61985 -1.96016,4.04886 -2.81241,9.7649 -3.40898,19.76797 -2.81241,29.85042 0.3409,4.92215 1.61926,9.84429 3.57943,14.60765 z"
   id="path17"
   style="stroke:#12173d;stroke-width:1;stroke-dasharray:none;stroke-opacity:1" /><path
   class="st0"
   d="m 226.71481,229.63297 c 1.36359,1.98473 2.98285,3.25496 4.34644,4.68397 1.3636,1.5084 2.72719,3.0168 3.74988,4.68398 1.02269,1.58779 1.70449,3.41374 2.30106,5.2397 -0.6818,-4.28703 -1.96016,-8.2565 -4.85779,-11.82902 -1.19315,-1.58779 -2.98286,-2.46108 -5.53959,-2.77863 z"
   id="path18"
   style="stroke:#12173d;stroke-width:1;stroke-dasharray:none;stroke-opacity:1" /><path
   class="st0"
   d="m 259.86711,150.16416 c -0.85225,1.19085 -2.13061,2.22291 -3.15331,3.33436 -0.51134,0.55573 -1.10791,1.03206 -1.19314,2.14351 7.49975,-7.22443 16.02219,-6.43054 24.97075,-3.17557 -4.00554,-2.61985 -8.60766,-3.8107 -13.295,-4.76337 -3.23853,-0.7145 -5.53959,0.0794 -7.3293,2.46107 z"
   id="path19"
   style="stroke:#12173d;stroke-width:1;stroke-dasharray:none;stroke-opacity:1" /><path
   class="st0"
   d="m 264.12833,154.60997 c -0.42613,-0.39695 -0.85225,0 -1.19315,0.23817 -2.21583,1.19084 -4.26122,2.61985 -6.13615,4.28703 2.89763,-0.15878 5.88048,-0.23817 7.15885,-3.33436 0.0852,-0.31756 0.59657,-0.7145 0.17045,-1.19084 z"
   id="path20"
   style="stroke:#12173d;stroke-width:1;stroke-dasharray:none;stroke-opacity:1" /><path
   class="st0"
   d="m 291.05924,194.70163 c 0.0852,-0.15878 -0.17045,-0.39695 -0.25567,-0.63512 -1.44882,-1.98474 -3.32375,-3.41375 -5.79526,-4.12825 -0.85225,-0.23817 -1.96016,-1.11145 -2.55674,-0.23817 -0.42612,0.63512 0.76702,1.42901 1.3636,1.90535 4.26122,3.49313 6.81795,7.78016 6.73272,13.17864 0.0852,-1.74657 0.42613,-3.33435 0.6818,-5.00153 0.25567,-1.58779 -0.76702,-3.33436 -0.17045,-5.08092 z"
   id="path21"
   style="stroke:#12173d;stroke-width:1;stroke-dasharray:none;stroke-opacity:1" /><path
   class="st0"
   d="m 273.16211,159.53211 c 0.6818,-0.15877 1.36359,-0.15877 2.13061,-0.0794 1.19315,0.23816 2.38629,0.39694 3.74988,0.63511 -1.36359,-2.14351 -3.23853,-3.33435 -5.19869,-4.36642 -2.38628,-1.27023 -2.38628,-1.19084 -4.26122,0.63512 -3.92032,3.81069 -8.0111,7.30382 -14.14725,7.4626 -0.85225,0 -1.19315,0.55573 -1.53404,1.11145 -1.19314,2.14352 -2.47151,4.28703 -2.98286,6.66872 -0.25567,1.11145 -0.59657,2.30229 -0.85224,3.49313 -0.6818,-0.0794 -0.6818,-0.39695 -0.6818,-0.79389 -0.42612,-5.00154 -0.42612,-9.92368 2.21584,-14.52827 1.61926,-2.85802 3.23853,-5.71603 4.85779,-8.57405 2.13061,-3.49314 4.00555,-7.22444 4.51689,-11.35269 0.0852,-0.31756 -0.0852,-0.79389 0.3409,-0.87328 0.51135,-0.15878 0.6818,0.23816 0.93747,0.63511 0.17045,0.31756 0.42612,0.71451 0.42612,1.03206 0.17045,1.82596 1.36359,2.38169 3.06808,2.38169 0.6818,0 1.36359,0.31755 1.87494,-0.15878 0.42612,-0.55573 -0.0852,-1.11145 -0.3409,-1.66718 -2.21584,-4.36642 -5.71004,-7.78016 -9.80081,-10.63818 -3.92032,-2.69924 -7.24407,-5.95421 -9.20423,-10.24124 1.27836,5.87482 2.4715,11.82903 1.61926,18.18018 1.96016,-2.46107 2.72718,-5.00153 3.23853,-7.54199 2.8124,7.62138 0.17045,14.68704 -2.47151,21.83208 1.53404,-1.19084 2.98285,-2.30229 4.51689,-3.49313 0.42613,0.7145 0,0.95267 -0.17045,1.27023 -3.40897,4.92214 -6.6475,9.92368 -8.86333,15.48094 -0.25568,0.63511 -0.51135,1.58778 -1.70449,0.7145 -0.42612,-0.31756 -0.42612,0.23817 -0.51135,0.63512 -0.17045,1.11145 -0.3409,2.14351 -0.59657,3.25496 -1.19314,5.00154 -1.44881,9.92368 1.96016,14.44888 0.6818,0.95267 1.27837,1.66717 2.64196,1.82595 2.47151,0.23817 3.06808,0.95268 2.98285,3.33436 -0.0852,0.79389 -0.0852,1.5084 -0.25567,2.30229 -0.25567,1.34962 -0.25567,2.93741 -1.96016,3.65191 -1.02269,0.39695 -1.36359,1.11146 -0.51135,1.90535 0.85225,0.79389 1.27837,2.61985 3.06808,1.42901 2.81241,-1.98474 5.02824,-4.5252 6.9884,-7.30383 0.42612,-0.63511 0.25568,-1.27023 0.25568,-1.98473 -0.0852,-3.25497 0.25567,-6.43054 0.76701,-9.60612 0.0852,-0.47634 0,-1.11145 0.6818,-1.42901 0.0852,0.23817 0.25567,0.39695 0.25567,0.63511 0.0852,1.58779 1.0227,1.90535 2.47151,1.19085 0.42612,-0.23817 1.02269,-0.63512 1.53404,-0.0794 -2.47151,3.41374 -2.72718,3.89008 -2.55673,5.55726 4.51689,-3.49314 9.97125,-3.65192 15.76651,-3.73131 -2.4715,-2.06412 -4.94301,-3.33435 -7.67019,-4.04886 -1.10792,-0.31755 -1.36359,-0.79389 -0.85225,-1.82595 0.93747,-1.66718 2.04539,-3.33436 3.92033,-4.20764 1.70448,-0.7939 1.87493,-1.98474 1.53404,-3.41375 -0.51135,-2.46107 -1.19315,-4.92214 -2.30106,-7.22443 -0.85225,-1.58779 -0.25568,-2.22291 1.10791,-2.54047 z m -20.53908,22.38782 c -0.85224,-0.55573 -0.85224,-1.11145 -0.85224,-1.58779 0,-3.09619 -0.42613,-6.11298 -0.0852,-9.20917 0.0852,-1.19084 0.42612,-2.2229 1.61927,-2.69924 2.64195,-1.19084 5.36913,-1.74657 8.43721,-2.06413 -5.19869,4.04886 -8.18154,9.20918 -9.11901,15.56033 z"
   id="path22"
   style="stroke:#12173d;stroke-width:1;stroke-dasharray:none;stroke-opacity:1" /><path
   class="st0"
   d="m 242.22565,211.77035 c -0.25567,0.79389 1.0227,0.95267 1.70449,1.42901 0.6818,0.47634 1.36359,1.42901 2.47151,0.95267 2.38628,-1.19084 4.43167,-2.77863 5.96571,-4.84275 -2.47151,1.19084 -4.94302,1.98473 -7.75542,1.98473 -0.85225,-0.0794 -2.13061,-0.31756 -2.38629,0.47634 z"
   id="path23"
   style="stroke:#12173d;stroke-width:1;stroke-dasharray:none;stroke-opacity:1" /><path
   class="st0"
   d="m 281.76978,170.96419 c 0.76702,2.54046 1.87494,4.84275 3.57942,6.90688 0.25568,0.23817 0.6818,0.63511 0.42613,1.03206 -0.25568,0.47634 -0.85225,0.23817 -1.27837,0.23817 -0.25567,0 -0.59657,-0.0794 -0.85224,-0.0794 -1.53404,-0.15878 -1.96016,0.23817 -1.36359,1.66718 0.59657,1.74657 1.19314,3.49313 1.70448,5.16031 0.25568,0.63512 0.51135,1.19084 1.27837,1.42901 2.55673,0.95267 4.77257,2.30229 6.47706,4.36642 -1.19315,-3.73131 -3.23853,-7.06566 -6.64751,-9.84429 3.40898,-0.31756 6.22138,0.23817 9.11901,-0.31756 -5.28391,-2.38168 -9.20423,-6.11298 -12.44276,-10.55879 z"
   id="path24"
   style="stroke:#12173d;stroke-width:1;stroke-dasharray:none;stroke-opacity:1" /><path
   class="st0"
   d="m 294.04209,162.15197 c -0.42612,-0.87329 -0.59657,-1.27024 0.76702,-1.58779 0.6818,-0.0794 2.38629,-0.0794 1.53404,-1.5084 -2.64195,-4.68398 -4.51689,-9.7649 -6.6475,-14.68704 -0.51135,-1.11146 -1.19314,-2.14352 -2.38628,-2.77863 -4.68735,-2.85802 -9.88604,-4.68398 -15.25517,-6.19238 4.85779,2.54046 9.28946,5.55726 13.80635,8.57406 0.76702,0.55573 1.53404,1.11145 1.96016,1.90535 1.96016,3.96947 3.92033,7.93894 5.88049,11.9878 0.17045,0.39694 0.59657,0.79389 0.0852,1.19084 -0.42612,0.39695 -1.02269,0.0794 -1.44881,-0.15878 -1.19315,-0.71451 -2.38629,-1.42901 -3.74988,-2.2229 2.98286,7.93894 8.35199,13.89314 13.97681,15.0046 -3.74988,-2.85802 -6.64751,-5.87482 -8.52245,-9.52673 z"
   id="path25"
   style="stroke:#12173d;stroke-width:1;stroke-dasharray:none;stroke-opacity:1" /><path
   class="st0"
   d="m 242.90745,194.78101 c -0.51135,-0.79389 -1.87494,-1.50839 -1.44882,-2.30229 0.42613,-0.87328 1.96016,-0.15878 2.98286,-0.31756 0.17045,-0.0794 0.25567,-0.0794 0.42612,-0.15878 -0.59657,-1.03206 -0.59657,-1.11145 0.51135,-1.50839 0.76702,-0.31756 0.25567,-0.71451 0.0852,-1.03207 -3.74987,-6.27176 -6.39183,-12.94047 -9.20424,-19.52979 -1.02269,-2.46107 -2.72718,-4.20764 -5.11346,-5.55726 -6.22138,-3.49314 -12.78366,-6.0336 -19.60162,-8.09772 -0.25567,-0.0794 -0.68179,-0.39695 -1.02269,0 7.15885,3.81069 13.97681,8.09772 20.53908,12.7023 0.76702,0.55573 1.3636,1.11146 1.78972,1.98474 2.8124,5.79543 5.53958,11.67024 8.60766,17.30689 0.25568,0.55573 1.0227,1.27023 0.25568,1.74657 -0.6818,0.47634 -1.36359,-0.0794 -1.96017,-0.47634 -2.21583,-1.27023 -4.26122,-2.69924 -6.3066,-4.36641 2.04538,9.05039 14.14725,21.11758 21.47655,21.19697 -4.94302,-3.09619 -8.86334,-6.98627 -12.01664,-11.59086 z"
   id="path26"
   style="stroke:#12173d;stroke-width:1;stroke-dasharray:none;stroke-opacity:1" /><path
   class="st0"
   d="m 224.2433,204.30774 c -0.0852,0.55573 0.0852,0.95268 0.25568,1.27023 1.36359,3.17558 2.98285,6.19238 5.19868,8.97101 0.25568,0.39695 0.85225,0.79389 0.51135,1.27023 -0.25567,0.39695 -1.02269,0.23817 -1.53404,0.15878 -0.76702,-0.0794 -1.53404,-0.15878 -2.30106,-0.23817 -1.36359,-0.0794 -1.96016,0.31756 -1.53404,1.74657 0.93747,2.61985 1.70449,5.39848 2.64196,8.01833 0.25567,0.63511 0.59657,1.19084 1.36359,1.42901 4.68734,1.19084 8.52244,3.65191 11.5053,7.22443 -1.70449,-5.87481 -4.94302,-10.79696 -10.31216,-14.44887 5.96571,0.0794 11.76097,0.63512 17.64146,0.31756 -9.54514,-2.85802 -17.89713,-7.38322 -23.43672,-15.71911 z"
   id="path27"
   style="stroke:#12173d;stroke-width:1;stroke-dasharray:none;stroke-opacity:1" /><path
   class="st0"
   d="m 211.03352,177.31534 c 4.51689,0.71451 8.86334,1.98474 13.29501,3.33436 -0.93747,-0.55573 -1.87494,-1.11145 -2.81241,-1.58779 -6.56228,-3.49313 -13.72113,-5.00153 -21.13565,-5.87482 -1.19314,-0.15877 -2.04539,0.31756 -2.81241,1.03207 -2.8124,2.54046 -5.36914,5.31909 -7.84064,8.17711 -0.51135,0.63511 -1.19315,1.11145 -1.53404,2.30229 1.78971,-1.19084 3.32375,-2.2229 4.85779,-3.25497 5.28391,-3.89008 11.33484,-5.16031 17.98235,-4.12825 z"
   id="path28"
   style="stroke:#12173d;stroke-width:1;stroke-dasharray:none;stroke-opacity:1" /><path
   class="st0"
   d="m 201.48838,181.99932 c -4.26122,2.14351 -8.01109,4.76336 -11.93141,7.38321 6.56228,0.63512 11.33484,-2.38168 11.93141,-7.38321 z"
   id="path29"
   style="stroke:#12173d;stroke-width:1;stroke-dasharray:none;stroke-opacity:1" /><path
   class="st0"
   d="m 213.93115,189.70009 c 0.59657,0 1.19314,0.0794 1.70449,0.0794 1.78971,0.0794 3.57942,0.63512 5.53958,0.95267 -0.17045,-0.39694 -0.25567,-0.63511 -0.34089,-0.79389 -2.13061,-2.77863 -5.11347,-4.44581 -8.26677,-6.0336 -1.70449,-0.87328 -2.64196,-0.63511 -4.00555,0.7939 -5.11346,5.55726 -10.73828,10.32062 -19.26072,10.71757 -0.93746,0.0794 -1.53404,0.55573 -2.13061,1.27023 -2.64195,3.89008 -4.51689,8.09772 -5.19869,12.62292 -0.0852,0.7145 -0.0852,1.42901 -0.85224,2.14351 -0.6818,-1.11145 -0.51135,-2.2229 -0.59657,-3.17558 -0.51135,-6.19237 -0.0852,-12.30535 2.89763,-18.10078 2.64196,-5.00153 5.62481,-9.7649 8.35199,-14.68704 2.13061,-3.96947 4.09077,-8.01833 4.43167,-12.54353 0.0852,-0.55573 -0.59657,-1.34962 0.25567,-1.58779 0.6818,-0.15878 0.93747,0.71451 1.27837,1.19084 0.17045,0.23817 0.42612,0.63512 0.42612,0.87329 0.0852,3.33435 2.47151,3.96947 5.45436,3.96947 0.51135,0 1.0227,0.0794 1.53404,0.23816 0.93747,0.15878 1.10792,-0.15877 0.85225,-0.87328 -0.59657,-1.27023 -1.19314,-2.61985 -1.87494,-3.89008 -3.1533,-5.79543 -8.09632,-10.08246 -13.6359,-13.81376 -5.02824,-3.49313 -8.52245,-7.93894 -10.90873,-13.17864 -0.17045,-0.39695 -0.42612,-0.87328 -0.68179,-1.27023 1.70448,8.57406 3.4942,17.06872 2.4715,25.96034 2.64196,-3.0168 3.74988,-6.58932 4.34645,-10.24124 3.40897,11.11452 -0.0852,21.19698 -5.11347,31.5176 1.70449,-1.34962 2.89763,-2.38168 4.26122,-3.33436 1.27837,-0.95267 2.38629,-2.14351 4.00555,-2.77862 0.0852,0.79389 -0.25567,1.03206 -0.42612,1.34962 -4.85779,6.58932 -9.28946,13.4962 -12.44276,20.9588 -0.85225,2.06413 -1.19315,2.14351 -2.81241,0.0794 -0.25567,0.39695 -0.42612,0.63512 -0.42612,0.87328 -2.04539,8.17711 -3.15331,16.513 -4.68734,24.7695 -0.17045,0.87328 0.25567,1.11145 1.19314,1.19084 3.1533,0.39695 6.3066,0.95267 9.37468,1.5084 2.13061,0.39695 2.81241,1.11145 2.81241,3.17558 0,5.00153 -1.53404,9.20917 -6.90318,11.35268 -1.70449,0.71451 -3.40898,1.58779 -4.60212,3.0168 -0.42612,0.47634 -1.10792,1.03206 -0.85224,1.66718 0.25567,0.7145 1.19314,0.63511 1.87494,0.63511 2.98285,-0.0794 5.88048,-0.15877 8.86333,-0.23816 1.19315,0 2.13061,-0.39695 2.98286,-1.11146 2.47151,-1.90534 4.68734,-3.96947 6.81795,-6.11298 2.13061,-2.06413 2.89763,-4.36642 2.81241,-7.14505 -0.0852,-4.68397 0.51134,-9.28856 1.36359,-13.89315 0.0852,-0.39694 0,-1.03206 0.76702,-1.11145 0.42612,0.87329 0.17045,1.74657 0.25567,2.61985 0.17045,1.19084 0.51135,1.66718 1.96016,1.11146 1.36359,-0.55573 2.64196,-1.19085 4.34645,-1.03207 -3.4942,2.14352 -4.34645,5.39848 -5.02824,8.81223 6.22138,-5.55726 14.14725,-5.55726 21.98789,-6.27177 -0.59657,-0.95267 -1.36359,-1.34962 -2.13061,-1.82595 -2.64195,-1.66718 -5.36913,-3.09619 -8.52244,-3.81069 -1.36359,-0.31756 -1.70449,-0.87329 -1.02269,-2.14352 1.53404,-2.77863 3.40898,-5.2397 6.47706,-6.7481 1.02269,-0.55572 1.61926,-1.19084 1.36359,-2.30229 -0.6818,-3.89008 -1.53404,-7.78016 -3.23853,-11.43208 -0.93747,-3.0168 -0.42612,-3.81069 2.89763,-3.96947 z m -24.62986,18.89468 c -2.38628,3.81069 -3.1533,8.17711 -4.51689,12.30536 -0.6818,-0.39695 -0.59657,-0.79389 -0.59657,-1.11145 -0.51135,-5.00153 -0.42612,-9.92368 0.0852,-14.92521 0.0852,-1.27023 0.6818,-2.30229 1.96016,-2.93741 3.8351,-1.74657 8.0111,-2.30229 12.1871,-3.17557 -3.15331,3.25496 -6.73273,6.03359 -9.11902,9.84428 z"
   id="path30"
   style="stroke:#12173d;stroke-width:1;stroke-dasharray:none;stroke-opacity:1" /><path
   class="st0"
   d="m 150.69464,247.65436 c 4.00554,5.08093 9.37468,8.57406 16.02218,10.5588 0.76702,0.23816 1.53404,0.23816 2.30106,0.0794 6.90318,-1.74657 12.35754,-5.39848 16.27787,-10.5588 -11.59052,4.92215 -23.09582,5.2397 -34.60111,-0.0794 z"
   id="path31"
   style="stroke:#12173d;stroke-width:1;stroke-dasharray:none;stroke-opacity:1" /><path
   d="m 306.74053,172.15503 c -2.55673,-1.98473 -4.34644,-4.68397 -5.19869,-7.78016 -0.68179,-2.54046 -1.61926,-5.00153 -1.02269,-7.542 0.0852,-0.31755 0.17045,-0.63511 0.17045,-1.03206 -0.0852,-0.79389 -1.19314,-1.5084 -1.70449,-2.14351 -2.47151,-2.77863 -3.74987,-6.35116 -3.40898,-10.08246 0.17045,-1.66718 -1.70448,-2.2229 -2.8124,-3.33435 -0.85225,-0.7939 -1.36359,-1.90535 -2.13061,-2.61985 -1.19314,-1.90535 -1.78971,-4.04886 -1.87494,-6.19238 0,-2.46107 0.3409,-4.92214 0.85225,-7.38321 0,0.15878 -0.0852,0.23816 -0.0852,0.39694 -0.0852,-2.30229 0.59657,-4.68397 0.6818,-6.98626 0.0852,-2.61986 0,-5.3191 -0.25568,-7.93895 -0.25567,-3.49313 -1.27836,-7.62138 -3.1533,-10.717567 -1.53404,-2.619851 -3.40898,-5.080923 -5.19869,-7.541994 -0.3409,-0.476337 -1.70449,-2.143515 -3.57942,-0.555726 -2.72719,2.540461 -20.96521,17.545057 -22.92537,18.418347 -0.42612,0.63511 -18.06758,-0.95268 -21.647,0.63511 -1.27837,0.55573 -1.70449,0.23817 -1.96016,-1.11145 -0.85225,-5.31909 -1.96016,-10.558792 -3.92033,-15.639714 -0.68179,-1.746567 -1.44881,-3.334356 -2.72718,-4.763365 -1.87493,-1.984735 -2.98285,-1.984735 -4.60212,0.158779 -3.23852,4.207639 -6.47705,8.335888 -9.97125,12.30536 -6.64751,7.38321 -13.80636,14.29009 -21.647,20.64125 -1.44882,1.19084 -2.81241,1.42901 -4.68734,0.79389 -8.26677,-3.17558 -16.61876,-6.03359 -24.80031,-9.60612 -0.42612,-0.15878 -0.93747,-0.7145 -1.36359,-0.15878 -0.25567,0.39695 0.0852,0.7939 0.3409,1.19084 0.85224,1.5084 2.13061,2.61985 3.40898,3.73131 0.76702,0.63511 0.68179,0.95267 -0.25568,1.27023 -3.4942,1.03206 -6.90317,2.14351 -10.22693,3.49313 -1.53404,0.71451 -2.8124,0.47634 -4.09077,-0.55572 -10.65305,-8.65345 -20.36863,-18.18018 -28.6354,-28.977141 -1.02269,-1.429009 -2.04539,-2.778629 -3.1533,-4.207639 -0.59657,-0.793894 -1.10792,-1.984735 -2.38629,-1.587788 -1.27836,0.396947 -2.47151,1.111452 -3.1533,2.381682 -2.98286,5.398481 -4.176,11.114516 -5.36914,16.909946 -0.25567,1.42901 -0.59657,0.87328 -2.13061,1.11145 -4.090771,0.55573 -11.164397,2.46107 -13.209783,3.17558 -1.022693,0.39695 -3.664649,-1.19084 -4.090771,-1.5084 -1.278367,-1.03206 -18.1528,-16.592388 -20.709532,-17.78323 -2.130611,-2.302293 -3.749874,0.396947 -3.920323,0.396947 -1.022693,1.667178 -2.045386,3.413745 -2.982855,5.160312 -1.874937,4.207641 -3.153303,8.574061 -4.090771,13.019861 -0.937469,6.35116 -1.107918,12.86109 -1.107918,19.29163 0,2.61985 -0.937468,5.16031 -2.556732,7.22444 -2.812405,3.49313 -6.56228,5.08092 -8.522441,9.36795 -1.960161,4.20764 -2.89763,8.89161 -3.323752,13.41681 -0.426122,5.31909 -5.198689,8.89161 -5.79526,14.05193 -0.426122,4.52519 0.426122,9.44734 1.789713,13.81375 2.982854,9.20918 9.204236,17.22751 17.044882,23.34049 -4.090772,-3.17558 2.982854,-13.89315 5.113464,-16.513 -0.681795,3.0168 -2.13061,6.35116 -2.13061,9.44734 -0.255673,2.46108 3.920323,18.18018 4.602118,17.94201 0.76702,-0.23817 0.340898,-1.19084 0.255674,-1.82596 -0.255674,-5.2397 1.193141,-9.92367 4.943015,-14.05192 -1.193141,6.7481 -1.704488,13.4962 -0.08522,20.2443 1.704488,6.7481 5.198689,12.54353 10.567827,17.46567 -1.193142,-3.17558 -2.89763,-6.19237 -3.238528,-9.52673 0.08522,0 0.255674,-0.0794 0.255674,-0.0794 2.727181,5.00153 6.988401,8.971 11.249622,12.70231 4.687343,4.20764 9.289461,8.41527 12.868886,13.4962 0.255673,0.39694 0.681795,1.19084 1.278366,0.95267 0.681795,-0.23817 0.255673,-0.95267 0.08522,-1.5084 -1.363591,-6.35115 -4.005548,-12.22597 -6.647505,-18.10078 -1.193141,-2.61986 -2.556732,-5.3191 -3.579425,-8.09773 2.13061,2.85802 4.261221,5.71604 6.306607,8.57406 1.022693,1.42901 2.045385,2.77863 2.982854,4.20764 0.596571,0.87328 1.193142,0.79389 1.704488,-0.0794 0.255673,-0.47634 0.681796,-0.95267 0.852244,-1.42901 1.363591,-3.65191 3.153302,-7.22443 5.539592,-10.4794 0.17044,-0.23817 0.42612,-0.63512 0.42612,-0.87328 0.0852,-2.46108 2.13061,-2.46108 4.00555,-3.0168 -0.0852,0.87328 -0.6818,1.27023 -1.10792,1.66718 -2.64196,2.9374 -5.19869,5.9542 -6.73273,9.60611 -1.70449,3.89009 -2.045387,7.85956 -0.767021,11.90842 0.681801,2.14351 1.278371,4.20764 0.426122,6.43054 -0.08522,0.23817 -0.08522,0.55573 0.340899,0.87328 1.10792,-1.27023 1.96016,-2.54046 1.53404,-4.36641 -1.960163,-7.70078 -0.0852,-14.68705 4.60212,-21.0382 0.17045,-0.23817 0.42612,-0.47634 0.76702,-0.7145 -0.85225,3.09618 -1.70449,6.11298 -2.38629,9.20917 -1.61926,8.41528 -1.19314,16.513 3.74988,23.9756 0.51134,0.79389 0.93747,2.30229 1.96016,1.98474 0.85224,-0.23817 0.0852,-1.58779 0,-2.38169 -0.25567,-6.66871 1.19314,-12.86108 5.53959,-18.25956 0.25567,-0.39695 0.42612,-0.95267 1.19314,-0.95267 -0.59657,3.65191 -1.0227,7.30382 -1.0227,10.95573 0,13.89315 4.8578,25.96034 15.3404,35.96341 0.3409,0.31756 0.68179,0.63511 1.02269,0.95267 0.25567,0 0.42612,0 0.6818,0 0.0852,0 0.17045,0 0.25567,0 -1.27837,-2.85802 -3.06808,-5.55726 -4.176,-8.41528 -0.85224,-2.06412 -1.53404,-4.12825 -1.96016,-6.35115 0.25568,0 0.3409,0 0.42612,0.0794 3.74988,7.06566 9.88604,12.14658 16.36309,16.98934 7.24408,5.39848 14.14725,11.03512 19.51639,18.18017 0.25567,0.39695 0.59657,1.03206 1.19314,0.79389 0.59657,-0.23816 0.25568,-0.87328 0.17045,-1.34962 -1.36359,-7.22443 -4.43167,-13.97253 -7.49975,-20.64124 -2.38628,-5.2397 -5.02824,-10.40002 -7.75542,-15.48094 -0.25567,-0.39695 -0.68179,-0.79389 -0.42612,-1.5084 3.23853,4.12825 6.39183,8.09772 9.63036,12.14658 2.47151,3.0168 4.85779,6.0336 7.24407,9.12979 1.19315,1.50839 1.27837,1.50839 2.47151,0 5.36914,-6.7481 10.8235,-13.41682 16.19264,-20.08553 0.42612,-0.55572 0.85224,-1.03206 1.36359,-1.58778 0.17045,0.79389 -0.25567,1.19084 -0.59657,1.58778 -4.68734,8.73284 -9.20424,17.62445 -12.78366,26.91302 -1.19314,3.17557 -2.38629,6.43054 -2.98286,9.76489 -0.0852,0.31756 -0.34089,0.7939 0.17045,1.03207 0.42612,0.23816 0.76702,-0.23817 0.93747,-0.55573 5.96571,-8.09772 14.14725,-14.05193 22.15835,-20.16491 5.79526,-4.44581 10.90872,-9.52673 14.40292,-15.79849 -0.68179,5.47786 -3.32375,10.32062 -6.13615,15.08398 3.92032,-0.79389 12.44276,-13.17864 15.16994,-21.83209 2.72718,-8.57405 2.72718,-17.38628 1.44882,-26.27789 3.06807,2.85802 5.02824,6.27176 6.3066,10.16184 1.36359,3.89009 1.19314,7.85956 0.76702,11.90842 3.4942,-1.82596 6.81795,-11.35269 6.90318,-16.90995 0.0852,-6.27176 -1.36359,-12.22597 -3.40898,-18.18017 4.26122,4.04886 6.13616,8.971 6.56228,14.52826 0.0852,1.74656 0.25568,3.49313 -0.25567,5.2397 -0.42612,1.27023 0.0852,2.30229 0.76702,3.49313 1.02269,1.82596 2.30106,3.33436 3.74987,5.08093 0.59657,-0.7939 0.3409,-1.42901 0.17045,-1.98474 -0.42612,-1.42901 -0.76702,-2.93741 -1.53404,-4.20764 -1.61926,-2.77863 -1.02269,-5.71604 -0.76702,-8.57406 0.42612,1.11146 1.27837,2.06413 1.96016,3.0168 0.76702,1.19084 1.44882,1.11145 2.21584,0.0794 1.70449,-2.46107 3.40898,-4.84275 5.11346,-7.30382 2.21584,-3.0168 4.43167,-6.0336 6.73273,-9.0504 -4.34644,9.28856 -9.11901,18.41835 -10.90872,28.58019 0.93747,0.0794 1.10791,-0.39695 1.36359,-0.7145 3.74987,-5.55726 8.77811,-10.16185 13.9768,-14.52827 4.51689,-3.81069 8.60767,-7.93894 11.42007,-13.09925 -0.42612,3.81069 -2.30106,7.06566 -3.74987,10.63818 5.53958,-5.08092 9.28946,-11.11452 10.8235,-18.25956 1.53404,-7.06566 1.19314,-14.13132 0.17045,-21.19698 2.72718,2.54046 4.34644,5.55726 5.19869,8.97101 0.59657,2.2229 0.42612,4.4458 0.25567,6.7481 0,0.31756 -0.25567,0.7145 0.17045,0.87328 0.42612,0.15878 0.76702,-0.23817 0.93747,-0.63511 1.19314,-2.46108 2.4715,-4.92215 3.1533,-7.542 0.0852,-0.31756 1.96016,-8.89161 -2.55673,-20.40308 4.26122,3.81069 5.11346,9.52673 5.11346,14.76643 0,0.63512 0.0852,5.31909 -0.42612,6.0336 0.42612,-0.63512 1.02269,-1.27023 1.53404,-1.74657 0.93747,-0.87328 2.04539,-1.58779 3.23853,-2.14351 0,-0.0794 0,-0.15878 0,-0.23817 -0.0852,-3.0168 1.53404,-6.35115 3.74987,-8.57406 -0.93747,-1.82595 -1.44881,-3.81069 -1.44881,-5.87481 -0.0852,-2.22291 0.85224,-4.68398 2.21583,-6.7481 -0.51135,-1.42901 -0.85224,-2.93741 -0.85224,-4.44581 -0.0852,-3.25497 1.87493,-6.90688 4.26122,-9.20917 1.70449,-1.74657 3.74987,-2.85802 5.88048,-3.41375 z m -47.47,-52.63518 c 5.28392,-7.06566 10.56783,-14.05193 16.02219,-21.038195 1.44882,-1.905346 3.57943,-1.587788 4.68735,0.635116 1.19314,2.461069 1.70449,5.160309 2.04538,7.780159 0.85225,6.7481 1.27837,13.41681 -0.25567,20.08552 -0.3409,1.5084 -0.85224,3.0168 -1.53404,4.36642 -0.3409,0.71451 -0.76702,0.95268 -1.44881,0.23817 -0.42613,-0.47634 -1.0227,-0.95267 -1.61927,-1.27023 -1.96016,-1.11145 -2.13061,-1.34962 -0.25567,-2.46107 2.98285,-1.90535 3.40897,-4.68398 3.57942,-7.542 0.25568,-5.87481 -0.34089,-11.59085 -1.10791,-17.30689 0,-0.23817 -0.17045,-0.39695 -0.42613,-0.87328 -3.4942,5.16031 -6.81795,10.16184 -10.1417,15.16338 -0.42612,0.7145 -0.42612,1.27023 0.17045,1.98473 1.02269,1.19084 2.04538,2.38168 3.23853,3.89008 -2.64196,-0.0794 -4.60212,-1.11145 -7.24408,-1.42901 1.70449,2.3023 4.09077,3.65192 5.79526,6.19238 -2.98285,-1.5084 -5.79526,-2.14352 -8.43722,-3.09619 -1.78971,-0.63511 -2.55673,-2.46107 -3.4942,-3.96947 -0.25567,-0.47634 0.17045,-0.95267 0.42612,-1.34962 z m -31.70348,39.13898 c 1.36359,-3.17558 2.55674,-6.03359 3.8351,-8.971 0.93747,4.92214 -0.0852,7.4626 -3.8351,8.971 z m -32.21482,-24.05499 c 5.19869,-6.7481 10.31215,-13.4962 15.51084,-20.16491 2.47151,-3.17558 4.94302,-6.35116 7.49975,-9.60612 2.38628,-3.0168 5.36914,-2.61985 7.07362,0.79389 1.36359,2.77863 1.87494,5.79543 2.38629,8.73284 1.96016,10.32062 2.55673,20.56186 0.59657,30.88248 -0.51135,2.61985 -1.44882,5.16031 -2.47151,7.78016 -0.42612,1.19084 -0.85224,1.19084 -1.70449,0.23817 -1.19314,-1.34962 -2.64195,-2.30229 -4.34644,-3.0168 -1.0227,-0.39694 -1.10792,-0.87328 -0.25568,-1.5084 0.85225,-0.55572 1.53404,-1.27023 2.30106,-1.74656 2.64196,-1.58779 3.74988,-3.96947 4.09077,-6.90688 1.0227,-10.00307 -0.17044,-19.84736 -1.96016,-30.24737 -1.44881,2.14352 -2.64195,3.89008 -3.8351,5.71604 -3.74987,5.47787 -7.49974,10.87635 -11.24962,16.27483 -0.76702,1.11145 -0.76702,1.90535 0.17045,2.93741 1.70449,1.82595 3.32375,3.81069 4.85779,6.03359 -3.23852,-0.95267 -6.56228,-1.90534 -9.8008,-2.85802 -0.0852,0.15878 -0.25568,0.31756 -0.3409,0.47634 2.98285,2.93741 6.47705,5.39848 9.03379,8.73284 -0.6818,0.15877 -0.93747,-0.23817 -1.3636,-0.39695 -3.40897,-1.82596 -6.90317,-3.0168 -10.65305,-3.81069 -1.19314,-0.23817 -2.13061,-0.71451 -2.8124,-1.74657 -0.85225,-1.11145 -1.70449,-2.30229 -2.64196,-3.25497 -1.10792,-1.19084 -1.10792,-2.06412 -0.0852,-3.33435 z M 108.679,108.24655 c 0.42612,-1.42901 0.85224,-2.85802 1.96016,-4.04886 1.70449,-2.06412 3.92033,-2.06412 5.53959,0.0794 7.92587,10.24124 15.93696,20.48247 23.86283,30.72371 0.76702,0.95267 0.6818,1.58778 -0.0852,2.61985 -2.21584,3.17557 -4.77257,5.55726 -9.11901,6.11298 -2.98286,0.39695 -5.71004,1.90535 -8.35199,3.33436 2.4715,-3.33436 5.9657,-5.87482 8.77811,-8.97101 -3.4942,0.47634 -6.73273,1.58779 -10.4826,2.77863 2.04538,-2.46107 3.74987,-4.52519 5.53958,-6.58932 0.6818,-0.79389 0.76702,-1.34962 0.17045,-2.2229 -5.02824,-7.22444 -10.1417,-14.36949 -14.91427,-21.7527 -0.0852,-0.0794 -0.17045,-0.0794 -0.42612,-0.23817 -0.6818,1.98474 -0.85225,4.04886 -1.10792,6.0336 -1.19314,8.25649 -1.87494,16.59238 -0.59657,24.92827 0.25567,2.06413 1.19314,3.65191 2.89763,4.84276 1.19314,0.87328 2.38628,1.82595 3.57943,2.69924 0.76702,0.63511 0.85224,0.95267 -0.17045,1.34962 -1.78972,0.7145 -3.40898,1.82595 -4.68735,3.17557 -0.93746,1.03206 -1.19314,0.55573 -1.53404,-0.39694 -1.96016,-4.76337 -3.32375,-9.7649 -3.57942,-14.84583 -0.6818,-9.84428 -0.17045,-19.84735 2.72718,-29.61225 z m -5.11346,40.09166 c 1.19314,3.09618 2.4715,6.11298 3.83509,9.60612 -2.4715,-1.19084 -3.92032,-2.3023 -3.83509,-4.68398 0.0852,-1.58779 -0.17045,-3.25497 -0.25568,-4.84275 0.0852,0 0.17045,0 0.25568,-0.0794 z M 59.163618,100.70456 c 0.255673,-0.952674 0.596571,-1.825958 1.022693,-2.619852 1.193142,-2.143514 2.982854,-2.302293 4.516894,-0.396947 3.238527,4.128249 6.39183,8.256499 9.630358,12.384749 2.13061,2.77863 4.261221,5.63665 6.477055,8.41528 0.852244,1.03206 0.852244,1.82595 0.08522,2.93741 -1.363591,1.82595 -2.812406,3.01679 -5.283914,3.33435 -2.13061,0.23817 -4.005547,1.11145 -5.965709,1.98474 1.53404,-2.06413 3.66465,-3.65192 5.454363,-5.63665 -2.386284,-0.0794 -4.43167,0.79389 -6.903178,1.34962 1.193142,-1.5084 2.130611,-2.77863 3.153304,-3.96947 0.681795,-0.7939 0.681795,-1.42901 0.08522,-2.3023 -3.238528,-4.68397 -6.306606,-9.36795 -9.545134,-14.05192 -0.170449,-0.23817 -0.255673,-0.71451 -0.76702,-0.55573 -0.426122,0.0794 -0.340897,0.55573 -0.426122,0.87329 -0.937468,6.19237 -1.278366,12.38474 -1.107917,18.65651 0.08522,2.06412 0.852244,3.65191 2.641957,4.92214 0.681795,0.39695 1.193141,1.03206 1.874937,1.5084 0.596571,0.47634 0.596571,0.95267 -0.170449,1.27023 -1.022693,0.39695 -1.874937,0.95267 -2.556732,1.74657 -0.852244,0.87328 -1.363591,0.55572 -1.704489,-0.39695 -1.193141,-2.93741 -2.045385,-5.9542 -2.215834,-9.12978 -0.426122,-6.7481 -0.08523,-13.57559 1.704488,-20.32369 z m -4.431669,77.32529 c 0.255673,0.55572 0.852244,0.23817 1.278366,0.23817 3.153303,0 3.153303,0 2.13061,2.77863 -0.08522,0.15877 -0.170449,0.31755 -0.170449,0.47633 -0.681795,2.77863 -1.789712,5.16031 -5.283913,5.95421 -1.619264,0.39695 -2.89763,1.82595 -4.175996,2.93741 1.278366,-3.65192 3.579425,-6.7481 7.073626,-9.60612 -3.579426,-0.23817 -6.56228,0.63511 -10.056481,0 5.965709,-2.46107 9.971256,-6.43054 13.550682,-10.95574 -0.76702,2.61985 -2.130611,5.00153 -3.749875,7.14505 -0.255673,0.39694 -0.767019,0.63511 -0.59657,1.03206 z m -0.76702,-34.69318 c -0.852244,0.55573 -1.363591,1.27023 -1.874937,2.14352 -1.960162,3.81069 -3.749874,7.70077 -5.965709,11.35268 -0.255673,0.39695 -0.681795,0.7939 -0.340898,1.19085 0.340898,0.39694 1.022693,0.23816 1.448815,0 1.363591,-0.71451 2.727182,-1.42901 4.090772,-2.22291 -2.982854,6.35116 -6.391831,12.38475 -13.976803,15.08399 1.36359,-1.42901 2.982854,-2.61985 4.346445,-4.12825 1.534039,-1.74657 2.812405,-3.65191 4.005547,-5.55726 0.681795,-1.11145 0.255673,-1.42901 -0.937469,-1.5084 -1.534039,-0.0794 -2.13061,-0.95267 -1.36359,-2.14351 2.727181,-4.20764 4.431669,-8.81223 6.56228,-13.25803 0.852244,-1.82596 2.045385,-3.17558 3.835098,-4.12825 4.687343,-2.61985 9.715583,-4.5252 14.914272,-5.87482 -3.153303,1.82596 -6.306606,3.57252 -9.374685,5.39848 -1.789713,1.27023 -3.494201,2.46107 -5.369138,3.65191 z m 6.988402,7.46261 c 4.687342,-2.46107 9.800807,-3.7313 15.08472,-4.20764 0.852244,-0.0794 1.704489,-0.0794 2.301059,0.47634 2.641957,2.30229 4.943016,4.68397 6.903178,7.70077 -7.584973,-7.22444 -16.192638,-6.43054 -25.31165,-3.09619 0.255673,-0.55572 0.681795,-0.63511 1.022693,-0.87328 z m 23.77761,7.78016 c -3.579425,-0.23817 -6.732728,-0.39695 -8.096319,-3.81069 -0.08522,-0.31756 -0.511346,-0.79389 -0.255673,-1.03206 0.426122,-0.39695 0.852244,0 1.193142,0.23817 2.301059,1.42901 4.602118,2.9374 7.15885,4.60458 z m -3.749874,19.84736 c -1.022693,0.63511 0.08523,2.06412 -1.107917,2.2229 -0.76702,0.0794 -1.619264,-0.39695 -2.471508,-0.71451 -0.340898,-0.0794 -0.681795,-0.23816 -1.193142,0.15878 1.874937,1.34962 2.471508,3.33436 2.727181,5.47787 -2.13061,-1.5084 -4.516893,-2.54046 -7.073626,-3.0168 -2.471508,-0.55572 -5.113464,-0.63511 -8.181543,-0.87328 1.960161,-1.66718 3.749874,-2.61985 5.79526,-3.41374 0.426122,-0.23817 1.022693,-0.39695 1.448815,-0.55573 1.534039,-0.31756 1.534039,-1.11145 0.852244,-2.14351 -1.022693,-1.66718 -2.301059,-3.17558 -4.175996,-4.12825 -1.193142,-0.55573 -1.448815,-1.27023 -1.193142,-2.38169 0.511346,-2.77863 1.36359,-5.47787 2.556732,-8.01833 0.681795,-1.42901 0.255673,-2.14351 -1.448815,-2.30229 -1.789712,-0.23817 -3.579425,0.15878 -5.283913,0.63512 -0.340898,-0.71451 0.08522,-0.95268 0.340897,-1.27023 0.852244,-0.95268 1.960162,-1.74657 3.068079,-2.46108 3.408977,-2.06412 3.408977,-1.98473 6.136158,0.63512 3.579425,3.49313 7.584972,6.43054 13.039335,6.82749 1.107917,0.0794 1.619263,0.63511 2.13061,1.42901 1.619264,2.69924 2.641957,5.63665 3.408976,8.57405 0.08523,0.47634 0,1.03207 0.681796,1.34962 0.511346,-0.39694 0.426122,-0.95267 0.426122,-1.429 0.596571,-4.76337 0.255673,-9.36796 -2.130611,-13.73437 -2.301059,-4.20764 -5.02824,-8.2565 -7.073626,-12.70231 -1.107917,-2.38168 -2.215834,-4.68398 -2.301059,-7.38322 0,-0.39694 0,-0.87328 -0.511346,-0.87328 -0.426122,-0.0794 -0.596571,0.31756 -0.76702,0.63512 -0.170449,0.23816 -0.340898,0.47633 -0.426122,0.79389 -0.170449,2.46107 -1.960161,2.61985 -4.090772,2.77863 -1.534039,0.0794 -1.704488,-0.31756 -1.107917,-1.42901 1.704488,-3.41374 4.090772,-6.35115 7.244075,-8.81222 1.704488,-1.42901 3.494201,-2.77863 5.369138,-4.04886 3.238527,-2.14352 5.283913,-5.08093 7.073626,-8.33589 -0.511347,2.85802 -1.022693,5.71603 -1.619264,8.57405 -0.511346,2.85802 -0.255673,5.71604 -0.426122,8.97101 -1.789713,-2.3023 -2.471508,-4.5252 -2.89763,-7.06566 -1.534039,3.57252 -1.534039,7.22444 -0.852244,10.95574 0.681795,3.65191 2.13061,7.22444 3.494201,10.79696 -1.619264,-1.27023 -3.238528,-2.46107 -4.857792,-3.7313 -0.596571,0.47633 -0.170448,0.79389 -0.08522,0.95267 3.579425,5.08092 6.817953,10.40001 9.119012,16.11605 0.255673,0.63512 0.426122,1.42901 1.534039,0.87328 0.596571,-0.31755 0.681796,0.39695 0.852244,0.7939 0.340898,1.27023 0.170449,2.61985 -0.255673,3.89008 -2.471508,7.54199 -5.880484,14.68704 -10.567827,21.19697 -0.340897,0.47634 -1.022693,0.95268 -0.681795,1.58779 0.340898,0.63512 1.193142,0.63512 1.874937,0.63512 1.107917,0.0794 2.215835,0 3.66465,0 -0.852244,1.03206 -1.448815,1.90534 -2.130611,2.77863 -0.426122,0.63511 -1.022693,0.47633 -1.534039,0 -1.704488,-1.82596 -3.494201,-3.57253 -4.857791,-5.63665 -0.426123,-0.63512 -0.426123,-1.34962 -0.426123,-2.06413 -0.255673,-3.33435 -0.426122,-6.66871 -0.681795,-10.00306 0,-0.39695 0,-0.87329 -0.426122,-1.11145 z m 0.170449,28.42141 c 1.448815,-1.11146 2.812406,-2.14352 4.175996,-3.17558 3.749874,-3.0168 6.477055,-6.7481 9.119012,-10.63818 0.596571,-0.7939 0.426122,-1.19084 -0.681795,-1.19084 -0.681795,0 -1.278366,0 -1.960162,0 -0.255673,0 -0.852244,-0.0794 -0.681795,-0.23817 0.937469,-1.42901 -0.511346,-1.11145 -1.193142,-1.34962 4.175996,-6.58932 6.647504,-13.73437 9.800808,-20.64125 1.022692,-2.38168 2.641952,-4.04886 4.943012,-5.39848 6.13616,-3.57252 12.78367,-6.0336 19.60162,-8.17711 0.0852,-0.0794 0.25567,0 0.76702,0 -3.15331,1.82596 -6.13616,3.49313 -8.94857,5.39848 -3.92032,2.46107 -7.75542,5.00153 -11.59052,7.54199 -0.68179,0.47634 -1.19314,1.11146 -1.44881,1.82596 -2.81241,5.95421 -5.539587,11.9878 -8.863339,17.78323 -0.255673,0.39695 -0.681795,0.95267 -0.170449,1.34962 0.426122,0.39695 1.022693,0.0794 1.448815,-0.15878 2.386284,-1.27023 4.602123,-2.77863 6.817953,-4.5252 -0.17045,6.90688 -13.039335,20.16492 -21.135654,21.59393 z m 6.050933,1.27023 c 0.08522,-0.39695 0.596571,-0.47634 0.937469,-0.55573 1.704488,-0.31756 3.238527,-1.03206 4.772567,-1.58779 0.852244,-0.23817 1.619263,-0.63511 2.812405,-0.15878 -1.960161,1.42901 -3.749874,2.61985 -5.880484,3.33436 -0.681795,0.23817 -1.278366,0.31756 -1.874937,0 -0.426122,-0.23817 -0.852244,-0.55573 -0.76702,-1.03206 z m 18.493701,7.70077 c 0.25567,0.55573 0.93746,0.23817 1.44881,0.15878 4.26122,-0.47634 4.34645,-0.39695 3.1533,3.33435 -0.68179,1.98474 -1.27836,3.96947 -1.96016,5.95421 -0.25567,0.79389 -0.59657,1.34962 -1.53404,1.58779 -5.02824,1.27023 -8.948559,3.96947 -11.760965,8.09772 0.852244,-3.09619 2.215835,-5.95421 4.090772,-8.57406 1.874933,-2.61985 4.090773,-4.84275 6.817953,-6.82749 -5.965709,-0.23817 -11.760969,0.7939 -17.811902,0.39695 9.886031,-2.93741 18.152802,-7.78016 23.692382,-16.27483 -1.10791,3.96947 -2.98285,7.4626 -5.53958,10.79696 -0.25568,0.47634 -0.93747,0.79389 -0.59657,1.34962 z m 13.9768,-39.29776 c 4.85779,-1.82596 9.97126,-2.77863 15.16994,-3.49313 1.0227,-0.0794 1.96017,0 2.81241,0.7145 3.57943,3.17558 6.6475,6.7481 9.54513,10.4794 -2.55673,-1.58779 -5.11346,-3.17557 -7.67019,-4.68397 -4.68735,-2.85802 -9.71559,-3.0168 -14.91427,-2.3023 -4.34645,0.63512 -8.52245,1.82596 -12.69844,3.25497 2.38628,-1.74657 5.02824,-2.93741 7.75542,-3.96947 z m 26.24912,12.86108 c -5.79526,1.11146 -10.8235,-1.98473 -11.59052,-6.98626 1.70449,0.31755 8.94856,4.68397 11.59052,6.98626 z m -1.96016,47.23671 c -0.6818,-0.87329 -0.85225,-1.82596 -0.85225,-2.77863 -0.0852,-5.31909 -0.42612,-10.63819 -1.36359,-15.87789 -0.0852,-0.55572 -0.0852,-1.11145 -0.85224,-1.74656 -0.17045,1.11145 -0.42612,2.06412 -0.42612,2.9374 0,1.42901 -0.6818,1.42901 -1.87494,0.95268 -1.27837,-0.55573 -2.55673,-1.03206 -4.26122,-0.95268 3.40897,2.22291 4.26122,5.55726 5.02824,9.12979 -6.13616,-5.87482 -14.14725,-6.0336 -22.49925,-6.58932 2.55674,-2.06413 5.02824,-3.49314 7.75543,-4.5252 1.10791,-0.39695 2.21583,-0.79389 3.32375,-1.11145 1.36359,-0.31756 1.44881,-0.95268 0.85224,-2.06413 -1.53404,-2.85802 -3.4942,-5.39848 -6.6475,-6.82749 -1.10792,-0.55572 -1.44882,-1.19084 -1.27837,-2.30229 0.59657,-4.28703 1.70449,-8.41528 3.57943,-12.30536 0.93747,-1.98473 0.68179,-2.30229 -1.61927,-2.69924 -2.8124,-0.39695 -5.53958,0.31756 -8.69289,1.11145 1.19314,-1.90534 2.64196,-3.0168 4.09077,-4.20764 1.70449,-1.34962 3.74988,-2.30229 5.79526,-3.17557 1.0227,-0.39695 1.70449,-0.31756 2.38629,0.55572 1.96016,2.46107 4.51689,4.5252 6.90318,6.58932 3.40897,2.77863 7.49974,4.28703 11.93141,4.68398 1.70449,0.15878 2.64196,0.87328 3.40898,2.14351 2.30106,3.89009 3.92032,7.93895 4.68734,12.30536 0.0852,0.55573 0.0852,1.11145 0.59657,1.5084 0.51135,0 0.59657,-0.39695 0.59657,-0.63511 0.42613,-4.20764 0.6818,-8.41528 0.0852,-12.62292 -0.25567,-2.2229 -1.10792,-4.20764 -2.04539,-6.27176 -2.64195,-5.63665 -6.05093,-10.87635 -9.03379,-16.43361 -2.21583,-4.12825 -4.26122,-8.2565 -4.26122,-13.01987 0,-0.39694 0.0852,-0.87328 -0.42612,-0.95267 -0.42612,-0.0794 -0.68179,0.39695 -0.93747,0.63512 -0.76702,1.03206 -1.36359,2.2229 -1.44881,3.49313 -0.0852,0.95267 -0.6818,1.27023 -1.53404,1.42901 -1.53404,0.15878 -2.98286,0.31756 -4.51689,0.63511 -1.44882,0.23817 -1.44882,-0.31755 -1.0227,-1.34962 1.96016,-4.28702 4.60212,-8.1771 8.0111,-11.51146 2.30106,-2.30229 4.85779,-4.36642 7.58497,-6.19237 5.11346,-3.41375 8.35199,-8.09772 10.73828,-13.33743 0.17044,-0.39694 0.42612,-0.87328 0.68179,-1.27023 -1.70449,8.81223 -3.66465,17.62445 -2.30106,26.75424 -1.02269,-0.7939 -2.21583,-2.77863 -3.06808,-4.76337 -0.76702,-1.82596 -0.85224,-3.7313 -1.44881,-5.63665 -1.61927,1.58779 -1.96016,10.24124 -0.85225,15.71911 1.10792,5.31909 3.32376,10.32062 5.79526,15.56032 -2.8124,-2.14351 -5.02824,-4.20764 -7.75542,-5.87481 -0.25567,0.79389 0.25568,1.27023 0.59657,1.66717 4.68735,6.7481 9.11902,13.4962 12.18709,21.11759 0.42613,0.95267 0.76702,1.90534 1.96017,0.39694 0.76702,-1.03206 1.02269,0.0794 1.19314,0.55573 0.68179,2.77863 1.27836,5.55726 1.78971,8.41528 0.93747,5.16031 1.70449,10.32062 2.64196,15.40154 0.25567,1.27023 -0.17045,1.66718 -1.36359,1.82596 -2.98286,0.39695 -5.88049,0.95267 -8.86334,1.42901 -1.70449,0.23817 -2.47151,1.27023 -2.64196,2.85802 -0.25567,5.16031 1.27837,9.44734 6.81795,11.74963 1.96016,0.7939 3.8351,1.90535 5.02824,3.7313 0.59657,0.87329 0.42613,1.27024 -0.76702,1.27024 -3.40897,-0.0794 -6.81795,-0.0794 -10.22693,-0.0794 -0.85224,0 -1.53403,-0.31756 -2.30105,-0.7939 -3.32376,-2.69924 -6.22139,-5.55726 -8.86334,-8.65344 z m 24.97075,21.67331 c -0.76702,0.15877 -1.53404,0.0794 -2.30106,-0.0794 -6.56228,-1.98474 -11.93142,-5.47787 -16.02219,-10.5588 11.5053,5.31909 23.09582,5.00154 34.60111,0.0794 -4.00555,5.16032 -9.37468,8.81223 -16.27786,10.5588 z m 42.44176,-64.86116 c 1.70448,3.65192 2.55673,7.542 3.23852,11.43208 0.17045,1.11145 -0.34089,1.82596 -1.36359,2.30229 -2.98285,1.5084 -5.02824,3.89008 -6.47705,6.7481 -0.6818,1.27023 -0.25568,1.82596 1.02269,2.14352 3.06808,0.79389 5.96571,2.14351 8.52244,3.81069 0.76702,0.47634 1.53404,0.95267 2.13061,1.82596 -7.84064,0.63511 -15.76651,0.7145 -21.9879,6.27176 0.6818,-3.49313 1.53404,-6.7481 5.02824,-8.81223 -1.70448,-0.0794 -2.98285,0.47634 -4.34644,1.03207 -1.36359,0.55572 -1.70449,0.0794 -1.96016,-1.11145 -0.0852,-0.87329 0.0852,-1.74657 -0.25568,-2.61986 -0.76702,0.0794 -0.68179,0.71451 -0.76702,1.11146 -0.85224,4.60458 -1.44881,9.20917 -1.36359,13.89314 0.0852,2.77863 -0.76702,5.08093 -2.8124,7.14505 -2.21584,2.14352 -4.43167,4.20764 -6.81795,6.11299 -0.85225,0.7145 -1.87494,1.11145 -2.98286,1.11145 -2.98285,0.0794 -5.88048,0.15878 -8.86334,0.23817 -0.68179,0 -1.53404,0.15877 -1.87493,-0.63512 -0.25568,-0.7145 0.42612,-1.19084 0.85224,-1.66718 1.19314,-1.42901 2.89763,-2.30229 4.60212,-3.01679 5.36914,-2.14352 6.90318,-6.35116 6.90318,-11.35269 0,-2.06413 -0.6818,-2.77863 -2.81241,-3.17558 -3.1533,-0.63511 -6.22138,-1.11145 -9.37469,-1.5084 -0.85224,-0.0794 -1.36359,-0.31755 -1.19314,-1.19084 1.44882,-8.2565 2.64196,-16.59239 4.68735,-24.76949 0.0852,-0.23817 0.25567,-0.47634 0.42612,-0.87329 1.61926,1.98474 1.96016,1.98474 2.8124,-0.0794 3.15331,-7.4626 7.58498,-14.36948 12.44277,-20.9588 0.25567,-0.31756 0.51134,-0.63512 0.42612,-1.34962 -1.61926,0.63511 -2.72718,1.82595 -4.00555,2.77863 -1.36359,0.95267 -2.55673,1.98473 -4.26122,3.33435 5.02824,-10.32062 8.52244,-20.40308 5.11347,-31.5176 -0.6818,3.65192 -1.70449,7.22444 -4.34645,10.24124 1.02269,-8.81223 -0.68179,-17.30689 -2.47151,-25.96034 0.25568,0.39695 0.42613,0.87328 0.6818,1.27023 2.38628,5.31909 5.88048,9.7649 10.90872,13.17864 5.45437,3.73131 10.48261,8.09772 13.63591,13.81376 0.68179,1.27023 1.27836,2.61985 1.87494,3.89008 0.25567,0.71451 0.0852,1.11145 -0.85225,0.87329 -0.51134,-0.0794 -1.02269,-0.23817 -1.53404,-0.23817 -2.98285,0.0794 -5.28391,-0.63512 -5.45436,-3.96947 0,-0.31756 -0.25567,-0.63512 -0.42612,-0.87329 -0.3409,-0.47633 -0.6818,-1.27023 -1.27837,-1.19084 -0.85224,0.23817 -0.25567,1.03207 -0.25567,1.58779 -0.3409,4.5252 -2.30106,8.57406 -4.43167,12.54353 -2.64196,4.92214 -5.71004,9.68551 -8.35199,14.68704 -2.98286,5.79543 -3.40898,11.82902 -2.89763,18.10079 0.0852,0.95267 -0.0852,2.06412 0.59657,3.17557 0.68179,-0.7145 0.68179,-1.42901 0.85224,-2.14351 0.76702,-4.5252 2.64196,-8.73284 5.19869,-12.62292 0.51135,-0.79389 1.19314,-1.27023 2.13061,-1.27023 8.52244,-0.39695 14.14725,-5.16031 19.26072,-10.71757 1.36359,-1.42901 2.30106,-1.58779 4.00555,-0.79389 3.06807,1.58778 6.13615,3.33435 8.26676,6.03359 0.0852,0.15878 0.17045,0.39695 0.3409,0.7939 -1.96016,-0.31756 -3.66465,-0.87329 -5.53959,-0.95268 -0.59657,0 -1.19314,-0.0794 -1.70448,-0.0794 -3.66465,0.39695 -4.176,1.19084 -2.89763,3.96947 z m -18.40848,-12.14658 c -1.44881,1.03207 -2.98285,2.06413 -4.85779,3.25497 0.42612,-1.11145 1.02269,-1.66718 1.53404,-2.30229 2.47151,-2.85802 5.02824,-5.63665 7.84065,-8.17711 0.85224,-0.71451 1.70449,-1.19084 2.8124,-1.03206 7.41453,0.87328 14.48815,2.46107 21.13566,5.87481 1.02269,0.47634 1.87493,1.11145 2.8124,1.58779 -4.43167,-1.27023 -8.77811,-2.61985 -13.29501,-3.33436 -6.56228,-0.87328 -12.61321,0.39695 -17.98235,4.12825 z m 8.52244,0.71451 c -0.51134,5.00153 -5.36913,7.93894 -11.93141,7.38321 3.92032,-2.61985 7.58497,-5.31909 11.93141,-7.38321 z m 33.40797,57.08099 c -1.10791,-1.66718 -2.4715,-3.17558 -3.74987,-4.68398 -1.36359,-1.5084 -2.98286,-2.77863 -4.34645,-4.68397 2.55674,0.31755 4.26122,1.27023 5.62482,2.85802 2.8124,3.49313 4.09077,7.54199 4.85779,11.82902 -0.6818,-1.90535 -1.36359,-3.65191 -2.38629,-5.31909 z m -4.77256,-19.37102 c 5.36913,3.65191 8.60766,8.57406 10.31215,14.44887 -2.98285,-3.57252 -6.81795,-6.03359 -11.5053,-7.22443 -0.76702,-0.23817 -1.10791,-0.71451 -1.36359,-1.42901 -0.85224,-2.61985 -1.70448,-5.39848 -2.64195,-8.01833 -0.42612,-1.42901 0.0852,-1.82596 1.53404,-1.74657 0.76702,0.0794 1.53404,0.15878 2.30106,0.23817 0.51134,0.0794 1.19314,0.23817 1.53404,-0.15878 0.34089,-0.47634 -0.25568,-0.95267 -0.51135,-1.27023 -2.30106,-2.69924 -3.92032,-5.71604 -5.19869,-8.97101 -0.17045,-0.39694 -0.25567,-0.79389 -0.25567,-1.27023 5.53958,8.2565 13.80635,12.86109 23.52193,15.63972 -5.9657,0.39695 -11.84619,-0.15878 -17.72667,-0.23817 z m 16.27786,-5.63665 c -1.10792,0.55573 -1.70449,-0.39694 -2.47151,-0.95267 -0.68179,-0.39695 -1.96016,-0.63512 -1.70449,-1.42901 0.25568,-0.79389 1.53404,-0.55573 2.38629,-0.55573 2.72718,0 5.28391,-0.79389 7.75542,-1.98473 -1.53404,2.14351 -3.57943,3.7313 -5.96571,4.92214 z M 233.44754,185.1749 c 2.13061,1.58778 4.09077,3.01679 6.3066,4.36641 0.59658,0.31756 1.27837,0.95268 1.96017,0.47634 0.76702,-0.55573 0.0852,-1.27023 -0.25568,-1.74657 -3.06808,-5.71604 -5.79526,-11.51146 -8.60766,-17.30689 -0.42612,-0.79389 -1.0227,-1.42901 -1.78972,-1.98474 -6.6475,-4.60458 -13.46545,-8.89161 -20.53908,-12.7023 0.3409,-0.39695 0.6818,-0.0794 1.02269,0 6.81796,1.98473 13.46546,4.60458 19.60162,8.09772 2.47151,1.34962 4.09077,3.09619 5.11346,5.55726 2.81241,6.58932 5.45437,13.33742 9.20424,19.52979 0.17045,0.31756 0.6818,0.71451 -0.0852,1.03207 -1.10792,0.47633 -1.10792,0.47633 -0.51135,1.50839 -0.17045,0.0794 -0.25567,0.15878 -0.42612,0.15878 -1.0227,0.23817 -2.47151,-0.55572 -2.98286,0.31756 -0.42612,0.71451 0.93747,1.5084 1.44882,2.30229 3.1533,4.5252 7.07362,8.41528 12.01664,11.59086 -7.24407,-0.0794 -19.43117,-12.14658 -21.47655,-21.19697 z m 38.43621,-23.41988 c 1.19314,2.30229 1.78971,4.76336 2.30106,7.22443 0.25567,1.42901 0.17045,2.61986 -1.53404,3.41375 -1.78972,0.87328 -2.89763,2.46107 -3.92033,4.20764 -0.59657,0.95267 -0.25567,1.42901 0.85225,1.82596 2.8124,0.79389 5.28391,2.06412 7.6702,4.04886 -5.79526,0.0794 -11.24963,0.23816 -15.76652,3.7313 -0.17045,-1.66718 0.0852,-2.14352 2.55673,-5.55726 -0.59657,-0.55573 -1.19314,-0.0794 -1.53404,0.0794 -1.53404,0.7145 -2.30106,0.39695 -2.47151,-1.19084 0,-0.23817 -0.0852,-0.39695 -0.25567,-0.63512 -0.68179,0.31756 -0.68179,0.95267 -0.68179,1.42901 -0.42613,3.17558 -0.85225,6.43054 -0.76702,9.60612 0,0.63512 0.0852,1.34962 -0.25568,1.98474 -1.96016,2.77863 -4.09077,5.39848 -6.9884,7.30382 -1.78971,1.27023 -2.30106,-0.63511 -3.06808,-1.42901 -0.85224,-0.79389 -0.42612,-1.42901 0.51135,-1.90534 1.61926,-0.7939 1.61926,-2.3023 1.96016,-3.65192 0.17045,-0.79389 0.25567,-1.5084 0.25567,-2.30229 0.0852,-2.38168 -0.51134,-3.17558 -2.98285,-3.33436 -1.36359,-0.0794 -1.96016,-0.79389 -2.64196,-1.82595 -3.40897,-4.5252 -3.1533,-9.44734 -1.96016,-14.44888 0.25567,-1.11145 0.42612,-2.14351 0.59657,-3.25496 0.0852,-0.23817 0.0852,-0.87328 0.51135,-0.63512 1.19314,0.95268 1.44881,-0.0794 1.70449,-0.7145 2.30106,-5.47787 5.53958,-10.4794 8.86334,-15.48094 0.17044,-0.23817 0.59657,-0.63511 0.17044,-1.27023 -1.53403,1.19084 -2.98285,2.38169 -4.51689,3.49314 2.64196,-7.06566 5.36914,-14.13132 2.47151,-21.83209 -0.51135,2.61985 -1.27837,5.16031 -3.23853,7.54199 0.85225,-6.35115 -0.25567,-12.22597 -1.61926,-18.18017 1.96016,4.28702 5.19869,7.54199 9.20423,10.24123 4.09078,2.77863 7.58498,6.19238 9.80081,10.63818 0.25567,0.55573 0.85224,1.11145 0.3409,1.66718 -0.42612,0.55573 -1.19314,0.15878 -1.87494,0.15878 -1.70449,0 -2.89763,-0.63512 -3.06808,-2.38168 -0.0852,-0.39695 -0.25567,-0.71451 -0.42612,-1.03207 -0.17045,-0.31755 -0.42612,-0.79389 -0.93747,-0.63511 -0.42612,0.0794 -0.3409,0.55572 -0.3409,0.87328 -0.42612,4.12825 -2.30105,7.78016 -4.51689,11.35269 -1.70449,2.77863 -3.23853,5.71604 -4.85779,8.57406 -2.64196,4.68397 -2.64196,9.60611 -2.21584,14.52826 0,0.31756 0.0852,0.63511 0.6818,0.79389 0.25567,-1.11145 0.59657,-2.30229 0.85224,-3.49313 0.59657,-2.38168 1.78972,-4.5252 2.98286,-6.66871 0.3409,-0.63512 0.85224,-1.11145 1.53404,-1.11145 6.13616,-0.15878 10.31215,-3.65192 14.14725,-7.46261 1.87494,-1.82596 1.87494,-1.82596 4.26122,-0.63511 2.04539,1.03206 3.8351,2.30229 5.19869,4.36641 -1.44882,-0.23817 -2.64196,-0.39694 -3.74987,-0.63511 -0.6818,-0.0794 -1.3636,-0.0794 -2.13061,0.0794 -1.19315,0.63511 -1.78972,1.27023 -1.10792,2.54046 z m -15.08472,-2.61985 c 1.96016,-1.58779 3.92032,-3.09619 6.13615,-4.28703 0.3409,-0.23817 0.85225,-0.63512 1.19315,-0.23817 0.34089,0.39695 -0.0852,0.7939 -0.25568,1.19084 -1.27836,3.09619 -4.17599,3.17558 -7.07362,3.33436 z m -1.27837,-3.49314 c 0.0852,-1.03206 0.6818,-1.5084 1.19314,-2.14351 1.0227,-1.11145 2.21584,-2.14351 3.15331,-3.33436 1.87493,-2.46107 4.09077,-3.17557 7.24407,-2.54046 4.77257,0.95268 9.28946,2.14352 13.29501,4.76337 -8.94856,-3.17558 -17.38578,-4.04886 -24.88553,3.25496 z m 35.70903,44.21991 c -0.25567,1.66717 -0.51135,3.33435 -0.6818,5.00153 0.17045,-5.47787 -2.4715,-9.68551 -6.73272,-13.17864 -0.6818,-0.47634 -1.78972,-1.27023 -1.3636,-1.90535 0.59658,-0.87328 1.70449,0 2.55674,0.23817 2.4715,0.7145 4.26122,2.14351 5.79526,4.12825 0.0852,0.15878 0.34089,0.39695 0.25567,0.63511 -0.59657,1.66718 0.42612,3.41375 0.17045,5.08093 z m -6.13616,-18.0214 c 3.40898,2.77863 5.45436,6.0336 6.64751,9.84429 -1.78972,-1.98474 -4.00555,-3.33436 -6.47706,-4.36642 -0.76702,-0.23817 -1.02269,-0.79389 -1.27837,-1.42901 -0.51134,-1.74657 -1.19314,-3.49313 -1.70448,-5.16031 -0.42613,-1.42901 -0.17045,-1.82596 1.36359,-1.66718 0.25567,0 0.59657,0.0794 0.85224,0.0794 0.42612,0 1.02269,0.23817 1.27837,-0.23817 0.17045,-0.39695 -0.17045,-0.7145 -0.42613,-1.03206 -1.70448,-2.06413 -2.8124,-4.36642 -3.57942,-6.90688 3.23853,4.44581 7.15885,8.09772 12.44276,10.4794 -2.89763,0.63512 -5.79526,0.0794 -9.11901,0.39695 z m 3.40898,-25.16644 c 1.27836,0.79389 2.47151,1.50839 3.74987,2.2229 0.42612,0.23817 1.02269,0.55573 1.44882,0.15878 0.42612,-0.39695 0.0852,-0.7939 -0.0852,-1.19084 -1.96016,-3.96947 -3.92032,-7.93894 -5.88048,-11.9878 -0.42612,-0.87329 -1.10792,-1.34962 -1.96016,-1.90535 -4.5169,-3.0168 -8.94857,-6.0336 -13.80636,-8.57406 5.36914,1.5084 10.4826,3.33436 15.25517,6.19238 1.10792,0.7145 1.87494,1.66717 2.38629,2.77863 2.21583,4.92214 4.09077,9.92367 6.6475,14.68704 0.85224,1.42901 -0.93747,1.42901 -1.53404,1.5084 -1.36359,0.23817 -1.19314,0.7145 -0.76702,1.58779 1.96016,3.65191 4.68734,6.66871 8.43722,9.44734 -5.53959,-1.03207 -10.90873,-6.98627 -13.89158,-14.92521 z"
   id="path32"
   style="fill:#12173f;fill-opacity:1;stroke:#5d76a9;stroke-width:1;stroke-dasharray:none;stroke-opacity:1" /><path
   d="m 184.27305,204.94286 c -0.51134,5.00153 -0.59657,9.92368 -0.0852,14.92521 0.0852,0.39695 -0.0852,0.79389 0.59657,1.11145 1.36359,-4.20764 2.13061,-8.49467 4.51689,-12.30536 2.38629,-3.81069 5.96571,-6.58932 9.20424,-9.84429 -4.176,0.95268 -8.35199,1.42901 -12.18709,3.17558 -1.27837,0.55573 -1.87494,1.58779 -2.04539,2.93741 z"
   id="path33"
   style="stroke:#5d76a9;stroke-width:1;stroke-dasharray:none;stroke-opacity:1;fill:#12173f;fill-opacity:1" /><path
   d="m 148.1379,201.52911 c -2.98285,-1.11145 -6.22138,-1.66717 -9.28946,-2.54046 -0.42612,-0.0794 -1.02269,-0.31755 -1.70449,0.0794 1.19315,1.11145 2.30106,2.14352 3.40898,3.09619 4.176,3.57252 7.07363,7.85955 8.52244,13.01986 0.42612,1.42901 0.76702,2.85802 1.19314,4.28703 0.17045,0.47634 0,1.27023 0.93747,1.42901 0.0852,-0.31756 0.17045,-0.63511 0.25568,-0.79389 0.25567,-4.84276 0.42612,-9.7649 0.0852,-14.60765 -0.42612,-2.06413 -1.44882,-3.33436 -3.40898,-3.96948 z"
   id="path34"
   style="stroke:#5d76a9;stroke-width:1;stroke-dasharray:none;stroke-opacity:1;fill:#12173f;fill-opacity:1" /><path
   d="m 251.68556,171.20236 c -0.25567,3.09619 0.0852,6.11298 0.0852,9.20917 0,0.47634 -0.0852,1.03206 0.85224,1.58779 0.85225,-6.35115 3.92032,-11.51147 9.11901,-15.48094 -2.98285,0.31756 -5.79526,0.87329 -8.43721,2.06413 -1.19315,0.39694 -1.53404,1.42901 -1.61927,2.61985 z"
   id="path35"
   style="stroke:#5d76a9;stroke-width:1;stroke-dasharray:none;stroke-opacity:1;fill:#12173f;fill-opacity:1" /><path
   d="m 88.736489,169.61457 c -0.170449,-0.7145 -0.596571,-1.34962 -1.278367,-1.66718 -2.641956,-1.27023 -5.454362,-1.82595 -8.607665,-2.06412 5.454362,3.96947 8.181543,9.28856 9.459909,15.48093 0.426123,-3.96947 1.278367,-7.85955 0.426123,-11.74963 z"
   id="path36"
   style="stroke:#5d76a9;stroke-width:1;stroke-dasharray:none;stroke-opacity:1;fill:#12173f;fill-opacity:1" /><path
   style="display:inline;fill:#FEE715;fill-opacity:1;stroke:#FEE715;stroke-width:0.822552;stroke-dasharray:none;stroke-opacity:1"
   d="m 191.23976,188.51135 c 1.44202,-1.1227 9.18637,-5.90704 9.56166,-5.90704 0.55817,0 -0.0222,1.68219 -1.06046,3.07379 -1.40164,1.87864 -4.12534,3.18494 -7.02221,3.36792 l -2.35692,0.14886 z"
   id="path50" /><path
   style="display:inline;fill:#FEE715;fill-opacity:1;stroke:#FEE715;stroke-width:0.822552;stroke-dasharray:none;stroke-opacity:1"
   d="m 140.38361,188.85192 c -2.6354,-0.84789 -4.69493,-2.79402 -5.48651,-5.18444 -0.40718,-1.22958 0.47213,-0.89723 4.92096,1.85997 4.55306,2.8218 5.41786,3.41834 5.41786,3.73732 0,0.42733 -3.04654,0.16811 -4.85231,-0.41285 z"
   id="path51" /><path
   style="display:inline;fill:#FEE715;fill-opacity:1;stroke:#FEE715;stroke-width:0.822552;stroke-dasharray:none;stroke-opacity:1"
   d="m 258.28655,158.26395 c 0.22531,-0.25289 1.6115,-1.23376 3.08042,-2.1797 2.66587,-1.71673 2.67031,-1.71814 2.41671,-0.76693 -0.48341,1.81323 -2.72503,3.40644 -4.79282,3.40644 -0.91711,0 -1.04157,-0.0813 -0.70431,-0.45981 z"
   id="path52" /><path
   style="display:inline;fill:#800080;stroke:#FEE715;stroke-width:0.338939;stroke-dasharray:none;stroke-opacity:1"
   d="m 80.88299,157.93437 c -0.91756,-0.22995 -2.00107,-0.69844 -2.40779,-1.0411 -0.86398,-0.72786 -2.22385,-3.07648 -1.7813,-3.07648 0.2819,0 6.15534,3.65759 6.89335,4.29273 0.46755,0.40237 -0.70213,0.32661 -2.70426,-0.17515 z"
   id="path53" /><path
   style="display:inline;fill:#FEE715;fill-opacity:1;stroke:#FEE715;stroke-width:0.822552;stroke-dasharray:none;stroke-opacity:1"
   d="m 80.44424,157.58002 c -1.70857,-0.56044 -4.2068,-3.10896 -3.0476,-3.10896 0.15871,0 1.53726,0.80965 3.06344,1.79921 2.79646,1.8132 2.7914,2.23057 -0.0159,1.30975 z"
   id="path65" />

<path
   style="fill:#FEE715;fill-opacity:1;stroke:#FEE715;stroke-width:0.213021;stroke-linecap:round;stroke-linejoin:bevel;stroke-dasharray:none;stroke-opacity:1"
   d="m 193.52979,187.51056 c 2.74797,-1.86074 6.80956,-4.28392 6.94815,-4.14532 0.1562,0.15619 -0.49229,1.37987 -1.2264,2.31422 -1.22336,1.55704 -3.72552,2.7383 -6.47001,3.05449 l -1.27544,0.14693 z"
   id="path37" /><path
   style="fill:#FEE715;fill-opacity:1;stroke:#FEE715;stroke-width:0.215517;stroke-linecap:round;stroke-linejoin:bevel;stroke-dasharray:none;stroke-opacity:1"
   d="m 259.39981,157.89513 c 0.7046,-0.55149 3.57776,-2.39944 3.7306,-2.39944 0.31144,0 0.0605,0.49995 -0.6402,1.27556 -0.73603,0.8147 -2.21972,1.52616 -3.18267,1.52616 -0.38564,0 -0.37775,-0.0344 0.0923,-0.40228 z"
   id="path38" /><path
   style="fill:#FEE715;fill-opacity:1;stroke:#FEE715;stroke-width:0.215517;stroke-linecap:round;stroke-linejoin:bevel;stroke-dasharray:none;stroke-opacity:1"
   d="m 140.53817,188.47136 c -1.63041,-0.52073 -3.32308,-1.6894 -4.18479,-2.88932 -0.69822,-0.97225 -1.21122,-2.06911 -0.96772,-2.06911 0.46875,0 8.30833,4.73307 8.58734,5.18453 0.21836,0.3533 -2.09818,0.20081 -3.43483,-0.2261 z"
   id="path39" /><path
   style="fill:#FEE715;fill-opacity:1;stroke:#FEE715;stroke-width:0.215517;stroke-linecap:round;stroke-linejoin:bevel;stroke-dasharray:none;stroke-opacity:1"
   d=""
   id="path40" /><path
   style="display:inline;fill:#FEE715;fill-opacity:1;stroke:#FEE715;stroke-width:0.215517;stroke-linecap:round;stroke-linejoin:bevel;stroke-dasharray:none;stroke-opacity:1"
   d=""
   id="path41" /><path
   style="display:inline;fill:#FEE715;fill-opacity:1;stroke:#FEE715;stroke-width:0.5;stroke-linecap:round;stroke-linejoin:bevel;stroke-dasharray:none;stroke-opacity:1"
   d="m 80.431611,157.34002 c -1.206254,-0.43029 -2.361847,-1.26809 -2.803709,-2.03269 -0.214137,-0.37054 -0.338453,-0.67371 -0.276258,-0.67371 0.0622,0 1.158734,0.67719 2.436753,1.50487 2.228921,1.44351 2.443075,1.84355 0.643214,1.20153 z"
   id="path42" /><g
   id="layer1"
   style="display:inline"
   transform="translate(-88.442808,-48.306999)"
   sodipodi:insensitive="true"><ellipse
     style="display:none;fill:none;fill-opacity:1;stroke:#000000;stroke-width:1.2308;stroke-dasharray:none;stroke-opacity:1"
     id="path43"
     cx="260.20367"
     cy="231.5"
     rx="169.79199"
     ry="139.23645" /><text
     style="font-size:42.6667px;line-height:1.25;font-family:'PROMESH Mesh';-inkscape-font-specification:'PROMESH Mesh';fill:#86bc25;fill-opacity:1;stroke:#000000"
     x="-27.482098"
     y="183.15001"
     id="text56"
     transform="rotate(-46.391282)"><tspan
       style="fill:#FEE715;fill-opacity:1;stroke:#12173f;stroke-opacity:1"
       id="tspan1">m</tspan></text><text
     style="font-size:42.6667px;line-height:1.25;font-family:'PROMESH Mesh';-inkscape-font-specification:'PROMESH Mesh';fill:#FEE715;fill-opacity:1;stroke:#123273;stroke-opacity:1"
     x="41.553463"
     y="179.66573"
     id="text55"
     transform="rotate(-34.906978)">i</text><text
     style="font-size:42.6667px;line-height:1.25;font-family:'PROMESH Mesh';-inkscape-font-specification:'PROMESH Mesh';fill:#FEE715;fill-opacity:1;stroke:#123273;stroke-opacity:1"
     x="74.826614"
     y="174.8902"
     id="text54"
     transform="rotate(-29.836528)">n</text><text
     style="font-size:42.6667px;line-height:1.25;font-family:'PROMESH Mesh';-inkscape-font-specification:'PROMESH Mesh';fill:#FEE715;fill-opacity:1;stroke:#123273;stroke-opacity:1"
     x="125.30145"
     y="160.23195"
     id="text53"
     transform="rotate(-22.255201)">d</text><text
     style="font-size:42.6667px;line-height:1.25;font-family:'PROMESH Mesh';-inkscape-font-specification:'PROMESH Mesh';fill:#FEE715;fill-opacity:1;stroke:#123273;stroke-opacity:1"
     x="160.70398"
     y="150.50883"
     id="text52"
     transform="rotate(-18.309935)">f</text><text
     style="font-size:42.6667px;line-height:1.25;font-family:'PROMESH Mesh';-inkscape-font-specification:'PROMESH Mesh';fill:#FEE715;fill-opacity:1;stroke:#123273;stroke-opacity:1"
     x="201.24216"
     y="121.05412"
     id="text51"
     transform="rotate(-9.2648633)">u</text><text
     style="font-size:42.6667px;line-height:1.25;font-family:'PROMESH Mesh';-inkscape-font-specification:'PROMESH Mesh';fill:#FEE715;fill-opacity:1;stroke:#123273;stroke-opacity:1"
     x="241.85431"
     y="91.396751"
     id="text50"
     transform="rotate(-1.8576086)">l</text><text
     style="font-size:42.6667px;line-height:1.25;font-family:'PROMESH Mesh';-inkscape-font-specification:'PROMESH Mesh';fill:#FEE715;fill-opacity:1;stroke:#12173f;stroke-opacity:1"
     x="300.11407"
     y="25.004572"
     id="text49"
     transform="rotate(11.464259)">B</text><text
     style="font-size:42.6667px;line-height:1.25;font-family:'PROMESH Mesh';-inkscape-font-specification:'PROMESH Mesh';fill:#FEE715;fill-opacity:1;stroke:#12173f;stroke-opacity:1"
     x="325.8559"
     y="-19.554897"
     id="text48"
     transform="rotate(19.25156)">e</text><text
     style="font-size:42.6667px;line-height:1.25;font-family:'PROMESH Mesh';-inkscape-font-specification:'PROMESH Mesh';fill:#FEE715;fill-opacity:1;stroke:#12173f;stroke-opacity:1"
     x="346.14847"
     y="-57.485569"
     id="text47"
     transform="rotate(25.355135)">a</text><text
     style="font-size:42.6667px;line-height:1.25;font-family:'PROMESH Mesh';-inkscape-font-specification:'PROMESH Mesh';fill:#FEE715;fill-opacity:1;stroke:#12173f;stroke-opacity:1"
     x="367.2507"
     y="-97.094223"
     id="text46"
     transform="rotate(31.572051)">s</text><text
     style="font-size:42.6667px;line-height:1.25;font-family:'PROMESH Mesh';-inkscape-font-specification:'PROMESH Mesh';fill:#FEE715;fill-opacity:1;stroke:#12173f;stroke-opacity:1"
     x="371.96844"
     y="-144.3317"
     id="text45"
     transform="rotate(38.701999)">t</text><text
     style="font-size:42.6667px;line-height:1.25;font-family:'PROMESH Mesh';-inkscape-font-specification:'PROMESH Mesh';fill:#FEE715;fill-opacity:1;stroke:#12173f;stroke-opacity:1"
     x="378.85275"
     y="-186.1972"
     id="text44"
     transform="rotate(45.203065)">s</text><path
     style="display:none;fill:none;stroke:#000000;stroke-width:1px;stroke-linecap:butt;stroke-linejoin:miter;stroke-opacity:1"
     d="m 111.2963,341.09259 h 298.61111 l -0.46297,-0.46296"
     id="path56" /></g><g
   id="layer2"
   style="display:inline"
   transform="translate(-88.442808,-48.306999)"
   sodipodi:insensitive="true"><text
     style="font-size:42.6667px;line-height:1.25;font-family:'PROMESH Mesh';-inkscape-font-specification:'PROMESH Mesh';letter-spacing:2px;fill:#FEE715;fill-opacity:1;stroke:#12173f;stroke-opacity:1"
     x="307.30441"
     y="238.93958"
     id="text74"
     transform="rotate(32.336348)">A</text><text
     style="font-size:42.6667px;line-height:1.25;font-family:'PROMESH Mesh';-inkscape-font-specification:'PROMESH Mesh';letter-spacing:2px;fill:#FEE715;fill-opacity:1;stroke:#12173f;stroke-opacity:1"
     x="296.92288"
     y="286.78027"
     id="text73"
     transform="rotate(23.53137)">t</text><text
     style="font-size:42.6667px;line-height:1.25;font-family:'PROMESH Mesh';-inkscape-font-specification:'PROMESH Mesh';letter-spacing:2px;fill:#FEE715;fill-opacity:1;stroke:#12173f;stroke-opacity:1"
     x="284.86105"
     y="331.61743"
     id="text72"
     transform="rotate(15.011559)">h</text><text
     style="font-size:42.6667px;line-height:1.25;font-family:'PROMESH Mesh';-inkscape-font-specification:'PROMESH Mesh';letter-spacing:2px;fill:#FEE715;fill-opacity:1;stroke:#12173f;stroke-opacity:1"
     x="296.50763"
     y="350.8757"
     id="text71"
     transform="rotate(11.196813)">l</text><text
     style="font-size:42.6667px;line-height:1.25;font-family:'PROMESH Mesh';-inkscape-font-specification:'PROMESH Mesh';letter-spacing:2px;fill:#FEE715;fill-opacity:1;stroke:#12173f;stroke-opacity:1"
     x="250.121"
     y="405.10736"
     id="text70">e</text><text
     style="font-size:42.6667px;line-height:1.25;font-family:'PROMESH Mesh';-inkscape-font-specification:'PROMESH Mesh';letter-spacing:2px;fill:#FEE715;fill-opacity:1;stroke:#12173f;stroke-opacity:1"
     x="217.10266"
     y="443.12894"
     id="text69"
     transform="rotate(-8.8502843)">t</text><text
     style="font-size:42.6667px;line-height:1.25;font-family:'PROMESH Mesh';-inkscape-font-specification:'PROMESH Mesh';letter-spacing:2px;fill:#FEE715;fill-opacity:1;stroke:#12173f;stroke-opacity:1"
     x="182.56009"
     y="476.03012"
     id="text68"
     transform="rotate(-17.613081)">i</text><text
     style="font-size:42.6667px;line-height:1.25;font-family:'PROMESH Mesh';-inkscape-font-specification:'PROMESH Mesh';letter-spacing:2px;fill:#FEE715;fill-opacity:1;stroke:#12173f;stroke-opacity:1"
     x="149.28613"
     y="496.55774"
     id="text67"
     transform="rotate(-24.169526)">C</text><text
     style="font-size:42.6667px;line-height:1.25;font-family:'PROMESH Mesh';-inkscape-font-specification:'PROMESH Mesh';letter-spacing:2px;fill:#FEE715;fill-opacity:1;stroke:#12173f;stroke-opacity:1"
     x="116.54662"
     y="515.87683"
     id="text66"
     transform="rotate(-31.298221)">S</text></g></svg>
