<?xml version="1.0" encoding="UTF-8" standalone="no"?>
<!-- Generator: Adobe Illustrator 25.2.1, SVG Export Plug-In . SVG Version: 6.00 Build 0)  -->

<svg
   version="1.1"
   id="Слой_1"
   x="0px"
   y="0px"
   viewBox="0 0 347.88004 365.84969"
   xml:space="preserve"
   width="347.88004"
   height="365.84967"
   xmlns="http://www.w3.org/2000/svg"
   xmlns:svg="http://www.w3.org/2000/svg"><defs
   id="defs44" />
<style
   type="text/css"
   id="style1">
	.st0{fill:none;}
</style>
<g
   id="g38"
   transform="translate(-92.377867,-29.087562)"
   style="display:inline"><g
     id="g37"
     transform="matrix(0.85224411,0,0,0.79389414,124.18445,77.077552)"
     style="display:inline">
	<g
   id="g36">
		<path
   class="st0"
   d="m 82.7,172.8 c -2.6,2.1 -5.1,4.1 -8,5.7 -0.5,0.3 -1.2,0.7 -1.7,0.2 -0.6,-0.5 -0.1,-1.2 0.2,-1.7 3.8,-7.3 7,-14.9 10.4,-22.4 0.4,-0.9 0.9,-1.7 1.7,-2.3 4.6,-3.1 9,-6.4 13.6,-9.5 3.3,-2.3 6.8,-4.4 10.5,-6.8 -0.5,0 -0.7,-0.1 -0.9,0 -8,2.6 -15.8,5.8 -23,10.3 -2.7,1.6 -4.6,3.8 -5.8,6.8 -3.6,8.7 -6.5,17.7 -11.5,26 0.8,0.3 2.5,-0.1 1.4,1.7 -0.2,0.3 0.5,0.3 0.8,0.3 0.8,0 1.5,0 2.3,0 1.2,0 1.4,0.5 0.8,1.5 -3.1,4.8 -6.3,9.6 -10.7,13.4 -1.6,1.3 -3.2,2.6 -4.9,4 9.5,-1.7 24.6,-18.4 24.8,-27.2 z"
   id="path1" />
		<path
   class="st0"
   d="m 58.9,178.2 c 0.1,0.9 0,1.8 0.5,2.6 1.6,2.6 3.7,4.8 5.7,7.1 0.6,0.6 1.2,0.7 1.8,0 0.8,-1.1 1.6,-2.2 2.5,-3.5 -1.7,0 -3,0 -4.3,0 -0.8,0 -1.8,0 -2.2,-0.8 -0.4,-0.8 0.4,-1.4 0.8,-2 5.5,-8.3 9.5,-17.3 12.4,-26.7 0.5,-1.6 0.7,-3.3 0.3,-4.9 -0.1,-0.5 -0.2,-1.4 -1,-1 -1.4,0.8 -1.6,-0.3 -1.8,-1.1 -2.7,-7.2 -6.5,-13.8 -10.7,-20.3 -0.2,-0.3 -0.6,-0.6 0.1,-1.2 1.9,1.6 3.8,3.1 5.7,4.7 -1.6,-4.5 -3.3,-8.9 -4.1,-13.6 -0.8,-4.7 -0.8,-9.3 1,-13.8 0.4,3.1 1.3,6 3.4,8.9 0.1,-4 -0.2,-7.7 0.5,-11.3 0.6,-3.6 1.3,-7.2 1.9,-10.8 -2,4.1 -4.5,7.8 -8.3,10.5 -2.2,1.6 -4.2,3.3 -6.3,5.1 -3.6,3.1 -6.4,6.8 -8.5,11.1 -0.7,1.4 -0.5,1.9 1.3,1.8 2.5,-0.1 4.5,-0.5 4.8,-3.5 0,-0.3 0.3,-0.6 0.5,-1 0.2,-0.3 0.5,-0.8 0.9,-0.8 0.6,0.1 0.6,0.7 0.6,1.1 0.1,3.3 1.4,6.3 2.7,9.3 2.3,5.5 5.6,10.6 8.3,16 2.9,5.6 3.2,11.3 2.5,17.3 -0.1,0.6 0.1,1.4 -0.5,1.8 -0.8,-0.4 -0.6,-1.1 -0.8,-1.7 -0.9,-3.8 -2,-7.4 -4,-10.8 -0.5,-1 -1.2,-1.8 -2.5,-1.8 -6.5,-0.5 -11.1,-4.2 -15.3,-8.6 -3.2,-3.3 -3.2,-3.4 -7.2,-0.8 -1.4,0.9 -2.7,1.8 -3.6,3.1 -0.3,0.4 -0.9,0.8 -0.4,1.6 2,-0.5 4.1,-1 6.2,-0.8 2,0.2 2.6,1.1 1.7,2.9 -1.5,3.2 -2.4,6.6 -3,10.1 -0.3,1.4 0.1,2.3 1.4,3 2.3,1.2 3.7,3.1 4.9,5.2 0.8,1.4 0.8,2.3 -1,2.7 -0.6,0.1 -1.2,0.4 -1.7,0.7 -2.3,1 -4.5,2.2 -6.8,4.3 3.6,0.3 6.6,0.4 9.6,1.1 3,0.7 5.8,1.9 8.3,3.8 -0.3,-2.7 -1,-5.2 -3.2,-6.9 0.6,-0.5 1,-0.3 1.4,-0.2 1,0.3 2,1 2.9,0.9 1.4,-0.2 0.1,-2 1.3,-2.8 0.6,0.3 0.5,0.9 0.5,1.4 0.3,4.2 0.6,8.4 0.8,12.6 z m -3.7,-29.8 c 3.7,0.3 7,1 10.1,2.6 0.8,0.4 1.4,1.2 1.5,2.1 1,4.9 0.1,9.8 -0.5,14.8 -1.4,-7.7 -4.7,-14.4 -11.1,-19.5 z"
   id="path2" />
		<path
   class="st0"
   d="m 52.3,133.1 c -0.3,0.4 0.1,0.9 0.3,1.3 1.6,4.3 5.3,4.6 9.5,4.8 -3,-2.1 -5.7,-4 -8.3,-5.9 -0.5,-0.1 -1,-0.7 -1.5,-0.2 z"
   id="path3" />
		<path
   class="st0"
   d="m 68.1,203 c 2.5,-0.9 4.6,-2.3 6.9,-4.2 -1.4,-0.5 -2.3,-0.2 -3.3,0.2 -1.8,0.8 -3.6,1.6 -5.6,2 -0.5,0.1 -1.1,0.1 -1.1,0.7 -0.1,0.6 0.5,1 0.9,1.3 0.7,0.4 1.5,0.3 2.2,0 z"
   id="path4" />
		<path
   class="st0"
   d="m 144.6,249.2 c 4,0 8,0.1 12,0.1 1.4,0 1.5,-0.5 0.9,-1.6 -1.4,-2.3 -3.6,-3.6 -5.9,-4.7 -6.5,-2.9 -8.3,-8.3 -8,-14.8 0.1,-2 1,-3.3 3.1,-3.6 3.5,-0.6 6.9,-1.3 10.4,-1.8 1.5,-0.2 1.9,-0.8 1.6,-2.3 -1.1,-6.5 -2,-13 -3.1,-19.4 -0.6,-3.5 -1.4,-7 -2.1,-10.6 -0.1,-0.5 -0.4,-2 -1.4,-0.7 -1.4,1.9 -1.8,0.7 -2.3,-0.5 -3.6,-9.5 -8.9,-18.1 -14.3,-26.6 -0.3,-0.5 -1,-1 -0.7,-2.1 3.1,2.2 5.8,4.8 9.1,7.4 -2.9,-6.8 -5.5,-13 -6.8,-19.6 -1.4,-6.9 -1,-17.7 1,-19.8 0.6,2.4 0.8,4.8 1.7,7.1 1,2.5 2.5,5 3.6,6 -1.6,-11.5 0.7,-22.5 2.7,-33.7 -0.3,0.5 -0.5,1.1 -0.8,1.6 -2.8,6.7 -6.6,12.5 -12.6,16.8 -3.2,2.3 -6.1,4.9 -8.9,7.8 -4.1,4.2 -7.2,9.1 -9.4,14.5 -0.5,1.3 -0.5,2 1.2,1.7 1.8,-0.3 3.5,-0.5 5.3,-0.8 1.1,-0.1 1.7,-0.5 1.8,-1.8 0.2,-1.6 0.8,-3.1 1.7,-4.4 0.3,-0.4 0.5,-1 1.1,-0.8 0.6,0.1 0.5,0.8 0.5,1.2 0,6 2.5,11.3 5,16.4 3.5,6.9 7.4,13.6 10.6,20.7 1.1,2.5 2,5.1 2.4,7.9 0.8,5.3 0.4,10.6 -0.1,15.9 -0.1,0.4 -0.1,0.9 -0.7,0.8 -0.5,-0.5 -0.5,-1.2 -0.7,-1.9 -1,-5.5 -2.9,-10.6 -5.5,-15.5 -0.9,-1.7 -2,-2.5 -4,-2.7 -5.3,-0.5 -10,-2.3 -14,-5.9 -2.9,-2.6 -5.9,-5 -8.1,-8.3 -0.8,-1.1 -1.6,-1.3 -2.8,-0.7 -2.4,1.2 -4.7,2.3 -6.8,4 -1.7,1.4 -3.4,2.9 -4.8,5.3 3.7,-0.9 6.9,-1.9 10.2,-1.4 2.7,0.4 3,1 1.9,3.4 -2.3,5 -3.5,10.2 -4.2,15.5 -0.2,1.5 0.2,2.3 1.5,2.9 3.7,1.8 6,5 7.8,8.6 0.7,1.4 0.5,2.2 -1,2.6 -1.3,0.3 -2.7,0.8 -3.9,1.4 -3.2,1.4 -6.1,3.1 -9.1,5.7 9.8,0.8 19.2,1 26.4,8.3 -0.9,-4.4 -2,-8.7 -5.9,-11.5 1.9,-0.1 3.5,0.5 5,1.2 1.4,0.6 2.2,0.6 2.2,-1.2 0,-1.1 0.3,-2.3 0.5,-3.7 0.8,0.8 0.9,1.5 1,2.2 1.2,6.6 1.5,13.3 1.6,20 0,1.3 0.2,2.5 1,3.5 3.1,4 6.4,7.6 10.4,10.6 1,0.9 1.7,1.3 2.7,1.3 z m -4.5,-32.5 c 0,0.3 -0.1,0.7 -0.3,1 -1.1,-0.3 -1,-1.2 -1.1,-1.8 -0.5,-1.8 -1,-3.6 -1.4,-5.4 -1.6,-6.5 -5,-11.9 -10,-16.4 -1.3,-1.2 -2.5,-2.5 -4,-3.9 0.9,-0.5 1.5,-0.3 2,-0.1 3.6,1.1 7.4,1.8 10.9,3.2 2.3,0.9 3.5,2.5 3.8,4.9 0.6,6.2 0.5,12.4 0.1,18.5 z"
   id="path5" />
		<path
   class="st0"
   d="m 133.9,178.1 c -3.1,-2.9 -11.6,-8.3 -13.6,-8.8 0.9,6.3 6.8,10.1 13.6,8.8 z"
   id="path6" />
		<path
   class="st0"
   d="m 62.7,134.6 c -2.3,-3.8 -5,-6.8 -8.1,-9.7 -0.8,-0.8 -1.8,-0.7 -2.7,-0.6 -6.3,0.5 -12.2,2.2 -17.7,5.3 -0.4,0.2 -1,0.3 -1.2,1.2 10.7,-4.3 20.9,-5.3 29.7,3.8 z"
   id="path7" />
		<path
   class="st0"
   d="m 94,196.2 c -6.5,10.6 -16.2,16.8 -27.8,20.5 7,0.3 13.8,-0.8 20.9,-0.5 -3.2,2.5 -5.9,5.3 -8,8.6 -2.3,3.3 -3.8,7 -4.8,10.8 3.3,-5.3 7.9,-8.7 13.8,-10.2 1.1,-0.3 1.5,-1.1 1.8,-2 0.8,-2.5 1.5,-5 2.3,-7.5 1.4,-4.6 1.3,-4.8 -3.7,-4.2 -0.6,0.1 -1.4,0.5 -1.7,-0.2 -0.3,-0.6 0.4,-1.1 0.8,-1.6 2.8,-4.2 5,-8.7 6.4,-13.7 z"
   id="path8" />
		<path
   class="st0"
   d="m 126.4,165.8 c 3,2 6,4 9,5.9 -3.4,-4.7 -7,-9.3 -11.2,-13.2 -1,-0.9 -2,-1.1 -3.3,-0.9 -6.1,0.8 -12.1,2 -17.8,4.4 -3.2,1.3 -6.3,2.8 -9.1,5 4.8,-1.8 9.8,-3.3 14.9,-4.1 6.1,-1 12.1,-0.7 17.5,2.9 z"
   id="path9" />
		<path
   class="st0"
   d="m 270.5,96.6 c 3.1,1.1 6.4,1.9 9.9,3.9 -2,-3.2 -4.8,-5 -6.8,-7.8 3.1,0.4 5.4,1.7 8.5,1.8 -1.5,-1.9 -2.6,-3.4 -3.8,-4.9 -0.7,-0.8 -0.8,-1.6 -0.2,-2.5 3.9,-6.2 7.8,-12.5 11.9,-19.1 0.3,0.6 0.5,0.8 0.5,1.1 0.9,7.2 1.7,14.5 1.3,21.8 -0.2,3.8 -0.7,7.2 -4.2,9.5 -2.1,1.4 -2,1.7 0.3,3.1 0.7,0.5 1.3,1 1.9,1.6 0.8,0.8 1.3,0.5 1.7,-0.3 0.8,-1.8 1.4,-3.6 1.8,-5.5 1.8,-8.4 1.4,-16.8 0.3,-25.3 -0.4,-3.3 -1,-6.7 -2.4,-9.8 -1.3,-2.8 -3.8,-3.1 -5.5,-0.8 -6.3,8.8 -12.5,17.7 -18.8,26.5 -0.3,0.5 -0.8,1 -0.5,1.5 1.1,2.1 1.9,4.5 4.1,5.2 z"
   id="path10" />
		<path
   class="st0"
   d="m 234.2,128 c -1.5,3.8 -2.9,7.3 -4.5,11.3 4.4,-1.8 5.6,-5 4.5,-11.3 z"
   id="path11" />
		<path
   class="st0"
   d="m 195.2,117.3 c 0.8,1.2 1.9,1.8 3.3,2.2 4.4,1 8.6,2.5 12.5,4.8 0.4,0.3 0.8,0.7 1.6,0.5 -3.1,-4.2 -7.1,-7.4 -10.6,-11 0.1,-0.2 0.3,-0.4 0.4,-0.6 3.8,1.2 7.7,2.4 11.5,3.6 -1.8,-2.8 -3.6,-5.3 -5.7,-7.6 -1.1,-1.2 -1.1,-2.3 -0.2,-3.7 4.5,-6.8 8.9,-13.7 13.2,-20.5 1.4,-2.2 2.8,-4.4 4.5,-7.2 2,13.1 3.5,25.5 2.3,38.1 -0.3,3.7 -1.6,6.6 -4.8,8.7 -1,0.6 -1.8,1.5 -2.7,2.2 -1.1,0.8 -1,1.4 0.3,1.9 2,0.9 3.8,2.1 5.1,3.8 1,1.2 1.4,1.2 2,-0.3 1.2,-3.2 2.3,-6.4 2.9,-9.8 2.4,-13 1.6,-26 -0.7,-38.9 -0.7,-3.8 -1.3,-7.5 -2.8,-11 -2,-4.4 -5.5,-4.8 -8.3,-1 -3,4 -5.9,8 -8.8,12.1 -6.1,8.5 -12.1,17 -18.2,25.4 -1.2,1.6 -1.2,2.7 0.1,4.2 1.1,1.3 2.1,2.7 3.1,4.1 z"
   id="path12" />
		<path
   class="st0"
   d="m 25.9,116.1 c -2.1,1.2 -3.5,3 -4.5,5.2 -2.5,5.6 -4.4,11.5 -7.7,16.7 -0.9,1.4 -0.1,2.6 1.6,2.7 1.4,0.1 1.9,0.5 1.1,1.9 -1.4,2.5 -2.8,4.9 -4.7,7 -1.6,1.8 -3.5,3.4 -5.1,5.2 8.9,-3.3 12.9,-10.9 16.4,-19 -1.6,1 -3.1,1.9 -4.8,2.8 -0.5,0.3 -1.3,0.5 -1.7,0 -0.4,-0.5 0.1,-1 0.4,-1.5 2.5,-4.7 4.8,-9.5 7,-14.3 0.5,-1.1 1.2,-2 2.2,-2.7 2.2,-1.5 4.2,-3.1 6.5,-4.5 3.6,-2.3 7.3,-4.6 11,-6.8 -6.4,1.7 -12.2,4 -17.7,7.3 z"
   id="path13" />
		<path
   class="st0"
   d="m 31.9,153.6 c -4.2,5.7 -8.9,10.6 -15.9,13.8 4.1,0.7 7.6,-0.3 11.8,0 -4.2,3.6 -6.8,7.5 -8.3,12.1 1.6,-1.4 3,-3.2 4.9,-3.7 4.1,-1 5.4,-4 6.2,-7.5 0.1,-0.2 0.1,-0.4 0.2,-0.6 1.2,-3.5 1.2,-3.5 -2.5,-3.5 -0.5,0 -1.2,0.3 -1.5,-0.3 -0.2,-0.5 0.3,-0.8 0.6,-1.2 2.1,-2.9 3.7,-5.8 4.5,-9.1 z"
   id="path14" />
		<path
   class="st0"
   d="m 32.7,103.5 c 0.5,1.2 1,1.6 2,0.5 0.8,-1 1.9,-1.6 3,-2.2 0.9,-0.4 1,-0.9 0.2,-1.6 -0.8,-0.6 -1.4,-1.4 -2.2,-1.9 -2.1,-1.6 -3.1,-3.6 -3.1,-6.2 -0.3,-7.9 0.2,-15.7 1.3,-23.5 0.1,-0.4 0,-0.9 0.5,-1.1 0.5,-0.1 0.7,0.4 0.9,0.7 3.7,5.9 7.4,11.8 11.1,17.7 0.6,1 0.6,1.8 -0.1,2.9 -1.2,1.5 -2.3,3.1 -3.7,5 3,-0.7 5.4,-1.8 8.1,-1.7 -2,2.5 -4.6,4.5 -6.4,7.1 2.3,-1.1 4.6,-2.2 7,-2.5 2.9,-0.4 4.6,-2 6.2,-4.2 1,-1.4 0.9,-2.4 -0.1,-3.7 -2.6,-3.5 -5,-7.1 -7.6,-10.6 C 46,73 42.4,67.8 38.5,62.6 c -1.8,-2.4 -4,-2.2 -5.3,0.5 -0.5,1 -0.9,2.2 -1.2,3.3 -2.2,8.5 -2.5,17 -2.1,25.6 0.4,4 1.3,7.8 2.8,11.5 z"
   id="path15" />
		<path
   class="st0"
   d="m 84.2,132.7 c -0.1,3 1.6,4.4 4.5,5.9 -1.6,-4.4 -3.1,-8.3 -4.5,-12.1 -0.1,0 -0.2,0.1 -0.3,0.1 0.1,1.9 0.4,4 0.3,6.1 z"
   id="path16" />
		<path
   class="st0"
   d="m 91,132.1 c 0.5,1.2 0.8,1.8 1.8,0.5 1.4,-1.8 3.3,-3.1 5.5,-4 1.2,-0.5 1.1,-1 0.2,-1.7 -1.4,-1.1 -2.7,-2.3 -4.2,-3.4 -2,-1.6 -3.1,-3.5 -3.4,-6.1 -1.4,-10.5 -0.7,-20.9 0.7,-31.4 0.3,-2.5 0.5,-5.1 1.3,-7.6 0.3,0.2 0.5,0.3 0.5,0.3 5.7,9.3 11.6,18.3 17.6,27.4 0.7,1 0.5,1.8 -0.2,2.8 -2.1,2.5 -4.1,5.2 -6.5,8.3 4.4,-1.5 8.2,-3 12.3,-3.5 -3.4,3.9 -7.4,7.1 -10.3,11.3 3.1,-1.8 6.3,-3.7 9.8,-4.2 5.1,-0.8 8.1,-3.8 10.7,-7.7 0.8,-1.2 1,-2.1 0.1,-3.3 C 117.6,96.9 108.2,84 98.9,71.1 97,68.4 94.5,68.5 92.4,71 c -1.2,1.5 -1.8,3.3 -2.3,5.1 -3.3,12.3 -4,24.9 -3.3,37.6 0.4,6.2 1.9,12.4 4.2,18.4 z"
   id="path17" />
		<path
   class="st0"
   d="m 228.7,228.8 c 1.6,2.5 3.5,4.1 5.1,5.9 1.6,1.9 3.2,3.8 4.4,5.9 1.2,2 2,4.3 2.7,6.6 -0.8,-5.4 -2.3,-10.4 -5.7,-14.9 -1.4,-2 -3.5,-3.1 -6.5,-3.5 z"
   id="path18" />
		<path
   class="st0"
   d="m 267.6,128.7 c -1,1.5 -2.5,2.8 -3.7,4.2 -0.6,0.7 -1.3,1.3 -1.4,2.7 8.8,-9.1 18.8,-8.1 29.3,-4 -4.7,-3.3 -10.1,-4.8 -15.6,-6 -3.8,-0.9 -6.5,0.1 -8.6,3.1 z"
   id="path19" />
		<path
   class="st0"
   d="m 272.6,134.3 c -0.5,-0.5 -1,0 -1.4,0.3 -2.6,1.5 -5,3.3 -7.2,5.4 3.4,-0.2 6.9,-0.3 8.4,-4.2 0.1,-0.4 0.7,-0.9 0.2,-1.5 z"
   id="path20" />
		<path
   class="st0"
   d="m 304.2,184.8 c 0.1,-0.2 -0.2,-0.5 -0.3,-0.8 -1.7,-2.5 -3.9,-4.3 -6.8,-5.2 -1,-0.3 -2.3,-1.4 -3,-0.3 -0.5,0.8 0.9,1.8 1.6,2.4 5,4.4 8,9.8 7.9,16.6 0.1,-2.2 0.5,-4.2 0.8,-6.3 0.3,-2 -0.9,-4.2 -0.2,-6.4 z"
   id="path21" />
		<path
   class="st0"
   d="m 283.2,140.5 c 0.8,-0.2 1.6,-0.2 2.5,-0.1 1.4,0.3 2.8,0.5 4.4,0.8 -1.6,-2.7 -3.8,-4.2 -6.1,-5.5 -2.8,-1.6 -2.8,-1.5 -5,0.8 -4.6,4.8 -9.4,9.2 -16.6,9.4 -1,0 -1.4,0.7 -1.8,1.4 -1.4,2.7 -2.9,5.4 -3.5,8.4 -0.3,1.4 -0.7,2.9 -1,4.4 -0.8,-0.1 -0.8,-0.5 -0.8,-1 -0.5,-6.3 -0.5,-12.5 2.6,-18.3 1.9,-3.6 3.8,-7.2 5.7,-10.8 2.5,-4.4 4.7,-9.1 5.3,-14.3 0.1,-0.4 -0.1,-1 0.4,-1.1 0.6,-0.2 0.8,0.3 1.1,0.8 0.2,0.4 0.5,0.9 0.5,1.3 0.2,2.3 1.6,3 3.6,3 0.8,0 1.6,0.4 2.2,-0.2 0.5,-0.7 -0.1,-1.4 -0.4,-2.1 -2.6,-5.5 -6.7,-9.8 -11.5,-13.4 -4.6,-3.4 -8.5,-7.5 -10.8,-12.9 1.5,7.4 2.9,14.9 1.9,22.9 2.3,-3.1 3.2,-6.3 3.8,-9.5 3.3,9.6 0.2,18.5 -2.9,27.5 1.8,-1.5 3.5,-2.9 5.3,-4.4 0.5,0.9 0,1.2 -0.2,1.6 -4,6.2 -7.8,12.5 -10.4,19.5 -0.3,0.8 -0.6,2 -2,0.9 -0.5,-0.4 -0.5,0.3 -0.6,0.8 -0.2,1.4 -0.4,2.7 -0.7,4.1 -1.4,6.3 -1.7,12.5 2.3,18.2 0.8,1.2 1.5,2.1 3.1,2.3 2.9,0.3 3.6,1.2 3.5,4.2 -0.1,1 -0.1,1.9 -0.3,2.9 -0.3,1.7 -0.3,3.7 -2.3,4.6 -1.2,0.5 -1.6,1.4 -0.6,2.4 1,1 1.5,3.3 3.6,1.8 3.3,-2.5 5.9,-5.7 8.2,-9.2 0.5,-0.8 0.3,-1.6 0.3,-2.5 -0.1,-4.1 0.3,-8.1 0.9,-12.1 0.1,-0.6 0,-1.4 0.8,-1.8 0.1,0.3 0.3,0.5 0.3,0.8 0.1,2 1.2,2.4 2.9,1.5 0.5,-0.3 1.2,-0.8 1.8,-0.1 -2.9,4.3 -3.2,4.9 -3,7 5.3,-4.4 11.7,-4.6 18.5,-4.7 -2.9,-2.6 -5.8,-4.2 -9,-5.1 -1.3,-0.4 -1.6,-1 -1,-2.3 1.1,-2.1 2.4,-4.2 4.6,-5.3 2,-1 2.2,-2.5 1.8,-4.3 -0.6,-3.1 -1.4,-6.2 -2.7,-9.1 -1,-2 -0.3,-2.8 1.3,-3.2 z m -24.1,28.2 c -1,-0.7 -1,-1.4 -1,-2 0,-3.9 -0.5,-7.7 -0.1,-11.6 0.1,-1.5 0.5,-2.8 1.9,-3.4 3.1,-1.5 6.3,-2.2 9.9,-2.6 -6.1,5.1 -9.6,11.6 -10.7,19.6 z"
   id="path22" />
		<path
   class="st0"
   d="m 246.9,206.3 c -0.3,1 1.2,1.2 2,1.8 0.8,0.6 1.6,1.8 2.9,1.2 2.8,-1.5 5.2,-3.5 7,-6.1 -2.9,1.5 -5.8,2.5 -9.1,2.5 -1,-0.1 -2.5,-0.4 -2.8,0.6 z"
   id="path23" />
		<path
   class="st0"
   d="m 293.3,154.9 c 0.9,3.2 2.2,6.1 4.2,8.7 0.3,0.3 0.8,0.8 0.5,1.3 -0.3,0.6 -1,0.3 -1.5,0.3 -0.3,0 -0.7,-0.1 -1,-0.1 -1.8,-0.2 -2.3,0.3 -1.6,2.1 0.7,2.2 1.4,4.4 2,6.5 0.3,0.8 0.6,1.5 1.5,1.8 3,1.2 5.6,2.9 7.6,5.5 -1.4,-4.7 -3.8,-8.9 -7.8,-12.4 4,-0.4 7.3,0.3 10.7,-0.4 -6.2,-3 -10.8,-7.7 -14.6,-13.3 z"
   id="path24" />
		<path
   class="st0"
   d="m 307.7,143.8 c -0.5,-1.1 -0.7,-1.6 0.9,-2 0.8,-0.1 2.8,-0.1 1.8,-1.9 -3.1,-5.9 -5.3,-12.3 -7.8,-18.5 -0.6,-1.4 -1.4,-2.7 -2.8,-3.5 -5.5,-3.6 -11.6,-5.9 -17.9,-7.8 5.7,3.2 10.9,7 16.2,10.8 0.9,0.7 1.8,1.4 2.3,2.4 2.3,5 4.6,10 6.9,15.1 0.2,0.5 0.7,1 0.1,1.5 -0.5,0.5 -1.2,0.1 -1.7,-0.2 -1.4,-0.9 -2.8,-1.8 -4.4,-2.8 3.5,10 9.8,17.5 16.4,18.9 -4.4,-3.6 -7.8,-7.4 -10,-12 z"
   id="path25" />
		<path
   class="st0"
   d="m 247.7,184.9 c -0.6,-1 -2.2,-1.9 -1.7,-2.9 0.5,-1.1 2.3,-0.2 3.5,-0.4 0.2,-0.1 0.3,-0.1 0.5,-0.2 -0.7,-1.3 -0.7,-1.4 0.6,-1.9 0.9,-0.4 0.3,-0.9 0.1,-1.3 -4.4,-7.9 -7.5,-16.3 -10.8,-24.6 -1.2,-3.1 -3.2,-5.3 -6,-7 -7.3,-4.4 -15,-7.6 -23,-10.2 -0.3,-0.1 -0.8,-0.5 -1.2,0 8.4,4.8 16.4,10.2 24.1,16 0.9,0.7 1.6,1.4 2.1,2.5 3.3,7.3 6.5,14.7 10.1,21.8 0.3,0.7 1.2,1.6 0.3,2.2 -0.8,0.6 -1.6,-0.1 -2.3,-0.6 -2.6,-1.6 -5,-3.4 -7.4,-5.5 2.4,11.4 16.6,26.6 25.2,26.7 -5.8,-3.9 -10.4,-8.8 -14.1,-14.6 z"
   id="path26" />
		<path
   class="st0"
   d="m 225.8,196.9 c -0.1,0.7 0.1,1.2 0.3,1.6 1.6,4 3.5,7.8 6.1,11.3 0.3,0.5 1,1 0.6,1.6 -0.3,0.5 -1.2,0.3 -1.8,0.2 -0.9,-0.1 -1.8,-0.2 -2.7,-0.3 -1.6,-0.1 -2.3,0.4 -1.8,2.2 1.1,3.3 2,6.8 3.1,10.1 0.3,0.8 0.7,1.5 1.6,1.8 5.5,1.5 10,4.6 13.5,9.1 -2,-7.4 -5.8,-13.6 -12.1,-18.2 7,0.1 13.8,0.8 20.7,0.4 -11.2,-3.6 -21,-9.3 -27.5,-19.8 z"
   id="path27" />
		<path
   class="st0"
   d="m 210.3,162.9 c 5.3,0.9 10.4,2.5 15.6,4.2 -1.1,-0.7 -2.2,-1.4 -3.3,-2 -7.7,-4.4 -16.1,-6.3 -24.8,-7.4 -1.4,-0.2 -2.4,0.4 -3.3,1.3 -3.3,3.2 -6.3,6.7 -9.2,10.3 -0.6,0.8 -1.4,1.4 -1.8,2.9 2.1,-1.5 3.9,-2.8 5.7,-4.1 6.2,-4.9 13.3,-6.5 21.1,-5.2 z"
   id="path28" />
		<path
   class="st0"
   d="m 199.1,168.8 c -5,2.7 -9.4,6 -14,9.3 7.7,0.8 13.3,-3 14,-9.3 z"
   id="path29" />
		<path
   class="st0"
   d="m 213.7,178.5 c 0.7,0 1.4,0.1 2,0.1 2.1,0.1 4.2,0.8 6.5,1.2 -0.2,-0.5 -0.3,-0.8 -0.4,-1 -2.5,-3.5 -6,-5.6 -9.7,-7.6 -2,-1.1 -3.1,-0.8 -4.7,1 -6,7 -12.6,13 -22.6,13.5 -1.1,0.1 -1.8,0.7 -2.5,1.6 -3.1,4.9 -5.3,10.2 -6.1,15.9 -0.1,0.9 -0.1,1.8 -1,2.7 -0.8,-1.4 -0.6,-2.8 -0.7,-4 -0.6,-7.8 -0.1,-15.5 3.4,-22.8 3.1,-6.3 6.6,-12.3 9.8,-18.5 2.5,-5 4.8,-10.1 5.2,-15.8 0.1,-0.7 -0.7,-1.7 0.3,-2 0.8,-0.2 1.1,0.9 1.5,1.5 0.2,0.3 0.5,0.8 0.5,1.1 0.1,4.2 2.9,5 6.4,5 0.6,0 1.2,0.1 1.8,0.3 1.1,0.2 1.3,-0.2 1,-1.1 -0.7,-1.6 -1.4,-3.3 -2.2,-4.9 -3.7,-7.3 -9.5,-12.7 -16,-17.4 -5.9,-4.4 -10,-10 -12.8,-16.6 -0.2,-0.5 -0.5,-1.1 -0.8,-1.6 2,10.8 4.1,21.5 2.9,32.7 3.1,-3.8 4.4,-8.3 5.1,-12.9 4,14 -0.1,26.7 -6,39.7 2,-1.7 3.4,-3 5,-4.2 1.5,-1.2 2.8,-2.7 4.7,-3.5 0.1,1 -0.3,1.3 -0.5,1.7 -5.7,8.3 -10.9,17 -14.6,26.4 -1,2.6 -1.4,2.7 -3.3,0.1 -0.3,0.5 -0.5,0.8 -0.5,1.1 -2.4,10.3 -3.7,20.8 -5.5,31.2 -0.2,1.1 0.3,1.4 1.4,1.5 3.7,0.5 7.4,1.2 11,1.9 2.5,0.5 3.3,1.4 3.3,4 0,6.3 -1.8,11.6 -8.1,14.3 -2,0.9 -4,2 -5.4,3.8 -0.5,0.6 -1.3,1.3 -1,2.1 0.3,0.9 1.4,0.8 2.2,0.8 3.5,-0.1 6.9,-0.2 10.4,-0.3 1.4,0 2.5,-0.5 3.5,-1.4 2.9,-2.4 5.5,-5 8,-7.7 2.5,-2.6 3.4,-5.5 3.3,-9 -0.1,-5.9 0.6,-11.7 1.6,-17.5 0.1,-0.5 0,-1.3 0.9,-1.4 0.5,1.1 0.2,2.2 0.3,3.3 0.2,1.5 0.6,2.1 2.3,1.4 1.6,-0.7 3.1,-1.5 5.1,-1.3 -4.1,2.7 -5.1,6.8 -5.9,11.1 7.3,-7 16.6,-7 25.8,-7.9 -0.7,-1.2 -1.6,-1.7 -2.5,-2.3 -3.1,-2.1 -6.3,-3.9 -10,-4.8 -1.6,-0.4 -2,-1.1 -1.2,-2.7 1.8,-3.5 4,-6.6 7.6,-8.5 1.2,-0.7 1.9,-1.5 1.6,-2.9 -0.8,-4.9 -1.8,-9.8 -3.8,-14.4 -1.1,-3.8 -0.5,-4.8 3.4,-5 z m -28.9,23.8 c -2.8,4.8 -3.7,10.3 -5.3,15.5 -0.8,-0.5 -0.7,-1 -0.7,-1.4 -0.6,-6.3 -0.5,-12.5 0.1,-18.8 0.1,-1.6 0.8,-2.9 2.3,-3.7 4.5,-2.2 9.4,-2.9 14.3,-4 -3.7,4.1 -7.9,7.6 -10.7,12.4 z"
   id="path30" />
		<path
   class="st0"
   d="m 139.5,251.5 c 4.7,6.4 11,10.8 18.8,13.3 0.9,0.3 1.8,0.3 2.7,0.1 8.1,-2.2 14.5,-6.8 19.1,-13.3 -13.6,6.2 -27.1,6.6 -40.6,-0.1 z"
   id="path31" />
		<path
   d="m 322.6,156.4 c -3,-2.5 -5.1,-5.9 -6.1,-9.8 -0.8,-3.2 -1.9,-6.3 -1.2,-9.5 0.1,-0.4 0.2,-0.8 0.2,-1.3 -0.1,-1 -1.4,-1.9 -2,-2.7 -2.9,-3.5 -4.4,-8 -4,-12.7 0.2,-2.1 -2,-2.8 -3.3,-4.2 -1,-1 -1.6,-2.4 -2.5,-3.3 -1.4,-2.4 -2.1,-5.1 -2.2,-7.8 0,-3.1 0.4,-6.2 1,-9.3 0,0.2 -0.1,0.3 -0.1,0.5 -0.1,-2.9 0.7,-5.9 0.8,-8.8 0.1,-3.3 0,-6.7 -0.3,-10 -0.3,-4.4 -1.5,-9.6 -3.7,-13.5 -1.8,-3.3 -4,-6.4 -6.1,-9.5 -0.4,-0.6 -2,-2.7 -4.2,-0.7 -3.2,3.2 -24.6,22.1 -26.9,23.2 -0.5,0.8 -21.2,-1.2 -25.4,0.8 -1.5,0.7 -2,0.3 -2.3,-1.4 -1,-6.7 -2.3,-13.3 -4.6,-19.7 -0.8,-2.2 -1.7,-4.2 -3.2,-6 -2.2,-2.5 -3.5,-2.5 -5.4,0.2 -3.8,5.3 -7.6,10.5 -11.7,15.5 -7.8,9.3 -16.2,18 -25.4,26 -1.7,1.5 -3.3,1.8 -5.5,1 -9.7,-4 -19.5,-7.6 -29.1,-12.1 -0.5,-0.2 -1.1,-0.9 -1.6,-0.2 -0.3,0.5 0.1,1 0.4,1.5 1,1.9 2.5,3.3 4,4.7 0.9,0.8 0.8,1.2 -0.3,1.6 -4.1,1.3 -8.1,2.7 -12,4.4 -1.8,0.9 -3.3,0.6 -4.8,-0.7 -12.5,-10.9 -23.9,-22.9 -33.6,-36.5 -1.2,-1.8 -2.4,-3.5 -3.7,-5.3 -0.7,-1 -1.3,-2.5 -2.8,-2 -1.5,0.5 -2.9,1.4 -3.7,3 -3.5,6.8 -4.9,14 -6.3,21.3 -0.3,1.8 -0.7,1.1 -2.5,1.4 -4.8,0.7 -13.1,3.1 -15.5,4 C 65.8,79 62.7,77 62.2,76.6 60.7,75.3 40.9,55.7 37.9,54.2 c -2.5,-2.9 -4.4,0.5 -4.6,0.5 -1.2,2.1 -2.4,4.3 -3.5,6.5 -2.2,5.3 -3.7,10.8 -4.8,16.4 -1.1,8 -1.3,16.2 -1.3,24.3 0,3.3 -1.1,6.5 -3,9.1 -3.3,4.4 -7.7,6.4 -10,11.8 -2.3,5.3 -3.4,11.2 -3.9,16.9 -0.5,6.7 -6.1,11.2 -6.8,17.7 -0.5,5.7 0.5,11.9 2.1,17.4 3.5,11.6 10.8,21.7 20,29.4 -4.8,-4 3.5,-17.5 6,-20.8 -0.8,3.8 -2.5,8 -2.5,11.9 -0.3,3.1 4.6,22.9 5.4,22.6 0.9,-0.3 0.4,-1.5 0.3,-2.3 -0.3,-6.6 1.4,-12.5 5.8,-17.7 -1.4,8.5 -2,17 -0.1,25.5 2,8.5 6.1,15.8 12.4,22 -1.4,-4 -3.4,-7.8 -3.8,-12 0.1,0 0.3,-0.1 0.3,-0.1 3.2,6.3 8.2,11.3 13.2,16 5.5,5.3 10.9,10.6 15.1,17 0.3,0.5 0.8,1.5 1.5,1.2 0.8,-0.3 0.3,-1.2 0.1,-1.9 -1.6,-8 -4.7,-15.4 -7.8,-22.8 -1.4,-3.3 -3,-6.7 -4.2,-10.2 2.5,3.6 5,7.2 7.4,10.8 1.2,1.8 2.4,3.5 3.5,5.3 0.7,1.1 1.4,1 2,-0.1 0.3,-0.6 0.8,-1.2 1,-1.8 1.6,-4.6 3.7,-9.1 6.5,-13.2 0.2,-0.3 0.5,-0.8 0.5,-1.1 0.1,-3.1 2.5,-3.1 4.7,-3.8 -0.1,1.1 -0.8,1.6 -1.3,2.1 -3.1,3.7 -6.1,7.5 -7.9,12.1 -2,4.9 -2.4,9.9 -0.9,15 0.8,2.7 1.5,5.3 0.5,8.1 -0.1,0.3 -0.1,0.7 0.4,1.1 1.3,-1.6 2.3,-3.2 1.8,-5.5 -2.3,-9.7 -0.1,-18.5 5.4,-26.5 0.2,-0.3 0.5,-0.6 0.9,-0.9 -1,3.9 -2,7.7 -2.8,11.6 -1.9,10.6 -1.4,20.8 4.4,30.2 0.6,1 1.1,2.9 2.3,2.5 1,-0.3 0.1,-2 0,-3 -0.3,-8.4 1.4,-16.2 6.5,-23 0.3,-0.5 0.5,-1.2 1.4,-1.2 -0.7,4.6 -1.2,9.2 -1.2,13.8 0,17.5 5.7,32.7 18,45.3 0.4,0.4 0.8,0.8 1.2,1.2 0.3,0 0.5,0 0.8,0 0.1,0 0.2,0 0.3,0 -1.5,-3.6 -3.6,-7 -4.9,-10.6 -1,-2.6 -1.8,-5.2 -2.3,-8 0.3,0 0.4,0 0.5,0.1 4.4,8.9 11.6,15.3 19.2,21.4 8.5,6.8 16.6,13.9 22.9,22.9 0.3,0.5 0.7,1.3 1.4,1 0.7,-0.3 0.3,-1.1 0.2,-1.7 -1.6,-9.1 -5.2,-17.6 -8.8,-26 -2.8,-6.6 -5.9,-13.1 -9.1,-19.5 -0.3,-0.5 -0.8,-1 -0.5,-1.9 3.8,5.2 7.5,10.2 11.3,15.3 2.9,3.8 5.7,7.6 8.5,11.5 1.4,1.9 1.5,1.9 2.9,0 6.3,-8.5 12.7,-16.9 19,-25.3 0.5,-0.7 1,-1.3 1.6,-2 0.2,1 -0.3,1.5 -0.7,2 -5.5,11 -10.8,22.2 -15,33.9 -1.4,4 -2.8,8.1 -3.5,12.3 -0.1,0.4 -0.4,1 0.2,1.3 0.5,0.3 0.9,-0.3 1.1,-0.7 7,-10.2 16.6,-17.7 26,-25.4 6.8,-5.6 12.8,-12 16.9,-19.9 -0.8,6.9 -3.9,13 -7.2,19 4.6,-1 14.6,-16.6 17.8,-27.5 3.2,-10.8 3.2,-21.9 1.7,-33.1 3.6,3.6 5.9,7.9 7.4,12.8 1.6,4.9 1.4,9.9 0.9,15 4.1,-2.3 8,-14.3 8.1,-21.3 0.1,-7.9 -1.6,-15.4 -4,-22.9 5,5.1 7.2,11.3 7.7,18.3 0.1,2.2 0.3,4.4 -0.3,6.6 -0.5,1.6 0.1,2.9 0.9,4.4 1.2,2.3 2.7,4.2 4.4,6.4 0.7,-1 0.4,-1.8 0.2,-2.5 -0.5,-1.8 -0.9,-3.7 -1.8,-5.3 -1.9,-3.5 -1.2,-7.2 -0.9,-10.8 0.5,1.4 1.5,2.6 2.3,3.8 0.9,1.5 1.7,1.4 2.6,0.1 2,-3.1 4,-6.1 6,-9.2 2.6,-3.8 5.2,-7.6 7.9,-11.4 -5.1,11.7 -10.7,23.2 -12.8,36 1.1,0.1 1.3,-0.5 1.6,-0.9 4.4,-7 10.3,-12.8 16.4,-18.3 5.3,-4.8 10.1,-10 13.4,-16.5 -0.5,4.8 -2.7,8.9 -4.4,13.4 6.5,-6.4 10.9,-14 12.7,-23 1.8,-8.9 1.4,-17.8 0.2,-26.7 3.2,3.2 5.1,7 6.1,11.3 0.7,2.8 0.5,5.6 0.3,8.5 0,0.4 -0.3,0.9 0.2,1.1 0.5,0.2 0.9,-0.3 1.1,-0.8 1.4,-3.1 2.9,-6.2 3.7,-9.5 0.1,-0.4 2.3,-11.2 -3,-25.7 5,4.8 6,12 6,18.6 0,0.8 0.1,6.7 -0.5,7.6 0.5,-0.8 1.2,-1.6 1.8,-2.2 1.1,-1.1 2.4,-2 3.8,-2.7 0,-0.1 0,-0.2 0,-0.3 -0.1,-3.8 1.8,-8 4.4,-10.8 -1.1,-2.3 -1.7,-4.8 -1.7,-7.4 -0.1,-2.8 1,-5.9 2.6,-8.5 -0.6,-1.8 -1,-3.7 -1,-5.6 -0.1,-4.1 2.2,-8.7 5,-11.6 2,-2.2 4.4,-3.6 6.9,-4.3 z M 266.9,90.1 c 6.2,-8.9 12.4,-17.7 18.8,-26.5 1.7,-2.4 4.2,-2 5.5,0.8 1.4,3.1 2,6.5 2.4,9.8 1,8.5 1.5,16.9 -0.3,25.3 -0.4,1.9 -1,3.8 -1.8,5.5 -0.4,0.9 -0.9,1.2 -1.7,0.3 -0.5,-0.6 -1.2,-1.2 -1.9,-1.6 -2.3,-1.4 -2.5,-1.7 -0.3,-3.1 3.5,-2.4 4,-5.9 4.2,-9.5 0.3,-7.4 -0.4,-14.6 -1.3,-21.8 0,-0.3 -0.2,-0.5 -0.5,-1.1 -4.1,6.5 -8,12.8 -11.9,19.1 -0.5,0.9 -0.5,1.6 0.2,2.5 1.2,1.5 2.4,3 3.8,4.9 -3.1,-0.1 -5.4,-1.4 -8.5,-1.8 2,2.9 4.8,4.6 6.8,7.8 -3.5,-1.9 -6.8,-2.7 -9.9,-3.9 -2.1,-0.8 -3,-3.1 -4.1,-5 -0.3,-0.6 0.2,-1.2 0.5,-1.7 z m -37.2,49.3 c 1.6,-4 3,-7.6 4.5,-11.3 1.1,6.2 -0.1,9.4 -4.5,11.3 z m -37.8,-30.3 c 6.1,-8.5 12.1,-17 18.2,-25.4 2.9,-4 5.8,-8 8.8,-12.1 2.8,-3.8 6.3,-3.3 8.3,1 1.6,3.5 2.2,7.3 2.8,11 2.3,13 3,25.9 0.7,38.9 -0.6,3.3 -1.7,6.5 -2.9,9.8 -0.5,1.5 -1,1.5 -2,0.3 -1.4,-1.7 -3.1,-2.9 -5.1,-3.8 -1.2,-0.5 -1.3,-1.1 -0.3,-1.9 1,-0.7 1.8,-1.6 2.7,-2.2 3.1,-2 4.4,-5 4.8,-8.7 1.2,-12.6 -0.2,-25 -2.3,-38.1 -1.7,2.7 -3.1,4.9 -4.5,7.2 -4.4,6.9 -8.8,13.7 -13.2,20.5 -0.9,1.4 -0.9,2.4 0.2,3.7 2,2.3 3.9,4.8 5.7,7.6 -3.8,-1.2 -7.7,-2.4 -11.5,-3.6 -0.1,0.2 -0.3,0.4 -0.4,0.6 3.5,3.7 7.6,6.8 10.6,11 -0.8,0.2 -1.1,-0.3 -1.6,-0.5 -4,-2.3 -8.1,-3.8 -12.5,-4.8 -1.4,-0.3 -2.5,-0.9 -3.3,-2.2 -1,-1.4 -2,-2.9 -3.1,-4.1 -1.3,-1.5 -1.3,-2.6 -0.1,-4.2 z M 90.2,75.9 c 0.5,-1.8 1,-3.6 2.3,-5.1 2,-2.6 4.6,-2.6 6.5,0.1 9.3,12.9 18.7,25.8 28,38.7 0.9,1.2 0.8,2 -0.1,3.3 -2.6,4 -5.6,7 -10.7,7.7 -3.5,0.5 -6.7,2.4 -9.8,4.2 2.9,-4.2 7,-7.4 10.3,-11.3 -4.1,0.6 -7.9,2 -12.3,3.5 2.4,-3.1 4.4,-5.7 6.5,-8.3 0.8,-1 0.9,-1.7 0.2,-2.8 -5.9,-9.1 -11.9,-18.1 -17.5,-27.4 -0.1,-0.1 -0.2,-0.1 -0.5,-0.3 -0.8,2.5 -1,5.1 -1.3,7.6 -1.4,10.4 -2.2,20.9 -0.7,31.4 0.3,2.6 1.4,4.6 3.4,6.1 1.4,1.1 2.8,2.3 4.2,3.4 0.9,0.8 1,1.2 -0.2,1.7 -2.1,0.9 -4,2.3 -5.5,4 -1.1,1.3 -1.4,0.7 -1.8,-0.5 -2.3,-6 -3.9,-12.3 -4.2,-18.7 -0.8,-12.4 -0.2,-25 3.2,-37.3 z m -6,50.5 c 1.4,3.9 2.9,7.7 4.5,12.1 -2.9,-1.5 -4.6,-2.9 -4.5,-5.9 0.1,-2 -0.2,-4.1 -0.3,-6.1 0.1,0 0.2,0 0.3,-0.1 z m -52.1,-60 c 0.3,-1.2 0.7,-2.3 1.2,-3.3 1.4,-2.7 3.5,-2.9 5.3,-0.5 3.8,5.2 7.5,10.4 11.3,15.6 2.5,3.5 5,7.1 7.6,10.6 1,1.3 1,2.3 0.1,3.7 -1.6,2.3 -3.3,3.8 -6.2,4.2 -2.5,0.3 -4.7,1.4 -7,2.5 1.8,-2.6 4.3,-4.6 6.4,-7.1 -2.8,-0.1 -5.2,1 -8.1,1.7 1.4,-1.9 2.5,-3.5 3.7,-5 0.8,-1 0.8,-1.8 0.1,-2.9 C 42.7,80 39.1,74.1 35.3,68.2 35.1,67.9 35,67.3 34.4,67.5 c -0.5,0.1 -0.4,0.7 -0.5,1.1 -1.1,7.8 -1.5,15.6 -1.3,23.5 0.1,2.6 1,4.6 3.1,6.2 0.8,0.5 1.4,1.3 2.2,1.9 0.7,0.6 0.7,1.2 -0.2,1.6 -1.2,0.5 -2.2,1.2 -3,2.2 -1,1.1 -1.6,0.7 -2,-0.5 C 31.3,99.8 30.3,96 30.1,92 29.6,83.5 30,74.9 32.1,66.4 Z m -5.2,97.4 c 0.3,0.7 1,0.3 1.5,0.3 3.7,0 3.7,0 2.5,3.5 -0.1,0.2 -0.2,0.4 -0.2,0.6 -0.8,3.5 -2.1,6.5 -6.2,7.5 -1.9,0.5 -3.4,2.3 -4.9,3.7 1.5,-4.6 4.2,-8.5 8.3,-12.1 -4.2,-0.3 -7.7,0.8 -11.8,0 7,-3.1 11.7,-8.1 15.9,-13.8 -0.9,3.3 -2.5,6.3 -4.4,9 -0.3,0.5 -0.9,0.8 -0.7,1.3 z M 26,120.1 c -1,0.7 -1.6,1.6 -2.2,2.7 -2.3,4.8 -4.4,9.7 -7,14.3 -0.3,0.5 -0.8,1 -0.4,1.5 0.4,0.5 1.2,0.3 1.7,0 1.6,-0.9 3.2,-1.8 4.8,-2.8 -3.5,8 -7.5,15.6 -16.4,19 1.6,-1.8 3.5,-3.3 5.1,-5.2 1.8,-2.2 3.3,-4.6 4.7,-7 0.8,-1.4 0.3,-1.8 -1.1,-1.9 -1.8,-0.1 -2.5,-1.2 -1.6,-2.7 3.2,-5.3 5.2,-11.1 7.7,-16.7 1,-2.3 2.4,-4 4.5,-5.2 5.5,-3.3 11.4,-5.7 17.5,-7.4 -3.7,2.3 -7.4,4.5 -11,6.8 -2.1,1.6 -4.1,3.1 -6.3,4.6 z m 8.2,9.4 c 5.5,-3.1 11.5,-4.7 17.7,-5.3 1,-0.1 2,-0.1 2.7,0.6 3.1,2.9 5.8,5.9 8.1,9.7 -8.9,-9.1 -19,-8.1 -29.7,-3.9 0.3,-0.7 0.8,-0.8 1.2,-1.1 z m 27.9,9.8 c -4.2,-0.3 -7.9,-0.5 -9.5,-4.8 -0.1,-0.4 -0.6,-1 -0.3,-1.3 0.5,-0.5 1,0 1.4,0.3 2.7,1.8 5.4,3.7 8.4,5.8 z m -4.4,25 c -1.2,0.8 0.1,2.6 -1.3,2.8 -0.9,0.1 -1.9,-0.5 -2.9,-0.9 -0.4,-0.1 -0.8,-0.3 -1.4,0.2 2.2,1.7 2.9,4.2 3.2,6.9 -2.5,-1.9 -5.3,-3.2 -8.3,-3.8 -2.9,-0.7 -6,-0.8 -9.6,-1.1 2.3,-2.1 4.4,-3.3 6.8,-4.3 0.5,-0.3 1.2,-0.5 1.7,-0.7 1.8,-0.4 1.8,-1.4 1,-2.7 -1.2,-2.1 -2.7,-4 -4.9,-5.2 -1.4,-0.7 -1.7,-1.6 -1.4,-3 0.6,-3.5 1.6,-6.9 3,-10.1 0.8,-1.8 0.3,-2.7 -1.7,-2.9 -2.1,-0.3 -4.2,0.2 -6.2,0.8 -0.4,-0.9 0.1,-1.2 0.4,-1.6 1,-1.2 2.3,-2.2 3.6,-3.1 4,-2.6 4,-2.5 7.2,0.8 4.2,4.4 8.9,8.1 15.3,8.6 1.3,0.1 1.9,0.8 2.5,1.8 1.9,3.4 3.1,7.1 4,10.8 0.1,0.6 0,1.3 0.8,1.7 0.6,-0.5 0.5,-1.2 0.5,-1.8 0.7,-6 0.3,-11.8 -2.5,-17.3 -2.7,-5.3 -5.9,-10.4 -8.3,-16 -1.3,-3 -2.6,-5.9 -2.7,-9.3 0,-0.5 0,-1.1 -0.6,-1.1 -0.5,-0.1 -0.7,0.4 -0.9,0.8 -0.2,0.3 -0.4,0.6 -0.5,1 -0.2,3.1 -2.3,3.3 -4.8,3.5 -1.8,0.1 -2,-0.4 -1.3,-1.8 2,-4.3 4.8,-8 8.5,-11.1 2,-1.8 4.1,-3.5 6.3,-5.1 3.8,-2.7 6.2,-6.4 8.3,-10.5 -0.6,3.6 -1.2,7.2 -1.9,10.8 -0.6,3.6 -0.3,7.2 -0.5,11.3 -2.1,-2.9 -2.9,-5.7 -3.4,-8.9 -1.8,4.5 -1.8,9.1 -1,13.8 0.8,4.6 2.5,9.1 4.1,13.6 -1.9,-1.6 -3.8,-3.1 -5.7,-4.7 -0.7,0.6 -0.2,1 -0.1,1.2 4.2,6.4 8,13.1 10.7,20.3 0.3,0.8 0.5,1.8 1.8,1.1 0.7,-0.4 0.8,0.5 1,1 0.4,1.6 0.2,3.3 -0.3,4.9 -2.9,9.5 -6.9,18.5 -12.4,26.7 -0.4,0.6 -1.2,1.2 -0.8,2 0.4,0.8 1.4,0.8 2.2,0.8 1.3,0.1 2.6,0 4.3,0 -1,1.3 -1.7,2.4 -2.5,3.5 -0.5,0.8 -1.2,0.6 -1.8,0 -2,-2.3 -4.1,-4.5 -5.7,-7.1 -0.5,-0.8 -0.5,-1.7 -0.5,-2.6 -0.3,-4.2 -0.5,-8.4 -0.8,-12.6 0,-0.5 0,-1.1 -0.5,-1.4 z m 0.2,35.8 c 1.7,-1.4 3.3,-2.7 4.9,-4 4.4,-3.8 7.6,-8.5 10.7,-13.4 0.7,-1 0.5,-1.5 -0.8,-1.5 -0.8,0 -1.5,0 -2.3,0 -0.3,0 -1,-0.1 -0.8,-0.3 1.1,-1.8 -0.6,-1.4 -1.4,-1.7 4.9,-8.3 7.8,-17.3 11.5,-26 1.2,-3 3.1,-5.1 5.8,-6.8 7.2,-4.5 15,-7.6 23,-10.3 0.1,-0.1 0.3,0 0.9,0 -3.7,2.3 -7.2,4.4 -10.5,6.8 -4.6,3.1 -9.1,6.3 -13.6,9.5 -0.8,0.6 -1.4,1.4 -1.7,2.3 -3.3,7.5 -6.5,15.1 -10.4,22.4 -0.3,0.5 -0.8,1.2 -0.2,1.7 0.5,0.5 1.2,0.1 1.7,-0.2 2.8,-1.6 5.4,-3.5 8,-5.7 -0.2,8.7 -15.3,25.4 -24.8,27.2 z m 7.1,1.6 c 0.1,-0.5 0.7,-0.6 1.1,-0.7 2,-0.4 3.8,-1.3 5.6,-2 1,-0.3 1.9,-0.8 3.3,-0.2 -2.3,1.8 -4.4,3.3 -6.9,4.2 -0.8,0.3 -1.5,0.4 -2.2,0 -0.5,-0.3 -1,-0.7 -0.9,-1.3 z m 21.7,9.7 c 0.3,0.7 1.1,0.3 1.7,0.2 5,-0.6 5.1,-0.5 3.7,4.2 -0.8,2.5 -1.5,5 -2.3,7.5 -0.3,1 -0.7,1.7 -1.8,2 -5.9,1.6 -10.5,5 -13.8,10.2 1,-3.9 2.6,-7.5 4.8,-10.8 2.2,-3.3 4.8,-6.1 8,-8.6 -7,-0.3 -13.8,1 -20.9,0.5 11.6,-3.7 21.3,-9.8 27.8,-20.5 -1.3,5 -3.5,9.4 -6.5,13.6 -0.3,0.6 -1.1,1 -0.7,1.7 z m 16.4,-49.5 c 5.7,-2.3 11.7,-3.5 17.8,-4.4 1.2,-0.1 2.3,0 3.3,0.9 4.2,4 7.8,8.5 11.2,13.2 -3,-2 -6,-4 -9,-5.9 -5.5,-3.6 -11.4,-3.8 -17.5,-2.9 -5.1,0.8 -10,2.3 -14.9,4.1 2.8,-2.2 5.9,-3.7 9.1,-5 z m 30.8,16.2 c -6.8,1.4 -12.7,-2.5 -13.6,-8.8 2,0.4 10.5,5.9 13.6,8.8 z m -2.3,59.5 c -0.8,-1.1 -1,-2.3 -1,-3.5 -0.1,-6.7 -0.5,-13.4 -1.6,-20 -0.1,-0.7 -0.1,-1.4 -1,-2.2 -0.2,1.4 -0.5,2.6 -0.5,3.7 0,1.8 -0.8,1.8 -2.2,1.2 -1.5,-0.7 -3,-1.3 -5,-1.2 4,2.8 5,7 5.9,11.5 -7.2,-7.4 -16.6,-7.6 -26.4,-8.3 3,-2.6 5.9,-4.4 9.1,-5.7 1.3,-0.5 2.6,-1 3.9,-1.4 1.6,-0.4 1.7,-1.2 1,-2.6 -1.8,-3.6 -4.1,-6.8 -7.8,-8.6 -1.3,-0.7 -1.7,-1.5 -1.5,-2.9 0.7,-5.4 2,-10.6 4.2,-15.5 1.1,-2.5 0.8,-2.9 -1.9,-3.4 -3.3,-0.5 -6.5,0.4 -10.2,1.4 1.4,-2.4 3.1,-3.8 4.8,-5.3 2,-1.7 4.4,-2.9 6.8,-4 1.2,-0.5 2,-0.4 2.8,0.7 2.3,3.1 5.3,5.7 8.1,8.3 4,3.5 8.8,5.4 14,5.9 2,0.2 3.1,1.1 4,2.7 2.7,4.9 4.6,10 5.5,15.5 0.1,0.7 0.1,1.4 0.7,1.9 0.6,0 0.7,-0.5 0.7,-0.8 0.5,-5.3 0.8,-10.6 0.1,-15.9 -0.3,-2.8 -1.3,-5.3 -2.4,-7.9 -3.1,-7.1 -7.1,-13.7 -10.6,-20.7 -2.6,-5.2 -5,-10.4 -5,-16.4 0,-0.5 0.1,-1.1 -0.5,-1.2 -0.5,-0.1 -0.8,0.5 -1.1,0.8 -0.9,1.3 -1.6,2.8 -1.7,4.4 -0.1,1.2 -0.8,1.6 -1.8,1.8 -1.8,0.2 -3.5,0.4 -5.3,0.8 -1.7,0.3 -1.7,-0.4 -1.2,-1.7 2.3,-5.4 5.4,-10.3 9.4,-14.5 2.7,-2.9 5.7,-5.5 8.9,-7.8 6,-4.3 9.8,-10.2 12.6,-16.8 0.2,-0.5 0.5,-1.1 0.8,-1.6 -2,11.1 -4.3,22.2 -2.7,33.7 -1.2,-1 -2.6,-3.5 -3.6,-6 -0.9,-2.3 -1,-4.7 -1.7,-7.1 -1.9,2 -2.3,12.9 -1,19.8 1.3,6.7 3.9,13 6.8,19.6 -3.3,-2.7 -5.9,-5.3 -9.1,-7.4 -0.3,1 0.3,1.6 0.7,2.1 5.5,8.5 10.7,17 14.3,26.6 0.5,1.2 0.9,2.4 2.3,0.5 0.9,-1.3 1.2,0.1 1.4,0.7 0.8,3.5 1.5,7 2.1,10.6 1.1,6.5 2,13 3.1,19.4 0.3,1.6 -0.2,2.1 -1.6,2.3 -3.5,0.5 -6.9,1.2 -10.4,1.8 -2,0.3 -2.9,1.6 -3.1,3.6 -0.3,6.5 1.5,11.9 8,14.8 2.3,1 4.5,2.4 5.9,4.7 0.7,1.1 0.5,1.6 -0.9,1.6 -4,-0.1 -8,-0.1 -12,-0.1 -1,0 -1.8,-0.4 -2.7,-1 -3.9,-3.4 -7.3,-7 -10.4,-10.9 z m 29.3,27.3 c -0.9,0.2 -1.8,0.1 -2.7,-0.1 -7.7,-2.5 -14,-6.9 -18.8,-13.3 13.5,6.7 27.1,6.3 40.6,0.1 -4.7,6.5 -11,11.1 -19.1,13.3 z m 49.8,-81.7 c 2,4.6 3,9.5 3.8,14.4 0.2,1.4 -0.4,2.3 -1.6,2.9 -3.5,1.9 -5.9,4.9 -7.6,8.5 -0.8,1.6 -0.3,2.3 1.2,2.7 3.6,1 7,2.7 10,4.8 0.9,0.6 1.8,1.2 2.5,2.3 -9.2,0.8 -18.5,0.9 -25.8,7.9 0.8,-4.4 1.8,-8.5 5.9,-11.1 -2,-0.1 -3.5,0.6 -5.1,1.3 -1.6,0.7 -2,0.1 -2.3,-1.4 -0.1,-1.1 0.1,-2.2 -0.3,-3.3 -0.9,0.1 -0.8,0.9 -0.9,1.4 -1,5.8 -1.7,11.6 -1.6,17.5 0.1,3.5 -0.9,6.4 -3.3,9 -2.6,2.7 -5.2,5.3 -8,7.7 -1,0.9 -2.2,1.4 -3.5,1.4 -3.5,0.1 -6.9,0.2 -10.4,0.3 -0.8,0 -1.8,0.2 -2.2,-0.8 -0.3,-0.9 0.5,-1.5 1,-2.1 1.4,-1.8 3.4,-2.9 5.4,-3.8 6.3,-2.7 8.1,-8 8.1,-14.3 0,-2.6 -0.8,-3.5 -3.3,-4 -3.7,-0.8 -7.3,-1.4 -11,-1.9 -1,-0.1 -1.6,-0.4 -1.4,-1.5 1.7,-10.4 3.1,-20.9 5.5,-31.2 0.1,-0.3 0.3,-0.6 0.5,-1.1 1.9,2.5 2.3,2.5 3.3,-0.1 3.7,-9.4 8.9,-18.1 14.6,-26.4 0.3,-0.4 0.6,-0.8 0.5,-1.7 -1.9,0.8 -3.2,2.3 -4.7,3.5 -1.6,1.2 -3,2.5 -5,4.2 5.9,-13 10,-25.7 6,-39.7 -0.8,4.6 -2,9.1 -5.1,12.9 1.2,-11.1 -0.8,-21.8 -2.9,-32.7 0.3,0.5 0.5,1.1 0.8,1.6 2.8,6.7 6.9,12.3 12.8,16.6 6.4,4.7 12.3,10.2 16,17.4 0.8,1.6 1.5,3.3 2.2,4.9 0.3,0.9 0.1,1.4 -1,1.1 -0.6,-0.1 -1.2,-0.3 -1.8,-0.3 -3.5,0.1 -6.2,-0.8 -6.4,-5 0,-0.4 -0.3,-0.8 -0.5,-1.1 -0.4,-0.6 -0.8,-1.6 -1.5,-1.5 -1,0.3 -0.3,1.3 -0.3,2 -0.4,5.7 -2.7,10.8 -5.2,15.8 -3.1,6.2 -6.7,12.2 -9.8,18.5 -3.5,7.3 -4,14.9 -3.4,22.8 0.1,1.2 -0.1,2.6 0.7,4 0.8,-0.9 0.8,-1.8 1,-2.7 0.9,-5.7 3.1,-11 6.1,-15.9 0.6,-1 1.4,-1.6 2.5,-1.6 10,-0.5 16.6,-6.5 22.6,-13.5 1.6,-1.8 2.7,-2 4.7,-1 3.6,2 7.2,4.2 9.7,7.6 0.1,0.2 0.2,0.5 0.4,1 -2.3,-0.4 -4.3,-1.1 -6.5,-1.2 -0.7,0 -1.4,-0.1 -2,-0.1 -4.3,0.5 -4.9,1.5 -3.4,5 z m -21.6,-15.3 c -1.7,1.3 -3.5,2.6 -5.7,4.1 0.5,-1.4 1.2,-2.1 1.8,-2.9 2.9,-3.6 5.9,-7.1 9.2,-10.3 1,-0.9 2,-1.5 3.3,-1.3 8.7,1.1 17,3.1 24.8,7.4 1.2,0.6 2.2,1.4 3.3,2 -5.2,-1.6 -10.3,-3.3 -15.6,-4.2 -7.7,-1.1 -14.8,0.5 -21.1,5.2 z m 10,0.9 c -0.6,6.3 -6.3,10 -14,9.3 4.6,-3.3 8.9,-6.7 14,-9.3 z m 39.2,71.9 c -1.3,-2.1 -2.9,-4 -4.4,-5.9 -1.6,-1.9 -3.5,-3.5 -5.1,-5.9 3,0.4 5,1.6 6.6,3.6 3.3,4.4 4.8,9.5 5.7,14.9 -0.8,-2.4 -1.6,-4.6 -2.8,-6.7 z m -5.6,-24.4 c 6.3,4.6 10.1,10.8 12.1,18.2 -3.5,-4.5 -8,-7.6 -13.5,-9.1 -0.9,-0.3 -1.3,-0.9 -1.6,-1.8 -1,-3.3 -2,-6.8 -3.1,-10.1 -0.5,-1.8 0.1,-2.3 1.8,-2.2 0.9,0.1 1.8,0.2 2.7,0.3 0.6,0.1 1.4,0.3 1.8,-0.2 0.4,-0.6 -0.3,-1.2 -0.6,-1.6 -2.7,-3.4 -4.6,-7.2 -6.1,-11.3 -0.2,-0.5 -0.3,-1 -0.3,-1.6 6.5,10.4 16.2,16.2 27.6,19.7 -7,0.5 -13.9,-0.2 -20.8,-0.3 z m 19.1,-7.1 c -1.3,0.7 -2,-0.5 -2.9,-1.2 -0.8,-0.5 -2.3,-0.8 -2,-1.8 0.3,-1 1.8,-0.7 2.8,-0.7 3.2,0 6.2,-1 9.1,-2.5 -1.8,2.7 -4.2,4.7 -7,6.2 z m -15.2,-36.4 c 2.5,2 4.8,3.8 7.4,5.5 0.7,0.4 1.5,1.2 2.3,0.6 0.9,-0.7 0.1,-1.6 -0.3,-2.2 -3.6,-7.2 -6.8,-14.5 -10.1,-21.8 -0.5,-1 -1.2,-1.8 -2.1,-2.5 -7.8,-5.8 -15.8,-11.2 -24.1,-16 0.4,-0.5 0.8,-0.1 1.2,0 8,2.5 15.8,5.8 23,10.2 2.9,1.7 4.8,3.9 6,7 3.3,8.3 6.4,16.8 10.8,24.6 0.2,0.4 0.8,0.9 -0.1,1.3 -1.3,0.6 -1.3,0.6 -0.6,1.9 -0.2,0.1 -0.3,0.2 -0.5,0.2 -1.2,0.3 -2.9,-0.7 -3.5,0.4 -0.5,0.9 1.1,1.9 1.7,2.9 3.7,5.7 8.3,10.6 14.1,14.6 -8.5,-0.1 -22.8,-15.3 -25.2,-26.7 z m 45.1,-29.5 c 1.4,2.9 2.1,6 2.7,9.1 0.3,1.8 0.2,3.3 -1.8,4.3 -2.1,1.1 -3.4,3.1 -4.6,5.3 -0.7,1.2 -0.3,1.8 1,2.3 3.3,1 6.2,2.6 9,5.1 -6.8,0.1 -13.2,0.3 -18.5,4.7 -0.2,-2.1 0.1,-2.7 3,-7 -0.7,-0.7 -1.4,-0.1 -1.8,0.1 -1.8,0.9 -2.7,0.5 -2.9,-1.5 0,-0.3 -0.1,-0.5 -0.3,-0.8 -0.8,0.4 -0.8,1.2 -0.8,1.8 -0.5,4 -1,8.1 -0.9,12.1 0,0.8 0.1,1.7 -0.3,2.5 -2.3,3.5 -4.8,6.8 -8.2,9.2 -2.1,1.6 -2.7,-0.8 -3.6,-1.8 -1,-1 -0.5,-1.8 0.6,-2.4 1.9,-1 1.9,-2.9 2.3,-4.6 0.2,-1 0.3,-1.9 0.3,-2.9 0.1,-3 -0.6,-4 -3.5,-4.2 -1.6,-0.1 -2.3,-1 -3.1,-2.3 -4,-5.7 -3.7,-11.9 -2.3,-18.2 0.3,-1.4 0.5,-2.7 0.7,-4.1 0.1,-0.3 0.1,-1.1 0.6,-0.8 1.4,1.2 1.7,-0.1 2,-0.9 2.7,-6.9 6.5,-13.2 10.4,-19.5 0.2,-0.3 0.7,-0.8 0.2,-1.6 -1.8,1.5 -3.5,3 -5.3,4.4 3.1,-8.9 6.3,-17.8 2.9,-27.5 -0.6,3.3 -1.5,6.5 -3.8,9.5 1,-8 -0.3,-15.4 -1.9,-22.9 2.3,5.4 6.1,9.5 10.8,12.9 4.8,3.5 8.9,7.8 11.5,13.4 0.3,0.7 1,1.4 0.4,2.1 -0.5,0.7 -1.4,0.2 -2.2,0.2 -2,0 -3.4,-0.8 -3.6,-3 -0.1,-0.5 -0.3,-0.9 -0.5,-1.3 -0.2,-0.4 -0.5,-1 -1.1,-0.8 -0.5,0.1 -0.4,0.7 -0.4,1.1 -0.5,5.2 -2.7,9.8 -5.3,14.3 -2,3.5 -3.8,7.2 -5.7,10.8 -3.1,5.9 -3.1,12.1 -2.6,18.3 0,0.4 0.1,0.8 0.8,1 0.3,-1.4 0.7,-2.9 1,-4.4 0.7,-3 2.1,-5.7 3.5,-8.4 0.4,-0.8 1,-1.4 1.8,-1.4 7.2,-0.2 12.1,-4.6 16.6,-9.4 2.2,-2.3 2.2,-2.3 5,-0.8 2.4,1.3 4.5,2.9 6.1,5.5 -1.7,-0.3 -3.1,-0.5 -4.4,-0.8 -0.8,-0.1 -1.6,-0.1 -2.5,0.1 -1.4,0.8 -2.1,1.6 -1.3,3.2 z M 264,140 c 2.3,-2 4.6,-3.9 7.2,-5.4 0.4,-0.3 1,-0.8 1.4,-0.3 0.4,0.5 -0.1,1 -0.3,1.5 -1.5,3.9 -4.9,4 -8.3,4.2 z m -1.5,-4.4 c 0.1,-1.3 0.8,-1.9 1.4,-2.7 1.2,-1.4 2.6,-2.7 3.7,-4.2 2.2,-3.1 4.8,-4 8.5,-3.2 5.6,1.2 10.9,2.7 15.6,6 -10.5,-4 -20.4,-5.1 -29.2,4.1 z m 41.9,55.7 c -0.3,2.1 -0.6,4.2 -0.8,6.3 0.2,-6.9 -2.9,-12.2 -7.9,-16.6 -0.8,-0.6 -2.1,-1.6 -1.6,-2.4 0.7,-1.1 2,0 3,0.3 2.9,0.9 5,2.7 6.8,5.2 0.1,0.2 0.4,0.5 0.3,0.8 -0.7,2.1 0.5,4.3 0.2,6.4 z m -7.2,-22.7 c 4,3.5 6.4,7.6 7.8,12.4 -2.1,-2.5 -4.7,-4.2 -7.6,-5.5 -0.9,-0.3 -1.2,-1 -1.5,-1.8 -0.6,-2.2 -1.4,-4.4 -2,-6.5 -0.5,-1.8 -0.2,-2.3 1.6,-2.1 0.3,0 0.7,0.1 1,0.1 0.5,0 1.2,0.3 1.5,-0.3 0.2,-0.5 -0.2,-0.9 -0.5,-1.3 -2,-2.6 -3.3,-5.5 -4.2,-8.7 3.8,5.6 8.4,10.2 14.6,13.2 -3.4,0.8 -6.8,0.1 -10.7,0.5 z m 4,-31.7 c 1.5,1 2.9,1.9 4.4,2.8 0.5,0.3 1.2,0.7 1.7,0.2 0.5,-0.5 0.1,-1 -0.1,-1.5 -2.3,-5 -4.6,-10 -6.9,-15.1 -0.5,-1.1 -1.3,-1.7 -2.3,-2.4 -5.3,-3.8 -10.5,-7.6 -16.2,-10.8 6.3,1.9 12.3,4.2 17.9,7.8 1.3,0.9 2.2,2.1 2.8,3.5 2.6,6.2 4.8,12.5 7.8,18.5 1,1.8 -1.1,1.8 -1.8,1.9 -1.6,0.3 -1.4,0.9 -0.9,2 2.3,4.6 5.5,8.4 9.9,11.9 -6.5,-1.3 -12.8,-8.8 -16.3,-18.8 z"
   id="path32" />
		<path
   d="m 178.9,197.7 c -0.6,6.3 -0.7,12.5 -0.1,18.8 0.1,0.5 -0.1,1 0.7,1.4 1.6,-5.3 2.5,-10.7 5.3,-15.5 2.8,-4.8 7,-8.3 10.8,-12.4 -4.9,1.2 -9.8,1.8 -14.3,4 -1.5,0.7 -2.2,2 -2.4,3.7 z"
   id="path33" />
		<path
   d="m 136.5,193.4 c -3.5,-1.4 -7.3,-2.1 -10.9,-3.2 -0.5,-0.1 -1.2,-0.4 -2,0.1 1.4,1.4 2.7,2.7 4,3.9 4.9,4.5 8.3,9.9 10,16.4 0.5,1.8 0.9,3.6 1.4,5.4 0.2,0.6 0,1.6 1.1,1.8 0.1,-0.4 0.2,-0.8 0.3,-1 0.3,-6.1 0.5,-12.3 0.1,-18.4 -0.5,-2.6 -1.7,-4.2 -4,-5 z"
   id="path34" />
		<path
   d="m 258,155.2 c -0.3,3.9 0.1,7.7 0.1,11.6 0,0.6 -0.1,1.3 1,2 1,-8 4.6,-14.5 10.7,-19.5 -3.5,0.4 -6.8,1.1 -9.9,2.6 -1.4,0.5 -1.8,1.8 -1.9,3.3 z"
   id="path35" />
		<path
   d="m 66.8,153.2 c -0.2,-0.9 -0.7,-1.7 -1.5,-2.1 -3.1,-1.6 -6.4,-2.3 -10.1,-2.6 6.4,5 9.6,11.7 11.1,19.5 0.5,-5 1.5,-9.9 0.5,-14.8 z"
   id="path36" />
	</g>
<path
   style="display:inline;fill:#ff0000;fill-opacity:1;stroke:#ff0000;stroke-width:0.822552;stroke-dasharray:none;stroke-opacity:1"
   d="m 283.61763,217.59891 c 1.44202,-1.1227 9.18637,-5.90704 9.56166,-5.90704 0.55817,0 -0.0222,1.68219 -1.06046,3.07379 -1.40164,1.87864 -4.12534,3.18494 -7.02221,3.36792 l -2.35692,0.14886 z"
   id="path50"
   transform="matrix(1.1733727,0,0,1.2596138,-145.71465,-97.087947)" /><path
   style="display:inline;fill:#ff0000;stroke:#ff0000;stroke-width:0.822552;stroke-dasharray:none;stroke-opacity:1"
   d="m 232.76148,217.93948 c -2.6354,-0.84789 -4.69493,-2.79402 -5.48651,-5.18444 -0.40718,-1.22958 0.47213,-0.89723 4.92096,1.85997 4.55306,2.8218 5.41786,3.41834 5.41786,3.73732 0,0.42733 -3.04654,0.16811 -4.85231,-0.41285 z"
   id="path51"
   transform="matrix(1.1733727,0,0,1.2596138,-145.71465,-97.087947)" /><path
   style="display:inline;fill:#ff0000;stroke:#ff0000;stroke-width:0.822552;stroke-dasharray:none;stroke-opacity:1"
   d="m 350.66442,187.35151 c 0.22531,-0.25289 1.6115,-1.23376 3.08042,-2.1797 2.66587,-1.71673 2.67031,-1.71814 2.41671,-0.76693 -0.48341,1.81323 -2.72503,3.40644 -4.79282,3.40644 -0.91711,0 -1.04157,-0.0813 -0.70431,-0.45981 z"
   id="path52"
   transform="matrix(1.1733727,0,0,1.2596138,-145.71465,-97.087947)" /><path
   style="fill:#800080;stroke-width:0.338939"
   d="m 173.26086,187.02193 c -0.91756,-0.22995 -2.00107,-0.69844 -2.40779,-1.0411 -0.86398,-0.72786 -2.22385,-3.07648 -1.7813,-3.07648 0.2819,0 6.15534,3.65759 6.89335,4.29273 0.46755,0.40237 -0.70213,0.32661 -2.70426,-0.17515 z"
   id="path53"
   transform="matrix(1.1733727,0,0,1.2596138,-145.71465,-97.087947)" /><path
   style="fill:#ff0000;stroke:#ff0000;stroke-width:0.822552;stroke-dasharray:none;stroke-opacity:1"
   d="m 172.82211,186.66758 c -1.70857,-0.56044 -4.2068,-3.10896 -3.0476,-3.10896 0.15871,0 1.53726,0.80965 3.06344,1.79921 2.79646,1.8132 2.7914,2.23057 -0.0159,1.30975 z"
   id="path65"
   transform="matrix(1.1733727,0,0,1.2596138,-145.71465,-97.087947)" /></g></g>

<g
   id="layer1"
   style="display:inline"
   transform="translate(-88.442809,-48.306997)"><text
     style="font-size:42.6667px;line-height:1.25;font-family:'PROMESH Mesh';-inkscape-font-specification:'PROMESH Mesh';fill:#ff0000;stroke:#000000"
     x="-27.482098"
     y="183.15001"
     id="text56"
     transform="rotate(-46.391282)">m</text><text
     style="font-size:42.6667px;line-height:1.25;font-family:'PROMESH Mesh';-inkscape-font-specification:'PROMESH Mesh';fill:#ff0000;stroke:#000000"
     x="41.553463"
     y="179.66573"
     id="text55"
     transform="rotate(-34.906978)">i</text><text
     style="font-size:42.6667px;line-height:1.25;font-family:'PROMESH Mesh';-inkscape-font-specification:'PROMESH Mesh';fill:#ff0000;stroke:#000000"
     x="74.826614"
     y="174.8902"
     id="text54"
     transform="rotate(-29.836528)">n</text><text
     style="font-size:42.6667px;line-height:1.25;font-family:'PROMESH Mesh';-inkscape-font-specification:'PROMESH Mesh';fill:#ff0000;stroke:#000000"
     x="125.30145"
     y="160.23195"
     id="text53"
     transform="rotate(-22.255201)">d</text><text
     style="font-size:42.6667px;line-height:1.25;font-family:'PROMESH Mesh';-inkscape-font-specification:'PROMESH Mesh';fill:#ff0000;stroke:#000000"
     x="160.70398"
     y="150.50883"
     id="text52"
     transform="rotate(-18.309935)">f</text><text
     style="font-size:42.6667px;line-height:1.25;font-family:'PROMESH Mesh';-inkscape-font-specification:'PROMESH Mesh';fill:#ff0000;stroke:#000000"
     x="201.24216"
     y="121.05412"
     id="text51"
     transform="rotate(-9.2648633)">u</text><text
     style="font-size:42.6667px;line-height:1.25;font-family:'PROMESH Mesh';-inkscape-font-specification:'PROMESH Mesh';fill:#ff0000;stroke:#000000"
     x="241.85431"
     y="91.396751"
     id="text50"
     transform="rotate(-1.8576086)">l</text><text
     style="font-size:42.6667px;line-height:1.25;font-family:'PROMESH Mesh';-inkscape-font-specification:'PROMESH Mesh';fill:#ff0000;stroke:#000000"
     x="300.11407"
     y="25.004572"
     id="text49"
     transform="rotate(11.464259)">B</text><text
     style="font-size:42.6667px;line-height:1.25;font-family:'PROMESH Mesh';-inkscape-font-specification:'PROMESH Mesh';fill:#ff0000;stroke:#000000"
     x="325.8559"
     y="-19.554897"
     id="text48"
     transform="rotate(19.25156)">e</text><text
     style="font-size:42.6667px;line-height:1.25;font-family:'PROMESH Mesh';-inkscape-font-specification:'PROMESH Mesh';fill:#ff0000;stroke:#000000"
     x="346.14847"
     y="-57.485569"
     id="text47"
     transform="rotate(25.355135)">a</text><text
     style="font-size:42.6667px;line-height:1.25;font-family:'PROMESH Mesh';-inkscape-font-specification:'PROMESH Mesh';fill:#ff0000;stroke:#000000"
     x="367.2507"
     y="-97.094223"
     id="text46"
     transform="rotate(31.572051)">s</text><text
     style="font-size:42.6667px;line-height:1.25;font-family:'PROMESH Mesh';-inkscape-font-specification:'PROMESH Mesh';fill:#ff0000;stroke:#000000"
     x="371.96844"
     y="-144.3317"
     id="text45"
     transform="rotate(38.701999)">t</text><text
     style="font-size:42.6667px;line-height:1.25;font-family:'PROMESH Mesh';-inkscape-font-specification:'PROMESH Mesh';fill:#ff0000;stroke:#000000"
     x="378.85275"
     y="-186.1972"
     id="text44"
     transform="rotate(45.203065)">s</text></g><g
   id="layer2"
   transform="translate(-88.442809,-48.306997)"><text
     style="font-size:42.6667px;line-height:1.25;font-family:'PROMESH Mesh';-inkscape-font-specification:'PROMESH Mesh';letter-spacing:2px;fill:#ff0000;stroke:#000000"
     x="307.30441"
     y="238.93958"
     id="text74"
     transform="rotate(32.336348)">A</text><text
     style="font-size:42.6667px;line-height:1.25;font-family:'PROMESH Mesh';-inkscape-font-specification:'PROMESH Mesh';letter-spacing:2px;fill:#ff0000;stroke:#000000"
     x="296.92288"
     y="286.78027"
     id="text73"
     transform="rotate(23.53137)">t</text><text
     style="font-size:42.6667px;line-height:1.25;font-family:'PROMESH Mesh';-inkscape-font-specification:'PROMESH Mesh';letter-spacing:2px;fill:#ff0000;stroke:#000000"
     x="284.86105"
     y="331.61743"
     id="text72"
     transform="rotate(15.011559)">h</text><text
     style="font-size:42.6667px;line-height:1.25;font-family:'PROMESH Mesh';-inkscape-font-specification:'PROMESH Mesh';letter-spacing:2px;fill:#ff0000;stroke:#000000"
     x="296.50763"
     y="350.8757"
     id="text71"
     transform="rotate(11.196813)">l</text><text
     style="font-size:42.6667px;line-height:1.25;font-family:'PROMESH Mesh';-inkscape-font-specification:'PROMESH Mesh';letter-spacing:2px;fill:#ff0000;stroke:#000000"
     x="250.121"
     y="405.10736"
     id="text70">e</text><text
     style="font-size:42.6667px;line-height:1.25;font-family:'PROMESH Mesh';-inkscape-font-specification:'PROMESH Mesh';letter-spacing:2px;fill:#ff0000;stroke:#000000"
     x="217.10266"
     y="443.12894"
     id="text69"
     transform="rotate(-8.8502843)">t</text><text
     style="font-size:42.6667px;line-height:1.25;font-family:'PROMESH Mesh';-inkscape-font-specification:'PROMESH Mesh';letter-spacing:2px;fill:#ff0000;stroke:#000000"
     x="182.56009"
     y="476.03012"
     id="text68"
     transform="rotate(-17.613081)">i</text><text
     style="font-size:42.6667px;line-height:1.25;font-family:'PROMESH Mesh';-inkscape-font-specification:'PROMESH Mesh';letter-spacing:2px;fill:#ff0000;stroke:#000000"
     x="149.28613"
     y="496.55774"
     id="text67"
     transform="rotate(-24.169526)">C</text><text
     style="font-size:42.6667px;line-height:1.25;font-family:'PROMESH Mesh';-inkscape-font-specification:'PROMESH Mesh';letter-spacing:2px;fill:#ff0000;stroke:#000000"
     x="116.54662"
     y="515.87683"
     id="text66"
     transform="rotate(-31.298221)">S</text></g></svg>
